<svg width="783" height="270" xmlns="http://www.w3.org/2000/svg" xmlns:svg="http://www.w3.org/2000/svg" enable-background="new 0 0 783 321" version="1.1" xml:space="preserve">
 <g class="layer">
  <title>Layer 1</title>
  <path d="m385.08,0.99c37.71,-1.35 74.97,-1.64 112.08,1.22c34.33,2.65 68.7,5.5 102.76,9.9c52.42,6.78 103.81,17.31 152.31,36.22c4.57,1.78 9.69,3.32 9.47,8.9c-0.17,4.59 -2.96,6.95 -8.36,6.65c-1.83,-0.1 -3.76,-0.43 -5.41,-1.07c-31.36,-12.13 -64.57,-19.1 -98.01,-25.49c-44.98,-8.62 -90.47,-14.33 -136.4,-17.58c-46.32,-3.28 -92.68,-4.41 -139.08,-1.73c-70.58,4.08 -139.93,13.78 -206.59,34.6c-37.11,11.59 -72.28,26.43 -103.36,47.48c-14.57,9.86 -27.5,21.11 -36.79,34.95c-14.14,21.05 -10.16,41.1 10.49,57.86c27.68,22.46 61.12,35.34 97.74,43.06c49.5,10.44 99.92,14.86 150.79,16.68c51.39,1.83 102.67,0.42 153.89,-2.96c69.03,-4.54 137.38,-12.86 204.28,-28.43c33.41,-7.79 65.26,-18.54 92.78,-37.01c9.48,-6.37 16.62,-14.42 21.57,-23.73c7.92,-14.91 4.07,-30.15 -10.28,-41.29c-16.02,-12.43 -35.12,-20.57 -54.84,-27.71c-43.09,-15.59 -87.72,-26.89 -134.11,-32.55c-20.99,-2.56 -42.26,-3.44 -63.41,-5.1c-1.52,-0.12 -3.05,-0.19 -4.55,-0.42c-4.8,-0.74 -9.26,-4.27 -9.04,-7.1c0.25,-3.36 5.71,-7.81 10.29,-7.72c15.46,0.29 30.96,0.22 46.35,1.39c66.42,5.05 128.47,22.97 188.34,47c12.71,5.11 24.05,11.91 34.2,20.09c22.54,18.18 26.72,41.86 11.92,65.77c-9.47,15.32 -24.3,26.12 -41.16,35.15c-25.18,13.51 -53.09,21.62 -81.39,28.74c-44.23,11.12 -89.57,17.6 -135.22,22.72c-50.94,5.7 -102.1,9.04 -153.44,10.05c-60.24,1.17 -120.38,-0.25 -179.99,-8.58c-35.88,-5.02 -71.37,-11.42 -104.51,-24.8c-20.67,-8.34 -40.15,-18.16 -55.86,-32.6c-26.99,-24.81 -29.84,-54.28 -7.9,-82.6c14.84,-19.16 35.33,-33.37 57.37,-46.04c42.87,-24.66 90.52,-40.25 140.14,-51.7c54.45,-12.57 110.05,-19.23 166.35,-21.88c2.04,-0.1 4.07,-0.19 6.59,-0.34l-0.01,0z" fill="#c5c5c5" id="svg_1"/>
 </g>
</svg>