<svg xmlns="http://www.w3.org/2000/svg" xmlns:xlink="http://www.w3.org/1999/xlink" xml:space="preserve" viewBox="0 0 1500 350">
  <defs>
    <path id="a" d="M904.32 347.75c-.25 0-.5-.09-.68-.27-.18-.19-.27-.42-.25-.67.95-15.31.61-38.94.29-61.79-.15-10.94-.29-21.25-.29-30.33 0-.23.1-.48.29-.64s.42-.27.68-.26c42.85 1.23 87.85.55 131.35-.09l10.57-.16c.52 0 .95.38.98.88.52 13.3.34 28.81.14 43.8-.22 16.8-.42 34.19.35 48.61.03.26-.07.51-.27.69-.19.19-.46.27-.71.26-32.48-1.34-63.36-.92-96.06-.46-15.01.22-30.53.43-46.34.48v-.01l-.01-.03-.01.01h-.03zm.98-92.13c0 8.84.15 18.81.29 29.36.34 22.44.65 45.59-.22 60.97 15.42-.04 30.61-.26 45.3-.46 32.37-.46 62.95-.88 95.12.42-.74-14.27-.52-31.25-.32-47.72.18-14.65.37-29.77-.1-42.83l-9.63.15c-43.17.64-87.83 1.32-130.43.11h-.01z"/>
    <path id="b" d="M933.1 309.11c-.42 0-.79-.26-.91-.65-1.69-5.31-3.26-10.69-4.78-15.89-.52-1.82-1.04-3.61-1.58-5.43-.07-.23-.04-.5.1-.71.14-.2.35-.36.6-.42 10.32-2.37 21-4.8 31.57-7.4.52-.11 1.03.16 1.15.65l.6 2.11c1.85 6.58 3.61 12.81 5.06 19.76.04.23 0 .48-.15.67-.14.2-.37.35-.61.38-5.78 1.02-11.62 2.44-17.28 3.81-4.44 1.08-9.04 2.18-13.56 3.1-.07 0-.14.01-.19.01l-.03.01h-.01.02l-.01-.02zm-5.17-21.57c.44 1.52.9 3.03 1.32 4.53 1.45 4.92 2.93 10.03 4.49 15.08 4.21-.86 8.49-1.9 12.65-2.9 5.38-1.31 10.94-2.63 16.45-3.67-1.39-6.55-3.08-12.48-4.85-18.76l-.35-1.24c-9.96 2.44-19.99 4.74-29.74 6.97h.03v-.01z"/>
    <path id="c" d="M934.14 292.27c-.14 0-.27-.09-.32-.23-.04-.16.07-.34.22-.36 6.82-1.68 13.67-3.49 20.43-5.38.15-.06.35.04.38.2.07.16-.04.34-.22.38-6.74 1.89-13.61 3.69-20.43 5.38-.04 0-.07.01-.1.01h.03v.01zm.8 4.96c-.14 0-.25-.09-.29-.22-.07-.16.04-.34.22-.36l13.33-3.58c.18-.06.35.06.4.2.04.16-.07.34-.22.38l-13.33 3.58h-.11l-.01.01zm3.27 4.59c-.15 0-.27-.09-.32-.22-.07-.16.04-.34.22-.38l17.94-4.96c.15-.06.35.04.38.2.07.16-.04.34-.22.38l-17.94 4.96c-.03 0-.07.01-.07.01v.02z"/>
  </defs>
  <g class="layer">
    <path fill="#FFF" d="M580.62 269.52s1.9-87.35 1.9-188.91c0-23.49-1.9-56.83-1.9-56.83l507.87-2.3s-1.28 43.59 0 79.46c1.87 51.84 0 169.58 0 169.58s-170.07-4.58-275.11-1.06c-64.6 2.17-232.78.04-232.78.04l.01.01.01.01z"/>
    <path d="M1088.51 271.38h-.03c-1.72-.05-171.24-4.56-275.07-1.06-63.89 2.14-231.13.04-232.82.01-.25 0-.5-.08-.67-.25-.18-.15-.27-.37-.27-.6.03-.88 1.9-88.53 1.9-188.9 0-23.2-1.88-56.44-1.9-56.76-.03-.24.07-.46.27-.63.18-.17.42-.25.67-.25l507.87-2.32c.29.01.5.1.68.25.18.17.27.38.27.61-.03.43-1.27 43.97 0 79.42 1.83 51.26.03 168.45 0 169.62 0 .24-.11.43-.29.6-.19.15-.42.24-.67.24h.01l.03.01h.01l.01.01zm-178.15-4.07c83.47 0 167.25 2.11 177.2 2.36.18-10.75 1.75-119.77 0-168.7-1.17-32.72-.19-72.35-.04-78.64l-505.91 2.3c.32 5.42 1.87 34.86 1.87 55.99 0 95.13-1.71 178.83-1.88 188.07 13.77.17 170.44 2.01 231.76-.04 28.92-.97 62.94-1.34 97-1.34h-.01z"/>
    <path fill="#FFF" d="M580.62 29.68V9.22s170.35-1.2 236.58-1.2c66.87 0 271.29-1.11 271.29-1.11v20.48s-211.69-.17-284.88 2.06c-63.3 1.92-223.01.24-223.01.24l.01-.01h.01z"/>
    <path d="M708.91 31.19c-62.91 0-127.29-.67-128.3-.68-.52 0-.95-.37-.95-.83V9.22c0-.47.42-.85.95-.85 1.71-.01 171.11-1.18 236.58-1.18 66.1 0 269.26-1.11 271.29-1.11.25 0 .5.08.67.24.18.17.29.37.29.6V27.4c0 .21-.11.42-.29.6-.18.15-.42.24-.67.24-2.12 0-212.52-.13-284.86 2.06-22.86.71-58.55.92-94.73.92v-.04h.01zm-127.33-2.35c13.32.13 162 1.57 222.02-.25 69.84-2.11 268.38-2.07 283.96-2.06V7.73c-15.32.08-206.58 1.11-270.35 1.11-62.91 0-221.81 1.08-235.63 1.18v18.83h-.01.01z"/>
    <path fill="#ACD4F7" d="M1058.84 17.13c0-2.42 2.29-4.37 5.12-4.37 2.82 0 5.1 1.96 5.1 4.37 0 2.42-2.29 4.37-5.1 4.37-2.82 0-5.12-1.96-5.12-4.37z"/>
    <path d="M1063.95 22.33c-3.34 0-6.06-2.33-6.06-5.2s2.72-5.2 6.06-5.2c3.34 0 6.06 2.33 6.06 5.2s-2.72 5.2-6.06 5.2zm0-8.71c-2.3 0-4.14 1.59-4.14 3.53 0 1.93 1.85 3.53 4.14 3.53 2.29 0 4.14-1.59 4.14-3.53 0-1.93-1.87-3.53-4.14-3.53z"/>
    <path fill="#FFF" d="M1026.68 17.13c0-2.42 2.3-4.37 5.12-4.37 2.82 0 5.1 1.96 5.1 4.37 0 2.42-2.29 4.37-5.1 4.37-2.82 0-5.12-1.96-5.12-4.37z"/>
    <path d="M1031.81 22.33c-3.34 0-6.06-2.33-6.06-5.2s2.72-5.2 6.06-5.2c3.34 0 6.06 2.33 6.06 5.2s-2.72 5.2-6.06 5.2zm0-8.71c-2.3 0-4.14 1.59-4.14 3.53 0 1.93 1.85 3.53 4.14 3.53 2.29 0 4.14-1.59 4.14-3.53 0-1.93-1.87-3.53-4.14-3.53z"/>
    <path fill="#FFF" d="M994.54 17.13c0-2.42 2.29-4.37 5.1-4.37 2.82 0 5.12 1.96 5.12 4.37 0 2.42-2.3 4.37-5.12 4.37-2.82 0-5.1-1.96-5.1-4.37z"/>
    <path d="M999.65 22.33c-3.34 0-6.06-2.33-6.06-5.2s2.72-5.2 6.06-5.2c3.34 0 6.06 2.33 6.06 5.2s-2.72 5.2-6.06 5.2zm0-8.71c-2.29 0-4.14 1.59-4.14 3.53 0 1.93 1.85 3.53 4.14 3.53 2.29 0 4.14-1.59 4.14-3.53 0-1.93-1.87-3.53-4.14-3.53z"/>
    <path fill="#FFF" d="M143.7 145.47c-17.72.38-45.2-.2-62.28-.93-.82 8.05.22 13.33 4.78 18.63 3.68 4.31 7.37 5.71 13.4 5.83 3.08.04 14.57-3.69 17.6-4.31 9.47-1.87 21.41-.95 26.49-19.22z"/>
    <path d="M99.67 169.91h-.07c-6.55-.11-10.39-1.78-14.14-6.13-4.51-5.28-5.86-10.5-4.97-19.3.04-.5.46-.88.99-.82 17.13.71 44.75 1.31 62.23.93.32-.01.6.12.78.35.19.22.25.51.18.78-4.56 16.36-14.53 17.88-23.32 19.22-1.35.2-2.63.39-3.92.65-1.01.2-3.05.78-5.42 1.44-4.72 1.34-10.09 2.87-12.31 2.87h-.01l-.01-.01zM82.28 145.5c-.65 7.72.64 12.44 4.64 17.12 3.39 3.95 6.7 5.38 12.68 5.47 1.87.01 7.61-1.6 11.81-2.79 2.41-.67 4.49-1.28 5.57-1.48 1.31-.26 2.68-.48 4.01-.67 8.39-1.27 17.05-2.61 21.44-16.74-17.27.32-43.39-.22-60.17-.92h.02z"/>
    <path fill="#FFF" d="M211.8 37.22c6.61 34.11 3.14 67.79 1.54 102.5-.4 8.76-2.62 17.68-9.72 24.18-5.06 4.63-11.85 6.36-19.56 5.62-28.41-2.67-65.09-.62-85.87-.62 5.61-1.44 5.43-1.79 9-6.67 3.57-4.86 3.88-11.33 4.64-17.3 1.69-13.25 4.44-26.67 3.99-40-.78-22.96-1.54-47.37-3.18-68.48 21.85 0 70.12 1.68 99.19.74l-.01.01v.01h-.01l-.01.01z"/>
    <path d="M187.44 170.61c-1.13 0-2.33-.06-3.51-.16-20.61-1.96-45.6-1.39-65.7-.93-7.39.16-14.39.34-20.08.34-.46 0-.86-.35-.95-.78-.07-.46.22-.88.68-1.01 4.78-1.23 4.93-1.44 7.64-5.17.25-.35.53-.71.82-1.13 3-4.04 3.61-9.41 4.21-14.57.1-.78.19-1.56.29-2.33.4-3.29.91-6.63 1.36-9.87 1.45-9.84 2.96-20.01 2.6-29.97l-.14-4.26c-.74-21.83-1.5-44.42-3.04-64.19-.03-.26.07-.5.25-.69.18-.19.42-.27.68-.27 7.5 0 17.93.19 29.98.42 22.31.39 50.12.93 69.17.3.5-.01.9.32.99.75 5.61 28.83 4.03 56.71 2.4 86.26-.29 5.38-.6 10.94-.85 16.45-.52 10.97-3.79 19.1-10.03 24.82-4.39 4.02-10.03 6.05-16.82 6.05v-.01l.02-.02h.02l.02-.02zm-39.32-3.36c12.29 0 24.79.32 35.99 1.37 7.79.74 14.11-1.08 18.82-5.38 5.84-5.37 8.92-13.09 9.43-23.58.25-5.5.56-11.08.86-16.45 1.61-29.18 3.14-56.74-2.25-85.06-19.11.59-46.42.07-68.46-.35-11.52-.2-21.52-.38-28.92-.39 1.54 19.58 2.26 41.8 2.97 63.3l.14 4.26c.35 10.12-1.15 20.38-2.62 30.29-.46 3.22-.98 6.58-1.36 9.84-.1.75-.19 1.52-.29 2.32-.61 5.38-1.27 10.97-4.53 15.41-.29.39-.56.78-.82 1.12-1.55 2.12-2.43 3.29-3.68 4.07 4.49-.06 9.51-.16 14.74-.27 9.24-.22 19.52-.43 29.93-.43l.01-.04v-.01h.03v-.02z"/>
    <path fill="#FFF" d="M247.88 45.25c1.13-1.82 2.3-3.64 3.43-5.47.56-.86 1.17-1.79 2.18-2.18.98-.35 2.02-.12 3.01.16 1.17.35 2.47.97 2.72 2.09.22 1.05-.53 2.03-1.27 2.84-1.71 1.9-3.46 3.75-5.24 5.58-.38.39-.78.78-1.31 1-.42.16-.91.19-1.36.11-1.1-.15-2.15-.78-2.6-1.68-.49-.93-.32-2.14.46-2.41l.01-.03v.01l-.02-.02z"/>
    <path d="M250.53 50.29c-.22 0-.42-.01-.65-.06-1.45-.2-2.72-1.05-3.32-2.18-.42-.81-.49-1.79-.15-2.57.18-.39.44-.71.79-.93l3.32-5.27c.53-.86 1.28-2.05 2.63-2.57 1.25-.48 2.6-.16 3.65.15 1.95.59 3.08 1.52 3.36 2.76.37 1.59-.9 2.95-1.46 3.63-1.72 1.89-3.5 3.77-5.28 5.59-.38.39-.91.93-1.65 1.2-.38.15-.79.22-1.24.22v-.01.02zm-2.3-4.19c-.11.11-.22.65.04 1.16.32.62 1.06 1.08 1.88 1.2.35.06.65.04.9-.06.35-.12.67-.46.98-.75 1.77-1.82 3.53-3.67 5.2-5.55.64-.69 1.19-1.43 1.06-2.05-.15-.71-1.21-1.17-2.07-1.43-.74-.22-1.69-.43-2.37-.19-.68.26-1.17.97-1.71 1.82l-3.46 5.47c-.11.16-.27.32-.46.38v-.02.01zm-.35-.86z"/>
    <path fill="#FFF" d="M216.28 83.55c-8.12 10.96-14.68 21.09-23.77 33.35-.91 1.68-1.99 3.29-2.67 5.05-.67 1.78-.91 3.79-.1 5.51.82 1.74 2.86 3.04 4.82 2.67 1.66-.34 2.83-1.63 3.86-2.88 10.24-12.22 19.63-25.43 29.27-38.11l-11.42-5.62.01.01.01.01h-.01z"/>
    <path d="M193.89 131.12c-2.03 0-4.1-1.31-5.01-3.29-1.04-2.21-.53-4.6.07-6.19.49-1.31 1.19-2.53 1.87-3.69.27-.48.56-.97.82-1.47.03-.04.04-.07.07-.11 4.67-6.29 8.68-12.05 12.56-17.6 3.72-5.37 7.25-10.42 11.21-15.77.29-.36.82-.5 1.24-.27l11.42 5.62c.25.12.42.35.49.62.07.26.03.51-.15.74-2.75 3.61-5.49 7.33-8.17 10.92-6.78 9.07-13.77 18.45-21.1 27.21-.94 1.12-2.33 2.79-4.43 3.19-.29.06-.57.09-.9.09l-.01.01-.02-.02.03.01zm-.56-13.75c-.27.48-.53.95-.82 1.44-.67 1.16-1.31 2.25-1.75 3.45-.49 1.28-.91 3.17-.14 4.85.6 1.27 2.21 2.44 3.76 2.14 1.28-.23 2.3-1.34 3.3-2.55 7.3-8.72 14.29-18.07 21.03-27.12 2.48-3.33 5.04-6.74 7.57-10.08l-9.71-4.8c-3.75 5.09-7.12 9.96-10.71 15.08-3.88 5.55-7.87 11.31-12.53 17.6l.01.01.01-.01h-.02z"/>
    <path fill="#ACD4F7" d="M227.48 92.39c-2.25-1.28-10.46-6.43-13.86-9.27 5.53-6.52 7.74-10.82 12.82-17.81 1.99-2.73 9.28-12.39 10.82-14.43 6.09-8.25 12.52-5.43 15.82-2.48 5.88 5.24-2.83 12.61-4.56 14.77-7.74 9.81-14.07 18.23-21.07 29.23l.01-.01v.01h.02z"/>
    <path d="M227.48 93.28c-.18 0-.35-.04-.5-.12-2.18-1.24-10.5-6.43-14-9.37-.38-.32-.42-.86-.1-1.24 3.43-4.07 5.53-7.17 7.95-10.79 1.45-2.14 2.93-4.37 4.82-6.97 1.25-1.7 4.57-6.13 7.25-9.7 1.61-2.14 3-4 3.57-4.76 2.6-3.52 5.53-5.46 8.72-5.77 3.92-.38 7.04 1.83 8.55 3.17 5.72 5.08-.42 11.63-3.36 14.79-.46.48-.85.89-1.08 1.2-8.17 10.36-14.23 18.45-21 29.14-.14.22-.35.36-.6.42-.07.01-.15.01-.22.01zm-12.52-10.3c3.28 2.59 9.52 6.52 12.22 8.14C233.77 80.78 240 72.5 247.8 62.6c.27-.34.67-.78 1.17-1.31 4.07-4.37 7.28-8.85 3.47-12.25-1.27-1.13-3.88-2.99-7.04-2.67-2.6.26-5.08 1.94-7.35 5.01-.57.78-1.96 2.62-3.58 4.78-2.67 3.56-5.97 7.98-7.21 9.65-1.88 2.59-3.36 4.78-4.78 6.9-2.22 3.33-4.32 6.44-7.5 10.26l-.01.01-.01-.01v.01z"/>
    <path d="M237.05 91.37c-.98 0-1.88-.32-2.56-.89-1.75-1.54-1.69-4.04-.85-5.71.82-1.72 2.33-2.99 3.68-4.08l12.53-10.4c2.5-2.09 5.1-4.23 6.97-6.84 2.03-2.8 2.93-5.81 2.48-8.48-.49-3.01-2.87-5.58-5.69-6.09-.52-.09-.86-.58-.78-1.05.1-.5.6-.82 1.12-.74 3.65.65 6.61 3.77 7.23 7.59.5 3.13-.49 6.62-2.79 9.81-2 2.76-4.68 5.01-7.28 7.14l-12.53 10.42c-1.25 1.02-2.54 2.11-3.2 3.48-.56 1.13-.6 2.73.4 3.61.44.38 1.24.53 1.9.34.27-.07.75-.27.9-.75.14-.48.65-.78 1.15-.64.52.12.82.63.68 1.1-.27.97-1.06 1.72-2.21 2.03-.38.11-.79.16-1.17.16l.03-.01-.01-.01-.01-.01zm-49.69 44.59c-.18 0-.35-.06-.52-.15-.44-.27-.56-.85-.27-1.27l3.84-5.55c.29-.42.86-.53 1.31-.26.44.27.56.82.27 1.24l-3.82 5.55c-.19.27-.5.42-.82.42v.01l.01.01zm-50.71-68.44h-.03c-.37 0-.67-.2-.85-.5-1.08-2.12-2.41-4.14-3.96-6.01-.34-.38-.25-.95.15-1.27.42-.32 1.03-.26 1.35.15 1.24 1.5 2.36 3.1 3.34 4.78l4.35-7.7c.25-.46.82-.62 1.28-.38.49.23.65.78.4 1.24l-5.22 9.19c-.15.32-.49.48-.82.48l.01.03v-.02zm0 24.21h-.03c-.37-.01-.67-.2-.85-.51-1.08-2.12-2.41-4.14-3.96-6.01-.34-.38-.25-.95.15-1.27.42-.32 1.03-.23 1.35.15 1.24 1.5 2.36 3.11 3.34 4.78l4.35-7.7c.25-.43.82-.62 1.28-.36.49.23.65.78.4 1.23l-5.22 9.22c-.15.3-.49.48-.82.48h.01v-.02.01zm-1.91 24.23h-.03c-.37-.01-.67-.2-.85-.51-1.08-2.12-2.41-4.14-3.96-6-.34-.39-.25-.97.15-1.28.42-.32 1.03-.23 1.35.15 1.24 1.5 2.36 3.11 3.34 4.78l4.35-7.7c.25-.43.82-.62 1.31-.36.46.23.64.78.38 1.23l-5.2 9.22c-.18.3-.5.48-.85.48h.01v-.02.01zm24.82-52.64c-2.52 0-5.04-.01-7.54-.04-.52 0-.95-.39-.95-.92 0-.5.42-.89.95-.89h.03c14.99.12 30.21-.12 45.2-.78.52-.04.99.36 1.01.88.03.5-.38.92-.91.95-12.52.51-25.2.78-37.77.78h-.02zm-.02 24.77c-2.5 0-5.02-.01-7.53-.04-.52 0-.95-.39-.95-.92 0-.5.42-.89.95-.89h.03c15.01.12 30.21-.12 45.2-.75.52-.06.99.35 1.01.86.03.5-.38.92-.91.95-12.52.51-25.21.78-37.78.78h-.02v-.01zm-1.24 23.64c-2.11 0-4.21 0-6.29-.04-.52 0-.95-.39-.95-.92 0-.5.42-.89.98-.89 12.52.12 25.2-.12 37.7-.75.52-.01.99.35 1.01.86.04.5-.37.92-.9.95-10.46.53-21.04.78-31.54.78h-.02l.01-.01zm-.55 40.27c-2.9 0-4.44-2.73-4.89-5.13-.35-1.82-.57-3.64-.71-5.47-2.62 2.71-6.06 4.91-9.93 6.31-.5.19-1.06-.06-1.24-.53-.19-.48.07-1 .56-1.17 4.28-1.52 7.97-4.12 10.51-7.32-.03-1.94.07-3.88.32-5.81.18-1.5.61-3.36 2.43-4.26.37-.19.82-.11 1.12.16.99.93 1.87 2.71.64 5.89-.64 1.63-1.51 3.13-2.58 4.59.07 2.44.34 4.88.78 7.28.07.38.79 3.75 3.14 3.64.82-.04 1.62-.51 2.56-1.5 1.06-1.12 1.96-2.33 2.71-3.6-.04-.04-.07-.07-.1-.12-.56-.71-.71-1.56-.79-2.35-.15-1.83-.07-3.68.25-5.51.07-.43.5-.78.98-.75 1.46.04 2.79 1.02 3.26 2.37.38 1.17.14 2.33-.18 3.33-.27.82-.57 1.63-.98 2.44.9.23 2.08.15 3.08-.19 2.15-.69 3.88-2.16 4.74-3.88-.19-.95.15-1.87.98-2.44.32-.22.71-.26 1.04-.07.34.19.52.53.49.89-.07.58-.22 1.12-.42 1.66.22.34.57.64 1.06.75 1.19.27 2.68-.16 3.99-1.2.4-.32 1.01-.26 1.35.12.34.38.27.95-.14 1.28-1.75 1.39-3.88 1.98-5.65 1.56-.57-.12-1.12-.39-1.58-.78-1.17 1.7-3.04 3.07-5.22 3.81-1.4.46-3.16.59-4.57.09-.79 1.34-1.75 2.62-2.86 3.77-.82.86-2.12 2.02-3.9 2.11h-.22l-.03.04v-.02l-.01.01zm6.47-13.56c-.15 1.34-.18 2.67-.07 4.02.03.16.04.34.07.46.19-.46.35-.92.5-1.39.22-.71.42-1.54.19-2.24-.11-.32-.35-.63-.68-.85v.01h-.01zm-9.22-7.7c-.4.48-.64 1.23-.78 2.33-.1.86-.18 1.72-.22 2.57.27-.51.52-1.05.74-1.6.53-1.39.64-2.48.27-3.3H155zm38.81 35.97c-.1 0-.18-.01-.22-.09-.11-.11-.11-.32 0-.42 3.16-2.9 5.61-6.56 7.03-10.5.07-.16.25-.26.4-.2.18.06.25.23.19.38-1.46 4.04-3.96 7.76-7.18 10.75-.07.06-.14.07-.22.07h-.01zm-5.96.37c-.1 0-.19-.06-.25-.12-.1-.15-.07-.34.07-.42 2.43-1.7 4.26-4.14 5.18-6.89.07-.15.22-.23.4-.19.18.06.25.22.22.38-.98 2.84-2.9 5.38-5.43 7.16-.07.04-.11.07-.19.07l-.01.01h.01l-.01-.01zm-75.02-2.28c-.04 0-.1-.01-.15-.06-.15-.07-.19-.26-.11-.39 1.35-2.21 2.43-4.59 3.16-7.06.07-.16.22-.26.38-.2.18.04.27.2.22.36-.75 2.51-1.85 4.92-3.23 7.2-.07.09-.18.15-.29.15l-.01-.01h.02z"/>
    <path fill="#FFF" d="M1377.32 321.17c0-3.15-2.68-5.71-5.99-5.71-3.32 0-6.02 2.57-6.02 5.71 0 3.15 2.71 5.7 6.02 5.7 3.32 0 5.99-2.55 5.99-5.7z"/>
    <path d="M1371.32 327.8c-3.84 0-6.97-2.97-6.97-6.62 0-3.64 3.12-6.62 6.97-6.62 3.84 0 6.94 2.97 6.94 6.62 0 3.64-3.1 6.62-6.94 6.62zm0-11.4c-2.79 0-5.06 2.16-5.06 4.8 0 2.63 2.26 4.8 5.06 4.8s5.04-2.16 5.04-4.8c0-2.66-2.26-4.8-5.04-4.8z"/>
    <path fill="#FFF" d="M657.05 211.49c0-3.15-2.71-5.7-6.02-5.7-3.32 0-5.99 2.55-5.99 5.7 0 3.15 2.68 5.71 5.99 5.71 3.32 0 6.02-2.57 6.02-5.71z"/>
    <path d="M651.04 218.11c-3.84 0-6.97-2.97-6.97-6.62 0-3.64 3.12-6.62 6.97-6.62 3.84 0 6.97 2.97 6.97 6.62 0 3.64-3.12 6.62-6.97 6.62zm0-11.4c-2.78 0-5.06 2.16-5.06 4.8s2.29 4.8 5.06 4.8c2.79 0 5.06-2.16 5.06-4.8s-2.26-4.8-5.06-4.8z"/>
    <path fill="#FFF" d="M1088.49 287.22c1.32-.59 3.88 10.08 3.88 10.08s9.79-.78 10.61.81c.86 1.68-8.02 7.29-8.02 7.29s3.64 10.74 2.48 11.37c-1.71.95-8.95-6-8.95-6s-7.71 6.59-8.96 6c-.64-.32 2.82-11.05 2.82-11.05s-8.47-5.37-7.95-6.8c.49-1.32 10.2-1.13 10.2-1.13s2.12-9.78 3.9-10.55v-.01h-.01v-.01z"/>
    <path d="M1097.12 317.74c-2.07 0-5.68-2.9-8.68-5.71-7.57 6.41-8.88 5.79-9.36 5.55-.78-.36-1.32-.64 2.11-11.47-8.46-5.46-7.9-6.93-7.72-7.48.19-.51.67-1.89 10.35-1.76.86-3.88 2.47-9.68 4.26-10.46.35-.15.71-.15 1.08.01 1.39.65 2.9 5.59 3.96 9.91 4.59-.32 9.85-.3 10.71 1.37.79 1.54-1.81 4.26-7.75 8.06 3.61 10.82 2.47 11.43 1.85 11.79-.22.12-.5.19-.79.19h-.01v.01h-.01l-.01-.01zm-17.43-1.83zm8.77-6.03c.22 0 .49.09.67.26 3 2.87 6.28 5.35 7.54 5.74-.04-1.54-1.32-6.25-2.67-10.2-.14-.38.03-.81.38-1.05 3.84-2.41 7.19-5.13 7.6-6.13-.98-.5-5.18-.64-9.59-.3-.49.04-.91-.27-1.01-.71-.85-3.56-2.11-7.64-2.87-9.06-.9 1.39-2.21 5.71-3.04 9.54-.1.42-.49.74-.95.74h-.03c-3.58-.07-7.82.15-9.11.58.78 1.1 4.26 3.69 7.39 5.7.35.22.5.64.38 1.02-1.17 3.64-2.36 7.72-2.72 9.58 1.58-.86 4.72-3.25 7.3-5.47.19-.15.42-.22.65-.22l.03-.01h.01l.01-.01zm13.67-11.28zm-13.67-11.37z"/>
    <path fill="#FFF" d="M1451.31 84.89c1.32-.59 3.88 10.07 3.88 10.07s9.79-.78 10.61.82c.86 1.68-8.02 7.29-8.02 7.29s3.64 10.74 2.48 11.37c-1.71.95-8.95-6-8.95-6s-7.71 6.59-8.96 6c-.64-.32 2.79-11.05 2.79-11.05s-8.46-5.38-7.93-6.8c.46-1.32 10.2-1.13 10.2-1.13s2.12-9.78 3.9-10.55v-.02z"/>
    <path d="M1459.95 115.39c-2.07 0-5.68-2.9-8.68-5.71-7.57 6.41-8.88 5.79-9.36 5.55-.78-.36-1.35-.64 2.11-11.47-8.46-5.46-7.93-6.93-7.72-7.48.18-.51.65-1.87 10.35-1.76.86-3.88 2.47-9.68 4.26-10.46.35-.15.71-.15 1.08.01 1.39.65 2.9 5.59 3.96 9.91 4.59-.32 9.85-.3 10.71 1.37.79 1.54-1.81 4.26-7.75 8.06 3.61 10.82 2.47 11.43 1.85 11.79-.22.12-.5.19-.79.19h-.01v.01h-.01l-.01-.01zm-.07-1.79zm-17.35-.04zm8.77-6.03c.22 0 .49.07.67.26 3 2.87 6.28 5.35 7.54 5.74-.04-1.54-1.32-6.25-2.67-10.2-.14-.38.03-.81.37-1.05 3.86-2.41 7.21-5.13 7.61-6.13-.98-.5-5.2-.64-9.59-.3-.49.04-.91-.27-1.01-.71-.85-3.56-2.11-7.64-2.9-9.06-.9 1.39-2.21 5.71-3.04 9.54-.07.42-.49.75-.95.74-3.61-.07-7.82.15-9.14.58.79 1.1 4.26 3.69 7.41 5.7.35.22.5.64.38 1.02-1.17 3.64-2.36 7.72-2.72 9.58 1.58-.86 4.72-3.25 7.3-5.47.19-.15.42-.22.65-.22h.03l.02-.01.01-.01zm13.67-11.28z"/>
    <path fill="#FFF" d="M955.57 204.41c1.35-.62 3.88 10.07 3.88 10.07s9.8-.78 10.61.82c.86 1.68-8.02 7.28-8.02 7.28s3.64 10.74 2.48 11.38c-1.71.93-8.95-6-8.95-6s-7.71 6.59-8.95 6c-.65-.32 2.79-11.05 2.79-11.05s-8.47-5.38-7.95-6.8c.49-1.32 10.2-1.13 10.2-1.13s2.15-9.78 3.9-10.55l.01-.03v.02z"/>
    <path d="M964.24 234.92c-2.08 0-5.68-2.9-8.7-5.71-7.57 6.41-8.85 5.79-9.36 5.55-.78-.36-1.32-.64 2.12-11.47-8.46-5.46-7.93-6.93-7.74-7.48.19-.51.67-1.89 10.35-1.76.9-3.88 2.47-9.68 4.26-10.46.35-.15.74-.15 1.08.01 1.4.65 2.9 5.59 3.96 9.91 4.59-.34 9.86-.3 10.71 1.37.82 1.54-1.79 4.26-7.74 8.06 3.58 10.79 2.45 11.43 1.83 11.79-.22.11-.49.19-.78.19h.03v.01h-.02l-.01-.01zm-.1-1.79zm-17.35-.04zm8.77-6.05c.25 0 .49.09.67.27 3 2.87 6.29 5.34 7.57 5.74-.07-1.56-1.35-6.25-2.68-10.23-.14-.38.03-.81.38-1.02 3.84-2.41 7.19-5.15 7.6-6.13-.98-.51-5.18-.64-9.59-.3-.46.01-.91-.27-1.01-.71-.85-3.56-2.11-7.66-2.87-9.06-.9 1.39-2.21 5.71-3.04 9.54-.1.42-.49.71-.95.71h-.03c-3.58-.06-7.82.15-9.11.59.79 1.1 4.26 3.69 7.39 5.7.35.22.5.64.38 1.02-1.17 3.64-2.36 7.72-2.72 9.58 1.58-.86 4.72-3.26 7.32-5.47.18-.15.4-.23.64-.23l-.01.01h.02l.01-.01zm13.67-11.28zm-13.67-11.35z"/>
    <path fill="#FFF" d="M95.99 294.66c1.35-.59 3.9 10.08 3.9 10.08s9.79-.78 10.6.81c.86 1.68-8.01 7.29-8.01 7.29s3.61 10.74 2.47 11.37c-1.71.95-8.95-6-8.95-6s-7.71 6.59-8.95 6c-.65-.32 2.79-11.04 2.79-11.04s-8.46-5.38-7.95-6.82c.49-1.32 10.22-1.13 10.22-1.13s2.12-9.78 3.88-10.55H96h-.01v-.01z"/>
    <path d="M104.65 325.17c-2.07 0-5.68-2.9-8.7-5.7-7.57 6.39-8.85 5.77-9.33 5.54-.79-.36-1.35-.64 2.11-11.47-8.46-5.46-7.93-6.9-7.72-7.48.18-.51.65-1.87 10.35-1.76.86-3.88 2.45-9.68 4.26-10.46.34-.15.71-.15 1.06.01 1.4.65 2.9 5.59 3.97 9.91 4.57-.32 9.85-.3 10.71 1.37.79 1.54-1.81 4.26-7.75 8.06 3.58 10.82 2.45 11.43 1.83 11.79-.22.12-.49.19-.78.19l-.01.01-.01-.01zm-17.43-1.83zm8.76-6.03c.25 0 .5.09.67.26 3 2.87 6.29 5.35 7.57 5.74-.04-1.54-1.32-6.25-2.68-10.2-.11-.38.04-.81.38-1.02 3.84-2.44 7.19-5.15 7.61-6.16-.99-.5-5.2-.64-9.59-.3-.49.04-.91-.26-1.03-.69-.85-3.58-2.08-7.66-2.87-9.06-.9 1.39-2.21 5.71-3.04 9.51-.1.43-.49.75-.95.74-3.61-.07-7.83.15-9.14.58.79 1.1 4.26 3.69 7.41 5.7.35.23.5.64.37 1.02-1.15 3.64-2.33 7.72-2.72 9.58 1.58-.86 4.74-3.25 7.32-5.47.18-.15.4-.22.64-.22l.01.01v-.01l.01-.01zm13.67-11.28zm-13.67-11.37h.03-.03z"/>
    <path fill="#FFF" d="M1352.61 87.22c1.32-.59 3.88 10.07 3.88 10.07s9.79-.78 10.61.82c.86 1.68-8.02 7.29-8.02 7.29s3.64 10.74 2.48 11.37c-1.71.95-8.95-6-8.95-6s-7.71 6.59-8.95 6c-.65-.32 2.79-11.05 2.79-11.05s-8.47-5.38-7.95-6.8c.49-1.32 10.2-1.13 10.2-1.13s2.12-9.78 3.9-10.55l.01-.01v-.01z"/>
    <path d="M1361.25 117.73c-2.07 0-5.68-2.9-8.68-5.71-7.57 6.41-8.85 5.79-9.36 5.55-.78-.36-1.32-.64 2.12-11.47-8.47-5.46-7.93-6.93-7.74-7.48.19-.51.67-1.89 10.35-1.76.86-3.88 2.47-9.68 4.26-10.46.35-.15.74-.15 1.08.01 1.39.65 2.9 5.59 3.96 9.91 4.59-.32 9.86-.3 10.71 1.37.82 1.54-1.81 4.26-7.74 8.06 3.58 10.82 2.45 11.43 1.83 11.79-.22.12-.49.19-.79.19h.01l.01.01h-.02l-.01-.01zm-.07-1.79zm-17.35-.04zm8.77-6.03c.22 0 .49.07.67.26 3 2.87 6.28 5.35 7.54 5.74-.04-1.54-1.32-6.25-2.67-10.2-.14-.38.03-.81.38-1.05 3.84-2.41 7.19-5.13 7.6-6.13-.98-.5-5.18-.64-9.59-.3-.46.04-.91-.27-1.01-.71-.85-3.56-2.11-7.64-2.87-9.06-.9 1.39-2.21 5.71-3.04 9.54-.1.42-.5.75-.98.74-3.58-.07-7.82.15-9.11.58.79 1.1 4.26 3.69 7.39 5.7.35.22.5.64.38 1.02-1.17 3.64-2.36 7.72-2.72 9.58 1.58-.86 4.72-3.25 7.32-5.47.18-.15.4-.22.64-.22l.02-.01h.01l.01-.01zm13.67-11.28zm-13.67-11.37z"/>
    <path fill="#FFF" d="M1401.34 70.88c1.32-.59 3.88 10.07 3.88 10.07s9.79-.78 10.61.82c.86 1.68-8.02 7.29-8.02 7.29s3.64 10.74 2.48 11.37c-1.71.95-8.95-6-8.95-6s-7.71 6.59-8.96 6c-.64-.32 2.79-11.05 2.79-11.05s-8.46-5.38-7.93-6.8c.46-1.32 10.2-1.13 10.2-1.13s2.12-9.78 3.9-10.55v-.02z"/>
    <path d="M1409.98 101.38c-2.07 0-5.68-2.9-8.68-5.71-7.57 6.41-8.85 5.79-9.36 5.55-.78-.36-1.32-.64 2.11-11.47-8.46-5.46-7.9-6.93-7.72-7.48.19-.51.68-1.87 10.35-1.76.86-3.88 2.47-9.68 4.26-10.46.35-.15.71-.15 1.08.01 1.39.65 2.9 5.59 3.96 9.91 4.59-.32 9.85-.3 10.71 1.37.82 1.54-1.81 4.26-7.75 8.06 3.61 10.82 2.47 11.43 1.85 11.79-.22.12-.5.19-.79.19h-.01v.01h-.01l-.01-.01zm-.07-1.79zm-17.35-.04zm8.77-6.03c.22 0 .49.07.67.26 3 2.87 6.28 5.35 7.54 5.74-.04-1.54-1.32-6.25-2.67-10.2-.14-.38.03-.81.38-1.05 3.84-2.41 7.19-5.13 7.6-6.13-.98-.5-5.18-.64-9.59-.3-.49.04-.91-.27-1.01-.71-.85-3.56-2.11-7.64-2.9-9.06-.86 1.39-2.21 5.71-3.04 9.54-.07.42-.46.75-.95.74-3.61-.07-7.83.15-9.14.58.79 1.1 4.26 3.69 7.41 5.7.35.22.5.64.38 1.02-1.17 3.64-2.36 7.72-2.72 9.58 1.58-.86 4.72-3.25 7.3-5.47.19-.15.42-.22.65-.22h.01l.03-.01h.01l.01-.01zM1415 82.24z"/>
    <path fill="#FFF" d="M477.39 43.14c1.35-.59 3.9 10.08 3.9 10.08s9.79-.78 10.6.81c.86 1.68-8.02 7.29-8.02 7.29s3.64 10.74 2.48 11.37c-1.71.95-8.95-5.97-8.95-5.97s-7.71 6.58-8.95 5.97c-.65-.3 2.79-11.04 2.79-11.04s-8.46-5.38-7.95-6.8c.49-1.32 10.22-1.13 10.22-1.13s2.12-9.78 3.88-10.58h.01l-.01.01v-.01z"/>
    <path d="M486.05 73.64c-2.07 0-5.68-2.9-8.7-5.7-7.57 6.39-8.85 5.79-9.33 5.55-.79-.38-1.35-.65 2.11-11.49-8.46-5.46-7.93-6.9-7.74-7.48.19-.51.68-1.87 10.36-1.76.86-3.88 2.45-9.68 4.25-10.46.35-.15.74-.12 1.08.01 1.4.65 2.9 5.59 3.96 9.91 4.59-.32 9.86-.3 10.72 1.37.79 1.54-1.81 4.26-7.75 8.06 3.58 10.82 2.45 11.43 1.83 11.79-.22.12-.49.19-.78.19h.01v.02h-.02l-.01-.01zm-.07-1.78zm-17.35-.06zm8.76-6.03c.25 0 .5.09.67.27 3 2.84 6.29 5.34 7.57 5.74-.04-1.56-1.32-6.27-2.68-10.23-.11-.38.04-.81.38-1.02 3.84-2.41 7.21-5.15 7.61-6.16-.99-.5-5.2-.64-9.59-.3-.49.04-.91-.26-1.03-.69-.85-3.56-2.08-7.66-2.87-9.06-.9 1.39-2.21 5.71-3.04 9.54-.1.42-.5.74-.95.71-3.61-.07-7.83.15-9.14.58.79 1.1 4.26 3.72 7.41 5.7.35.23.5.64.37 1.02-1.15 3.64-2.33 7.72-2.71 9.58 1.58-.86 4.72-3.25 7.3-5.46.19-.16.4-.23.64-.23l.01.03.01-.01.01-.01zm13.67-11.28z"/>
    <path fill="#FFF" d="M66.31 165.35c1.35-.59 3.9 10.08 3.9 10.08s9.79-.78 10.6.81c.86 1.68-8.02 7.29-8.02 7.29s3.64 10.74 2.48 11.38c-1.71.93-8.95-6-8.95-6s-7.71 6.59-8.95 6c-.65-.32 2.79-11.05 2.79-11.05s-8.46-5.38-7.95-6.8c.49-1.32 10.2-1.13 10.2-1.13s2.15-9.78 3.9-10.58l.01-.01-.01.01z"/>
    <path d="M74.96 195.86c-2.08 0-5.68-2.88-8.7-5.7-7.57 6.39-8.85 5.79-9.33 5.55-.79-.38-1.35-.64 2.11-11.49-8.46-5.46-7.93-6.9-7.74-7.48.19-.51.67-1.89 10.35-1.76.9-3.88 2.47-9.68 4.26-10.46.35-.15.74-.15 1.08.01 1.4.65 2.9 5.59 3.96 9.91 4.59-.32 9.86-.3 10.72 1.37.79 1.56-1.81 4.27-7.75 8.06 3.58 10.82 2.45 11.43 1.83 11.79-.22.12-.49.19-.78.19h.01v.02h-.02l-.01-.01zm-.1-1.78zm-17.33-.06zm8.76-6.03c.25 0 .5.09.67.27 3 2.84 6.29 5.34 7.57 5.74-.04-1.56-1.32-6.27-2.68-10.23-.11-.38.04-.81.38-1.02 3.84-2.41 7.19-5.15 7.61-6.16-.99-.5-5.2-.63-9.59-.3-.49.04-.91-.26-1.03-.69-.85-3.56-2.08-7.66-2.87-9.06-.9 1.39-2.21 5.71-3.04 9.54-.1.42-.49.71-.95.71-3.61-.07-7.83.15-9.14.59.79 1.1 4.26 3.69 7.41 5.7.35.22.5.63.37 1.01-1.15 3.64-2.33 7.72-2.71 9.58 1.58-.86 4.72-3.25 7.3-5.46.18-.16.4-.23.64-.23l.01.03.01-.01.01-.01zm13.67-11.28z"/>
    <path fill="#FFF" d="M933.06 89.52c-1.54-.93-3.08-1.86-4.64-2.75 11.22-19.42 32.6-25.31 45.83-26.2 12.56.38 21.21.38 36.13 8.61 3.76 2.06 9.64 7.22 14.61 15.01-1.79 1.1-3.61 2.2-5.39 3.33-4.39 2.68-8.77 5.38-13.13 8.11-6.07-10.62-18.07-16-32.25-16-14.25 0-23.47 8.88-28.47 18.4-4.11-2.97-8.32-5.83-12.66-8.48h-.03v-.03z"/>
    <path d="M945.71 98.93c-.22 0-.4-.07-.57-.19-4.56-3.29-8.66-6.05-12.6-8.44-1.4-.86-2.93-1.76-4.6-2.73-.44-.26-.6-.78-.35-1.2 13.1-22.72 38.96-26.16 46.58-26.7h.1l1.21.04c12.04.36 20.72.63 35.37 8.71 3.88 2.12 9.83 7.28 14.94 15.32.27.42.14.97-.32 1.24-1.79 1.1-3.61 2.2-5.39 3.3l-2.48 1.54c-3.54 2.18-7.12 4.37-10.64 6.56-.22.15-.5.19-.75.12-.27-.07-.49-.22-.61-.46-5.64-9.85-17.07-15.51-31.42-15.51-15.84 0-24.09 11.21-27.61 17.91-.14.26-.37.42-.64.48-.07.01-.15.04-.22.04h-.01l-.01.01h.01l.01-.01zm-16-12.45c1.39.81 2.67 1.59 3.88 2.32 3.71 2.28 7.57 4.85 11.81 7.86 3.97-7.13 12.67-17.94 28.81-17.94 14.63 0 26.42 5.69 32.58 15.62 3.26-2.02 6.52-4.03 9.8-6.03l2.48-1.54c1.55-.95 3.08-1.89 4.63-2.83-4.85-7.36-10.4-12.1-13.78-13.96-14.23-7.85-22.72-8.11-34.47-8.44l-1.15-.04c-7.35.51-31.81 3.81-44.56 24.99h-.03v.01l-.01-.01z"/>
    <path fill="#ACD4F7" d="M985.34 161.49c-.82-4.53-1.73-9.06-2.75-13.54 3.58-.35 7.25-.95 10.6-2.24 3.08-1.2 5.84-3.22 8.17-5.51 4.92-4.8 8.25-11.16 9.24-17.88.56-3.85.19-7.66.03-11.53-.11-2.29-.42-4.43-.9-6.47 7.32-1.66 14.54-3.88 21.92-5.44 3.05 10.39 3.61 23.14-1.28 37.91-6.86 20.62-27.04 28.24-43.49 30.73-.46-2.02-.98-4.03-1.51-6.03l-.03-.01-.01.01h.01z"/>
    <path d="M986.85 168.41c-.44 0-.82-.27-.94-.71-.44-1.9-.94-3.88-1.51-5.97-.03-.04-.03-.06-.03-.07-.79-4.34-1.69-8.76-2.72-13.52-.07-.26 0-.51.15-.71.15-.22.4-.35.67-.36 4.28-.42 7.57-1.12 10.32-2.18 2.67-1.05 5.35-2.88 7.86-5.31 4.85-4.74 8.02-10.92 8.96-17.39.44-3.17.29-6.27.1-9.57-.04-.62-.07-1.2-.1-1.79-.1-2.12-.38-4.27-.85-6.32-.11-.48.19-.95.71-1.06 3.32-.75 6.67-1.65 9.93-2.48 3.9-1.02 7.95-2.09 11.98-2.95.49-.11.99.19 1.12.64 3.58 12.14 3.14 25.09-1.28 38.42-7.14 21.46-28 28.89-44.24 31.36h-.15v-.03.01l.01.01zm-.57-7.11c.5 1.82.94 3.52 1.31 5.17 15.59-2.48 35.14-9.77 41.84-29.96 4.22-12.7 4.74-24.99 1.54-36.56-3.68.82-7.41 1.79-11 2.73-2.97.78-6.03 1.6-9.11 2.32.38 1.89.61 3.81.71 5.74.03.59.07 1.17.1 1.78.18 3.22.37 6.58-.14 9.91-.99 6.86-4.36 13.38-9.47 18.4-2.71 2.63-5.56 4.57-8.5 5.71-2.68 1.05-5.82 1.74-9.8 2.18.99 4.39 1.79 8.53 2.52 12.57l-.03.01h.01l.01.01z"/>
    <path fill="#FFF" d="M922.32 103.23c6.65 1.08 13.32 2.2 19.89 3.72-.57 2.16-.95 4.21-1.08 6.05-.11 1.5.03 4.02.38 6.01.67 3.61 1.85 7.22 3.3 10.62 2.6 6.1 6.65 12.09 12.89 15.08 3.58 1.7 7.39 2.59 11.31 3.06.52.07 1.06.12 1.61.19-.25 2.33-.5 4.68-.78 7.01-.52 4.5-1.06 9.02-1.58 13.52-.42-.01-.82-.06-1.19-.07-31.42-2.57-46.1-34.28-46.1-50.92 0-5.18.49-9.91 1.32-14.23v-.02h.02v-.01z"/>
    <path d="M968.28 169.4h-.07c-.42-.04-.82-.06-1.21-.09-17.94-1.47-29.22-12.01-35.53-20.56-6.94-9.45-11.43-21.71-11.43-31.25 0-5.05.46-9.89 1.35-14.4.11-.5.6-.81 1.1-.74 6.47 1.05 13.32 2.2 19.95 3.72.25.07.46.22.6.42.14.2.18.46.11.69-.56 2.06-.91 4.07-1.06 5.89-.11 1.52.07 3.95.38 5.77.6 3.33 1.71 6.82 3.24 10.42 3.08 7.2 7.25 12.11 12.44 14.61 3.14 1.52 6.63 2.45 11 2.99.52.06 1.06.11 1.58.16.27.01.5.15.65.34.15.19.22.42.22.67l-.11 1c-.22 2-.44 4.02-.67 6.03-.52 4.5-1.04 9.02-1.58 13.52-.07.46-.46.81-.95.81l-.01-.03v.02zm-45.18-65.11c-.78 4.14-1.15 8.57-1.15 13.19 0 6.98 2.93 19.08 11.11 30.21 6.06 8.27 16.92 18.4 34.12 19.8.07.01.15.01.25.04.5-4.23 1.01-8.44 1.46-12.67.22-2 .46-4.02.68-6.01v-.09c-.22-.04-.46-.06-.68-.07-4.57-.55-8.25-1.56-11.62-3.17-5.62-2.68-10.11-7.91-13.35-15.55-1.61-3.72-2.72-7.36-3.36-10.78-.35-1.96-.52-4.59-.38-6.23.11-1.68.4-3.46.86-5.34-5.97-1.34-12.11-2.37-17.96-3.33v.01-.01h.01l.03.01z"/>
    <path d="M961.28 164.44c-.07 0-.18-.04-.22-.09-.11-.12-.11-.32.03-.43l3.99-3.72c.14-.11.34-.11.46.01.11.11.11.32-.03.42l-3.99 3.72c-.07.06-.15.09-.22.09h-.03zm-5.33-1.03c-.1 0-.18-.04-.22-.09-.11-.12-.1-.34.04-.43 3.61-2.9 7.15-5.97 10.57-9.12.11-.11.34-.11.44 0 .14.12.11.32 0 .42-3.39 3.15-6.97 6.23-10.6 9.14-.07.06-.14.07-.22.07v-.01h-.01l-.01.01zm-4.81-1.92c-.1 0-.18-.01-.25-.09-.11-.12-.1-.32.03-.42l13.28-11.35c.14-.11.34-.11.44.01.11.12.11.32-.03.43l-13.28 11.33c-.07.06-.14.07-.19.07v.02h-.01zm-5.25-3.21c-.07 0-.18-.06-.25-.12-.1-.12-.07-.32.07-.42 4.18-3.07 8.28-6.38 12.18-9.77.11-.12.34-.11.44 0 .11.12.11.34-.03.43-3.9 3.41-8.01 6.71-12.19 9.81-.07.04-.14.07-.22.07v.01l-.01-.01zm-4.24-3.77c-.11 0-.22-.04-.27-.12-.1-.15-.07-.34.07-.42 4.28-2.75 8.47-5.71 12.42-8.84.14-.11.35-.09.46.04.1.12.07.34-.07.42-3.97 3.13-8.17 6.13-12.46 8.87-.07.04-.11.06-.18.06h.03l-.01-.01zm-3.88-3.71c-.1 0-.19-.06-.25-.12-.11-.15-.07-.34.07-.42 3.99-2.66 7.97-5.43 11.82-8.27.14-.09.35-.07.44.06.11.15.1.34-.07.43-3.86 2.83-7.86 5.61-11.85 8.27-.07.04-.11.06-.19.06l.01.01h.02l-.01-.01zm-3.23-4.24c-.1 0-.19-.06-.27-.15-.07-.15-.04-.34.11-.42 4.03-2.41 8.1-4.91 12.1-7.42.14-.09.35-.06.44.09.1.12.07.34-.1.42-3.99 2.51-8.08 5.01-12.11 7.42-.07.04-.11.06-.18.06l.01.01-.01-.01zm-2.72-4.72c-.1 0-.22-.06-.27-.15-.1-.15-.04-.34.11-.39l11.47-6.44c.15-.09.35-.04.44.11.1.15.04.34-.11.39l-11.47 6.44c-.07.01-.11.04-.18.04h.01v.01l-.01-.01zm-2.08-4.3c-.11 0-.22-.06-.29-.16-.07-.15-.03-.34.14-.39l11.75-6.21c.15-.07.35-.01.42.12.1.15.04.34-.11.39l-11.75 6.21c-.07.01-.1.04-.15.04h-.02zm-2.2-4.78c-.11 0-.22-.06-.27-.15-.1-.15-.04-.34.11-.42l11.82-6.16c.15-.07.35-.01.42.12.1.15.04.34-.11.39l-11.82 6.16c-.04.04-.1.04-.15.04v.02h-.01zm-1.74-4.62c-.11 0-.22-.06-.29-.16-.07-.12-.04-.34.11-.39 4.18-2.32 8.47-4.6 12.74-6.75.15-.07.35-.01.42.12.1.15.04.34-.11.39-4.26 2.16-8.55 4.43-12.71 6.74-.07.04-.11.06-.15.06h-.01v-.01h-.01zm-1.05-5.53c-.11 0-.22-.06-.29-.16-.07-.16-.03-.34.15-.39l13.29-6.1c.18-.07.35-.01.42.15.07.15.03.34-.14.39l-13.32 6.09c-.04.01-.1.04-.14.04l.01-.01.02-.01h-.01zm-.11-5.18c-.11 0-.22-.06-.29-.16-.07-.15 0-.34.15-.39 4.51-2.02 9.04-4.11 13.52-6.21.15-.07.35-.01.42.12.07.16.03.35-.15.42-4.45 2.11-9 4.19-13.52 6.21-.04.01-.07.01-.14.01h.01-.01zm.03-5.07c-.11 0-.22-.07-.29-.19-.07-.15 0-.34.15-.39 2.93-1.24 5.79-2.63 8.55-4.16.15-.09.35-.04.44.11.07.15.04.34-.11.42-2.78 1.52-5.68 2.93-8.61 4.18-.07.01-.1.04-.14.04l.01-.01.01.01-.01-.01zm.28-4.4c-.14 0-.25-.07-.32-.19-.07-.15.03-.34.18-.39l2.4-1.01c.18-.06.35 0 .42.16.07.15 0 .34-.15.39l-2.41 1.01c-.04 0-.07.01-.11.01v.01l-.01.01z"/>
    <path fill="#FFF" d="M701.95 59.5c-9.67-.07-19.52-.26-28.88-.26.35 9.03-.22 26.36-.22 26.36l28.78.5s.03-17.91.32-26.59h.01-.01z"/>
    <path d="M701.62 87h-.03l-28.78-.5c-.25 0-.5-.11-.67-.27-.18-.19-.27-.42-.27-.65.03-.19.56-17.39.22-26.29 0-.23.1-.48.27-.65.18-.19.42-.27.68-.27 6.06 0 12.42.07 18.58.15 3.43.04 6.89.07 10.32.11.25 0 .5.09.67.27.18.19.27.39.27.65-.29 8.56-.34 26.39-.34 26.56 0 .23-.1.48-.29.64-.18.16-.4.26-.65.26V87l.01-.01h.01zm-27.8-2.29 26.84.46c.03-3.63.07-17.1.29-24.77-3.1-.01-6.22-.06-9.33-.09-5.82-.07-11.82-.15-17.57-.15.25 7.9-.11 20.98-.22 24.56h-.01.01z"/>
    <path d="M686.73 80.48h-.03c-.35-.01-.67-.22-.82-.51-1.28-2.55-2.87-4.96-4.71-7.17-.32-.39-.22-.97.18-1.28.42-.3 1.03-.22 1.35.16 1.54 1.87 2.87 3.85 4.05 5.93l5.28-9.43c.25-.43.82-.62 1.28-.36.46.23.64.78.38 1.23l-6.13 10.96c-.18.3-.5.5-.85.5l.01-.03.01.01-.01.01z"/>
    <path fill="#FFF" d="M701.95 116.44c-9.67-.07-19.52-.23-28.88-.23.35 9.02-.22 26.36-.22 26.36l28.78.5s.03-17.94.32-26.61v-.01h.01-.01z"/>
    <path d="M701.62 143.93h-.03l-28.78-.5c-.25 0-.5-.11-.67-.27-.18-.19-.27-.42-.27-.65.03-.16.56-17.39.22-26.28 0-.26.1-.5.27-.67.18-.16.42-.27.68-.27 6.06 0 12.42.07 18.6.15 3.43.04 6.86.07 10.3.11.25 0 .5.11.67.27.18.19.27.42.27.65-.29 8.56-.34 26.39-.34 26.56 0 .23-.1.48-.29.64-.18.16-.4.26-.65.26v-.01h.02zm-27.8-2.29 26.84.46c.03-3.63.07-17.1.29-24.77-3.08-.01-6.22-.06-9.32-.09-5.82-.07-11.85-.12-17.6-.15.25 7.91-.11 21.01-.22 24.56h.02z"/>
    <path d="M686.73 137.42h-.03c-.35-.01-.67-.2-.82-.51-1.28-2.55-2.87-4.96-4.71-7.17-.32-.38-.22-.95.18-1.27.42-.32 1.03-.23 1.35.15 1.54 1.87 2.87 3.85 4.05 5.93l5.28-9.43c.25-.43.82-.62 1.28-.36.46.23.64.78.38 1.23l-6.13 10.97c-.18.3-.5.48-.85.48l.01-.01.01-.01-.01.01z"/>
    <path fill="#FFF" d="M703.84 171.69c-9.67-.09-19.52-.26-28.89-.26.37 9.03-.19 26.36-.19 26.36l28.78.5s.03-17.91.32-26.59h-.02z"/>
    <path d="M703.52 199.2h-.03l-28.78-.51c-.25 0-.5-.09-.67-.27-.18-.19-.27-.39-.27-.65 0-.16.56-17.39.22-26.28-.03-.23.07-.5.27-.65.18-.19.42-.27.67-.27 6.07 0 12.44.07 18.62.12 3.43.06 6.86.09 10.28.11.27 0 .5.11.68.27s.27.42.25.65c-.27 8.56-.32 26.39-.32 26.56 0 .23-.1.48-.29.64-.18.16-.4.27-.65.27h.01v.01h.01zm-27.8-2.32 26.84.48c.03-3.64.07-17.12.29-24.77-3.1-.04-6.22-.07-9.32-.11-5.82-.06-11.85-.12-17.6-.12.22 7.9-.11 20.98-.22 24.54l.01-.01h.01z"/>
    <path d="M688.61 192.65h-.03c-.37 0-.68-.2-.85-.51-1.28-2.53-2.87-4.95-4.68-7.16-.34-.39-.25-.97.18-1.28.4-.32 1.03-.23 1.32.16 1.54 1.86 2.9 3.85 4.07 5.92l5.28-9.41c.22-.43.82-.62 1.28-.38.46.23.64.78.38 1.23l-6.13 10.97c-.18.3-.5.48-.85.48h.01l.02-.01h-.01zm72.97-112.74c-.71 0-1.45-.12-2.22-.46-1.39-.63-2.33-1.68-3.23-2.68-.49-.53-.94-1.05-1.42-1.47-2.83-2.4-5.62-1.02-9.52 1.32-.95.58-1.88 1.13-2.83 1.6-2.87 1.37-5.32 1.68-7.27.89-1.51-.59-2.36-1.78-3.08-2.8-.57-.81-1.13-1.56-1.9-2.02-3.18-1.82-7.03-.46-11.75 4.16-.37.35-.99.36-1.35 0-.38-.35-.38-.92-.03-1.28 5.35-5.22 10.11-6.72 14.1-4.43 1.13.65 1.85 1.66 2.48 2.55.68.95 1.27 1.78 2.26 2.16 1.42.58 3.34.27 5.69-.86.85-.39 1.72-.93 2.67-1.48 3.43-2.06 7.72-4.63 11.82-1.16.6.51 1.1 1.08 1.61 1.65.82.89 1.58 1.76 2.58 2.21 1.4.63 2.9.3 4.82-1.05.38-.27.79-.55 1.17-.85 3.43-2.45 6.68-4.78 11.75-3.19 1.58.5 2.83 1.6 3.96 2.59 2.03 1.79 3.23 2.67 5.18 1.4.57-.38 1.15-.82 1.75-1.28 2.21-1.72 4.93-3.85 8.46-1.56.85.55 1.58 1.2 2.3 1.82 2.25 1.92 3.64 2.95 6.14 1.92 1.24-.5 2.4-1.36 3.61-2.28 2.18-1.6 4.36-3.26 7.32-3.17 2.37.06 4.18 1.28 5.92 2.45 2.11 1.4 3.94 2.63 6.5 1.65.49-.19 1.04.04 1.24.51.19.46-.04 1-.52 1.17-3.54 1.36-6.07-.35-8.32-1.87-1.58-1.06-3.08-2.06-4.88-2.11-2.29-.07-4.13 1.32-6.07 2.79-1.27.93-2.58 1.9-4.05 2.51-3.78 1.54-6.1-.48-8.17-2.25-.67-.58-1.36-1.17-2.11-1.65-2.22-1.44-3.79-.39-6.14 1.44-.61.48-1.25.97-1.9 1.39-3.32 2.12-5.68.06-7.57-1.6-1.01-.89-2.07-1.82-3.24-2.2-4.11-1.28-6.7.59-10 2.93-.38.3-.79.58-1.19.86-.67.48-2.43 1.68-4.53 1.68l-.01-.01h-.03v.03zm-35.11 53.62c-2.18 0-4.13-1.1-5.61-2.12-.42-.3-.52-.86-.22-1.27.32-.39.91-.5 1.32-.2 3.1 2.16 5.38 2.33 7.61.55.42-.34.85-.69 1.25-1.06 2.15-1.87 4.57-4 8.24-1.96.75.42 1.46 1.02 2.21 1.66 1.32 1.13 2.72 2.33 4.13 2.09.86-.16 1.54-.89 2.21-1.68.42-.46.85-.95 1.36-1.36 1.5-1.17 3.42-1.92 5.42-2.14 4.17-.46 6.83 1.54 9.64 3.64l.65.48c2.93 2.18 5.1 2.09 7.45-.35 3.23-3.33 6.18-4.95 10.92-2.71 1.06.5 2.08 1.13 3.08 1.76 2.36 1.48 4.57 2.88 7.15 2.59 1.58-.19 2.5-1.27 3.54-2.53 1.17-1.37 2.48-2.95 4.93-3.3 4.56-.67 8.17 2.16 11.42 5.31.37.36.35.93-.03 1.28s-.99.35-1.35-.01c-2.9-2.8-6.06-5.31-9.76-4.78-1.72.23-2.63 1.36-3.72 2.63-1.15 1.37-2.47 2.93-4.82 3.19-3.28.36-6.02-1.34-8.46-2.87-.99-.63-1.92-1.2-2.87-1.65-3.75-1.76-5.84-.62-8.66 2.32-3.04 3.13-6.33 3.33-10.03.58l-.65-.5c-2.6-1.96-4.86-3.64-8.25-3.29-1.65.19-3.23.81-4.43 1.76-.38.3-.74.69-1.12 1.12-.82.95-1.77 2.03-3.32 2.29-2.33.39-4.14-1.13-5.76-2.51-.67-.58-1.31-1.12-1.88-1.44-2.33-1.28-3.72-.23-5.97 1.74-.42.36-.86.75-1.31 1.12-1.54 1.2-3.01 1.63-4.39 1.63h.01l.02.01h.04l.01-.01zm38.89 53.9c-.57 0-1.17-.09-1.77-.3-1.61-.58-2.71-1.79-3.68-2.87-.42-.48-.82-.93-1.25-1.31-2.87-2.61-5.73-1.23-9.75 1.16-.82.5-1.66 1-2.47 1.4-3.01 1.52-5.57 1.87-7.6 1.06-1.51-.59-2.33-1.76-3.08-2.79-.52-.75-1.03-1.44-1.72-1.9-3.12-2.02-7.15-.67-11.96 4.02-.37.36-.99.36-1.36.01-.37-.35-.38-.92 0-1.28 5.56-5.4 10.4-6.84 14.39-4.26 1.01.65 1.65 1.54 2.25 2.4.67.93 1.24 1.74 2.22 2.12 1.5.59 3.5.26 5.95-1.01.78-.38 1.55-.85 2.37-1.34 3.51-2.09 7.88-4.69 12.07-.93.49.43.95.95 1.39 1.43.9 1.01 1.72 1.94 2.86 2.35 1.73.62 3.38-.34 4.88-1.43l.14-.09c3.75-2.75 7.6-5.58 13.08-3.46 1.5.58 2.62 1.59 3.64 2.48 2.07 1.83 3.05 2.59 5.22 1.05.42-.3.85-.63 1.27-.93 2.52-1.9 5.39-4.08 9.15-1.2.5.38.99.78 1.45 1.17 2.33 1.94 4.03 3.36 7.03 1.87.99-.5 1.96-1.23 3-1.98 2.4-1.76 5.08-3.74 8.47-3.1 2.03.39 3.68 1.47 5.12 2.4 2.33 1.5 4.14 2.71 7.18 1.17.46-.23 1.06-.07 1.28.36.25.43.07 1-.38 1.23-4.05 2.05-6.78.3-9.18-1.28-1.35-.88-2.76-1.78-4.4-2.09-2.54-.5-4.67 1.08-6.93 2.73-1.06.78-2.15 1.59-3.28 2.14-4.14 2.06-6.68-.06-9.18-2.11-.44-.36-.91-.75-1.39-1.12-2.43-1.87-4.07-.81-6.78 1.23-.42.34-.86.65-1.31.97-3.54 2.48-5.84.46-7.68-1.17-.94-.82-1.88-1.68-3.04-2.12-4.47-1.72-7.57.58-11.21 3.21l-.14.09c-1.32 1-3.01 2-4.92 2l.03.01h-.01.04v.03z"/>
    <path fill="#ACD4F7" d="M1046.75 346.85c-1.5-27.34.6-64.24-.5-92.41-47.66.69-95.61 1.59-141.94.23 0 28.02 1.4 69.52 0 92.17 49.38-.11 94.64-1.98 142.44 0l-.01.01h.01z"/>
    <use xlink:href="#a"/>
    <path fill="#FFF" d="M963.97 301.27c-1.58-7.64-3.51-14.27-5.64-21.82-10.6 2.61-21.09 5.01-31.6 7.4 2.11 7.13 4.13 14.18 6.37 21.31 10.18-2.05 20.5-5.05 30.86-6.9h.01l.01.01h-.01z"/>
    <use xlink:href="#b"/>
    <use xlink:href="#c"/>
    <path fill="#FFF" d="M1046.75 346.85c-1.5-27.34.6-64.24-.5-92.41-47.66.69-95.61 1.59-141.94.23 0 28.02 1.4 69.52 0 92.17 49.38-.11 94.64-1.98 142.44 0l-.01.01h.01z"/>
    <use xlink:href="#a"/>
    <path fill="#ACD4F7" d="M963.97 301.27c-1.58-7.64-3.51-14.27-5.64-21.82-10.6 2.61-21.09 5.01-31.6 7.4 2.11 7.13 4.13 14.18 6.37 21.31 10.18-2.05 20.5-5.05 30.86-6.9h.01l.01.01h-.01z"/>
    <use xlink:href="#b"/>
    <use xlink:href="#c"/>
    <path fill="#FFF" d="M1214.72 181.19c2.41-12.41 11.15-23.22 22.18-30.29 11.02-7.07 24.15-10.69 37.32-12.37 13.04-1.66 26.49-1.5 39.09 2.18 12.57 3.67 24.21 11.08 31.15 21.67 12.79 19.54 18.31 66.83 9.32 86.95-9.22 20.61-44.52 14.88-80.74 1.2-6.18-2.35-19.95-10.94-26.6-11.24-3.26-.15 2.37 3.79-.85 4.37-13.77 2.51-27.97.35-41.81-1.82-2.71-.42-5.43-.86-7.99-1.87-3.57-1.44-6.53-3.98-9.07-6.78-6.65-7.42-10.5-17.46-8.74-27.07 2.71-14.89 33.31-6.09 36.73-24.96v.01h.02l-.02.02z"/>
    <path d="M1326.32 263.76c-.94 0-1.85-.01-2.82-.06-13.48-.53-30.57-4.69-50.81-12.36-2.15-.81-5.17-2.37-8.39-4-6.06-3.07-13.57-6.9-17.8-7.16.1.19.22.36.29.51.5.88 1.08 1.89.61 2.83-.27.53-.82.88-1.65 1.02-14.1 2.57-29 .23-42.14-1.82-2.72-.42-5.53-.86-8.2-1.92-3.28-1.32-6.37-3.61-9.41-7.01-7.28-8.12-10.64-18.53-8.95-27.82 1.36-7.59 9.47-9.49 17.32-11.35 8.72-2.06 17.71-4.19 19.42-13.6 2.3-11.91 10.54-23.16 22.56-30.89 9.96-6.38 22.65-10.59 37.73-12.52 14.74-1.89 28.03-1.13 39.5 2.21 13.73 4.02 24.99 11.86 31.68 22.06 13.22 20.19 18.31 67.79 9.37 87.77-4.17 9.35-13.67 14.08-28.32 14.08l.01.04v-.01h-.01.01zm-80.05-25.36h.22c4.6.2 12.1 4.02 18.7 7.39 3.18 1.63 6.18 3.13 8.21 3.9 25.28 9.58 69.27 22.22 79.49-.71 8.76-19.59 3.75-66.29-9.24-86.1-6.47-9.85-17.35-17.4-30.63-21.31-11.21-3.26-24.21-4-38.68-2.14-14.78 1.89-27.21 6.01-36.95 12.25-11.62 7.43-19.56 18.29-21.75 29.7-1.92 10.55-11.98 12.94-20.83 15.03-7.9 1.87-14.74 3.48-15.89 9.91-1.61 8.76 1.58 18.62 8.54 26.33 2.86 3.19 5.72 5.31 8.72 6.52 2.43 1 5.15 1.4 7.75 1.82 13.63 2.12 27.72 4.34 41.49 1.83.14-.01.22-.06.27-.07-.04-.26-.38-.85-.56-1.16-.49-.85-.99-1.7-.49-2.48.4-.62 1.17-.67 1.62-.67l.01-.03v.01h.02v-.01z"/>
    <path fill="#FFF" d="M1246.44 124.37c6.7 22.06 6.67 21.62 9.83 30.69 1.21 3.52 10.87 8.85 23.27-.93 9-7.11 8.76-14.3 8.42-16.61-.19-1.4-8.96-17.43-13.28-24.37-2.43-3.88 2.96-.75-16.71 9.15-3.86 1.94-5.28.36-11.52 2.05v.01h-.01z"/>
    <path d="M1265.66 160.58c-1.65 0-2.97-.23-3.99-.51-3.57-.97-5.73-3.07-6.32-4.74l-.99-2.84c-2.25-6.44-2.93-8.4-8.83-27.88-.07-.22-.04-.48.07-.67.14-.22.34-.36.57-.43 3.08-.82 5.04-.88 6.59-.93 1.69-.07 2.9-.11 4.72-1.02 11.31-5.71 14.14-9.06 15.07-10.15.34-.39.67-.81 1.28-.74.61.09.82.58 1.01.93.11.27.29.63.6 1.12 3.92 6.31 13.15 23 13.4 24.72.4 2.83.38 10.19-8.76 17.4-5.82 4.6-10.87 5.77-14.47 5.77l.01-.04.02.02.01-.01zm-18.04-35.6c5.68 18.65 6.36 20.61 8.55 26.94l.99 2.84c.4 1.17 2.18 2.8 5.04 3.6 2.93.78 8.95 1.2 16.72-4.92 8.42-6.63 8.47-13.25 8.1-15.78-.32-1.39-8.62-16.74-13.17-24.04-.11-.19-.22-.36-.29-.51-1.45 1.59-5.06 4.92-15.14 10-2.22 1.12-3.76 1.17-5.53 1.24-1.39.04-2.93.09-5.24.64v-.01h-.02z"/>
    <path fill="#ACD4F7" d="M1226.83 99.75c-7.64-2.14-12.65-9.81-14.34-17.56-2.78-12.63 1.65-26.36 10.4-35.87 8.77-9.51 21.48-14.95 34.36-16.06 17.03-1.44 34.97 6.19 43.35 21.15 8.81 15.77 7.46 34.96 1.21 47.77-4.03 8.22-13.12 14.62-21.88 12.25-9.67-2.02-18.17-7.91-27.81-10.07-7.14-1.59-14.92 1.23-25.27-1.65l.01.01.01.02h-.01l-.02.01z"/>
    <path d="M1283.7 112.85c-1.32 0-2.68-.16-4.03-.53-4.96-1.02-9.71-3.11-14.29-5.13-4.35-1.9-8.83-3.88-13.48-4.91-2.96-.65-6.09-.53-9.45-.38-4.59.19-9.83.39-15.88-1.28-8.62-2.41-13.4-11-15.01-18.23-2.76-12.49 1.31-26.53 10.61-36.62 8.5-9.23 21.25-15.19 35-16.36 18.36-1.56 36.15 7.13 44.24 21.62 9.22 16.45 7.25 36.25 1.24 48.58-3.39 6.97-10.82 13.26-18.95 13.26h.01v-.01zm-37.21-12.87c1.99 0 3.92.11 5.82.53 4.85 1.08 9.43 3.1 13.87 5.04 4.47 1.98 9.14 4.03 13.96 5.03 8.66 2.33 17.17-4.33 20.79-11.75 5.82-11.93 7.72-31.08-1.17-46.98-7.78-13.85-24.82-22.17-42.41-20.66-13.26 1.12-25.55 6.87-33.74 15.74-8.92 9.7-12.82 23.14-10.16 35.09 1.46 6.72 5.84 14.68 13.67 16.87 5.76 1.63 10.8 1.4 15.25 1.23 1.4-.06 2.78-.11 4.13-.11l.01-.01v-.01l-.01-.01z"/>
    <path fill="#FFF" d="M1284.19 76.9c-5.56-12.87-27.24-23.88-44.07-18.54-3.71 1.17-13.87 7.52-13.87 18.29 0 9.41-.14 18.87 1.5 28.17 1.54 8.76 4.18 15.6 11.38 20.82 7.71 5.58 17 8.02 27.2 2.37 9.41-5.22 13.48-13.52 16.45-22.54s5.35-19.41 1.42-28.54l-.03-.03h-.01.02z"/>
    <path d="M1254.6 132.13c-5.35 0-10.72-1.92-16.07-5.79-8.06-5.86-10.4-13.75-11.73-21.39-1.54-8.69-1.51-17.61-1.51-26.26v-2.05c0-10.86 9.97-17.68 14.5-19.13 17.53-5.59 39.54 5.81 45.27 19.06 4.1 9.49 1.58 20.04-1.4 29.14-2.86 8.69-6.89 17.49-16.88 23.06-4.05 2.25-8.12 3.37-12.19 3.37l-.01-.01.01-.01h.01zm-5.26-74.25c-3.05 0-6.06.42-8.92 1.34-2.62.82-13.2 6.56-13.2 17.43l-.03 2.05c0 8.57-.03 17.43 1.46 25.97 1.27 7.28 3.5 14.79 11.03 20.23 8.72 6.32 17.52 7.11 26.15 2.33 9.45-5.27 13.29-13.71 16.03-22.05 2.9-8.77 5.32-18.96 1.46-27.92-4.39-10.12-19.6-19.37-33.98-19.37l.01-.01v.01-.01z"/>
    <path fill="#FFF" d="M1187.37 118.48c5.35-3.85 10.2-8.41 14.81-13.17 1.69-1.72 3.34-3.49 5.39-4.74 2.03-1.24 4.57-1.92 6.86-1.24 2.3.67 5.62 3.64 3.53 6.94-4.72 5.09-8.95 8.69-14.06 13.88 2.86.15 5.72.51 8.35.58 5.04-3.61 9.76-7.68 14.1-12.12 1.55-1.6 3.05-3.25 4.89-4.46 1.83-1.23 4.07-2 6.25-1.63 3.3.62 7.37 3.98 5.26 7.6-3.36 3.84-9.59 10.9-17.8 18.31 1.1 2.63-.4 5.81-2.75 7.42-2.36 1.6-5.28 1.98-8.1 2.12-8.24.42-16.47-.78-24.65-1.98-2.78-.39-5.79-.93-7.64-3.06-1.85-2.12-1.99-5.38-.91-8.01 1.08-2.62 3.39-4.3 6.43-6.43l.01.01h.03z"/>
    <path d="M1210.73 138.95c-7.21 0-14.42-1.06-21.39-2.09-3.18-.46-6.19-1.06-8.2-3.37-1.96-2.24-2.4-5.73-1.08-8.9 1.17-2.84 3.64-4.6 6.73-6.82 4.59-3.3 9.14-7.32 14.68-13.07l.27-.26c1.62-1.66 3.28-3.38 5.32-4.63 2.54-1.56 5.34-2.03 7.68-1.36 1.61.48 3.68 1.92 4.51 3.95.57 1.44.4 2.93-.46 4.33-.04.04-.07.09-.1.12-2.72 2.9-5.24 5.34-7.9 7.86-1.55 1.48-3.14 2.99-4.81 4.65.53.04 1.1.09 1.62.12 1.54.12 2.97.26 4.36.3 4.88-3.52 9.49-7.49 13.7-11.82l.52-.55c1.39-1.43 2.82-2.9 4.53-4.04 2.3-1.54 4.78-2.16 6.99-1.76 2.11.38 4.89 1.9 6.09 4.31.75 1.52.67 3.13-.19 4.62-.03.06-.07.09-.1.15-3.01 3.42-9.22 10.52-17.44 17.98.9 3.06-.95 6.29-3.28 7.9-2.56 1.76-5.79 2.14-8.61 2.29-1.13.06-2.3.09-3.46.09l.02-.01.01.01zm-22.81-19.76c-2.97 2.12-5.13 3.67-6.1 6.05-1.04 2.53-.74 5.38.78 7.11 1.58 1.82 4.25 2.33 7.04 2.73 8.01 1.17 16.28 2.4 24.46 1.98 2.67-.12 5.42-.46 7.6-1.96 1.92-1.34 3.36-4.07 2.41-6.36-.14-.35-.07-.74.22-1 8.32-7.48 14.61-14.65 17.67-18.14.52-.97.56-1.94.07-2.9-.86-1.76-3.05-2.99-4.74-3.3-1.69-.32-3.65.2-5.52 1.44-1.55 1.02-2.93 2.44-4.22 3.81l-.52.53c-4.36 4.49-9.18 8.61-14.23 12.25-.15.11-.35.19-.57.19-1.58-.04-3.12-.16-4.81-.32-1.17-.09-2.4-.2-3.58-.26-.37-.01-.68-.23-.82-.58-.14-.34-.07-.69.19-.95 2.21-2.24 4.25-4.18 6.22-6.06 2.63-2.51 5.12-4.88 7.78-7.72.53-.88.64-1.78.27-2.67-.56-1.4-2.12-2.53-3.3-2.88-1.81-.53-4.01-.12-6.07 1.13-1.85 1.12-3.43 2.75-4.97 4.34l-.25.27c-5.65 5.83-10.26 9.91-14.94 13.26l-.01.03-.02-.01h-.03z"/>
    <path fill="#FFF" d="M1139.89 262.51c-3.16-28.35-6.78-75.09-3.38-84.44 2.18-6.05 27.32-45.02 41.68-57.07 15.92 1.74 40.34 6.8 54.49 8.81-.34 7.13-.67 11.28-1.06 17.75-11.31 10.74-23.57 23.71-33.49 33.13-1.4 24.5-.07 33.87 2.58 57.88 17.44.19 35.52.62 52.98.27-.03 6.06.34 17.3.56 23.65-30.74 2.11-91.72.78-114.37 0h.01v.01h-.01l.01.01z"/>
    <path d="M1207.39 264.55c-27.38 0-55.57-.71-67.55-1.13-.49 0-.86-.35-.91-.78-3.23-28.92-6.74-75.38-3.34-84.85 2.33-6.41 27.8-45.58 41.99-57.44.19-.16.46-.23.74-.22 9.54 1.05 22.38 3.33 33.71 5.34 7.78 1.37 15.13 2.67 20.79 3.49.49.06.82.46.82.92-.22 4.53-.42 7.83-.65 11.33-.14 2-.27 4.07-.4 6.43 0 .22-.1.42-.27.59-5.82 5.54-11.92 11.67-17.8 17.61-5.49 5.54-10.68 10.75-15.42 15.27-1.27 22.54-.22 32.03 2.08 52.72l.42 3.88c3.72.04 7.46.09 11.21.15 13.5.19 27.46.38 40.89.12.25 0 .5.07.68.26.18.16.27.39.27.64 0 6.13.35 17.44.56 23.64.03.5-.37.89-.9.93-12.33.82-29.46 1.12-46.91 1.12l-.01-.01-.01-.01h.02l.01.01zm-66.67-2.9c20.29.67 81.12 2.06 112.55.04-.19-6.03-.5-15.9-.52-21.91-13.17.22-26.79.04-39.99-.15-4.03-.06-8.06-.11-12.07-.15-.49-.01-.86-.36-.94-.81l-.52-4.69c-2.33-20.88-3.38-30.42-2.07-53.34.03-.22.11-.42.29-.59 4.78-4.54 10.04-9.85 15.65-15.48 5.81-5.86 11.81-11.91 17.6-17.39.11-2.24.25-4.19.37-6.13.22-3.26.42-6.38.61-10.46-5.57-.82-12.61-2.06-20.02-3.37-11.14-1.98-23.73-4.21-33.17-5.28-14.06 12.05-38.85 50.13-41.13 56.41-3.3 9.12.18 54.47 3.34 83.28l.04.01-.01.02h-.03l.01-.01z"/>
    <path fill="#ACD4F7" d="M1242.63 200.79c-8.92-5.96-18.71-10.86-29.2-13.76-3.1-.86-6.29-1.56-9.51-1.48-9.32.22-16.97 6.67-23.32 12.55-.82.86-1.72 2.05-1.13 3.07.4.69 1.36.95 2.18.81.82-.15 1.54-.62 2.22-1.06 3.96-2.53 8.08-4.8 12.37-6.8-6.25 2.95-12.68 6.05-17.17 11.12-.57.64-1.12 1.34-1.28 2.14-.19.82.07 1.78.79 2.21 1.1.65 2.47-.06 3.53-.75 5.18-3.36 10.58-6.41 15.99-9.26-3.53 1.63-6.93 3.49-10.12 5.66-2.25 1.5-4.45 3.25-5.57 5.62-.38.81-.57 1.87.1 2.48.9.81 2.33.15 3.32-.5 4.17-2.75 8.47-5.34 13.04-7.8-2.43 1.56-4.88 3.13-7.3 4.69-1.9 1.2-3.97 2.68-4.29 4.86-.1.55.03 1.23.52 1.52.61.35 1.39-.06 1.99-.43 2.56-1.68 5.15-3.38 7.74-5.08 1.85-1.23 3.84-2.48 6.09-2.57 1.36-.04 2.72.36 4.03.75 8.62 2.63 19.67.5 25.48 8.84 5.04 7.17 16.93-11.96 9.56-16.87h-.03l-.02-.01h.01v.01z"/>
    <path d="M1235.82 220.15c-1.39 0-2.62-.69-3.53-2-3.78-5.38-9.85-6.13-16.26-6.89-2.93-.36-5.95-.74-8.74-1.59-1.21-.36-2.47-.75-3.71-.71-2.03.07-4.01 1.37-5.61 2.4l-7.74 5.08c-.44.3-1.77 1.17-3.01.48-.78-.43-1.13-1.36-.99-2.41.07-.36.15-.69.27-1.02-.07.06-.14.09-.22.15-2.5 1.65-3.9.97-4.51.39-.85-.78-.98-2.09-.32-3.49.07-.12.11-.23.19-.36-.99.51-2.4.97-3.65.22-1.01-.62-1.54-1.9-1.21-3.17.22-1.01.85-1.82 1.5-2.53.57-.67 1.19-1.31 1.85-1.9-.67-.2-1.24-.62-1.55-1.16-.67-1.17-.25-2.57 1.28-4.12 6.57-6.13 14.36-12.63 23.98-12.84 3.47-.07 6.9.74 9.8 1.52 9.8 2.71 19.72 7.39 29.48 13.88 2.45 1.63 3.32 4.68 2.41 8.6-1.1 4.92-4.97 10.69-8.96 11.4-.27.04-.53.07-.79.07l-.01-.01.01-.02h.01l.01.01zm-32.03-12.97c1.46 0 2.86.42 4.1.81 2.62.78 5.56 1.16 8.42 1.48 6.55.81 13.33 1.63 17.57 7.68.9 1.27 1.79 1.27 2.4 1.16 2.79-.5 6.44-5.37 7.49-10.03.42-1.83.75-5.15-1.65-6.74-9.6-6.39-19.33-10.97-28.93-13.64-2.75-.75-5.99-1.52-9.23-1.44-8.92.2-16.38 6.44-22.67 12.29-.49.5-1.28 1.44-.99 2.02.18.27.67.42 1.17.34.61-.11 1.19-.48 1.83-.89.04-.01.07-.04.1-.06 3.68-2.63 7.83-4.65 11.69-6.48.25-.11.49-.22.71-.34.46-.22 1.04-.04 1.27.39.22.43.04 1-.42 1.2-.22.11-.46.22-.71.34-3.92 1.87-7.75 4-11.39 6.32-1.73 1.27-3.36 2.66-4.75 4.26-.56.63-.95 1.17-1.08 1.76-.14.51.04 1.06.38 1.27.46.27 1.28.04 2.48-.74 2.03-1.34 4.17-2.63 6.39-3.95 3.08-2.03 6.36-3.84 9.72-5.37.46-.2 1.01-.04 1.25.39.22.43.07.97-.38 1.2-3.39 1.78-6.55 3.53-9.54 5.31-.15.09-.34.2-.49.32-2.12 1.43-4.22 3.06-5.26 5.27-.25.53-.38 1.2-.1 1.47.37.35 1.36-.09 2.11-.59 4.43-2.9 8.72-5.47 13.12-7.85.44-.23 1.01-.09 1.27.32.27.42.15.95-.27 1.23l-7.3 4.68c-1.83 1.17-3.64 2.48-3.9 4.23-.07.38.04.62.07.63 0 0 .22.09.95-.39l7.74-5.08c1.77-1.17 4.01-2.62 6.61-2.71h.25l-.01-.03-.03-.02h.01l.01-.01z"/>
    <path d="M1318.91 220.15c-.14 0-.27-.04-.4-.09-23.38-10.58-38.67-14.61-65.85-21.37-4.86-1.2-7.6-1.48-11.78 1.34-.42.27-1.03.19-1.32-.22-.29-.39-.19-.97.22-1.24 5.01-3.37 8.54-2.83 13.36-1.63 27.32 6.8 42.67 10.83 66.19 21.47.49.22.67.75.44 1.2-.15.34-.5.53-.85.53v-.01.01h-.01l-.01.01z"/>
    <path d="M1319.61 220.15c-.42 0-.82-.27-.94-.69-2.75-10.88-3.72-18.14-4.88-26.53-.53-4.03-1.12-8.21-1.92-13.3-.1-.5.27-.95.79-1.02.5-.09.99.26 1.08.75.82 5.12 1.39 9.31 1.95 13.37 1.17 8.69 2.12 15.54 4.85 26.33.11.5-.19.97-.71 1.08-.07.01-.14.04-.22.04v-.02h-.01v-.01zM1249 239.8c-.18 0-.37-.06-.52-.15-4.56-2.9-8.64-6.36-12.19-10.3-3.1-3.45-6.52-8.08-5.42-13.42.11-.5.6-.81 1.12-.71.52.09.85.58.75 1.06-.95 4.59 2.18 8.77 4.97 11.91 3.43 3.81 7.41 7.16 11.81 9.97.44.27.56.82.27 1.24-.18.26-.49.39-.79.39v.02h.01zm34.71-161.68c-8.32 0-16.76-6.39-21.79-12.21-2.97 2.61-6.79 4.19-10.84 4.54-.27.01-.82.07-1.28-.23-.78-.51-.74-1.44-.71-1.74.04-.48-.35-1.74-.65-2.75-.18-.51-.32-1.01-.44-1.44-5.26 4.8-14.42 11.54-21.5 13.23-.5.11-1.03-.16-1.13-.65-.14-.48.18-.97.68-1.08 7.25-1.74 17.28-9.49 21.89-13.98.27-.26.68-.35 1.06-.19.37.15.57.5.56.86-.03.48.37 1.74.67 2.75.42 1.39.79 2.59.74 3.36v.09c3.94-.35 7.61-2.02 10.36-4.7.19-.19.46-.27.74-.27.27.01.52.15.68.35 4.67 5.69 12.97 12.29 20.96 12.29.52 0 .95.39.95.89s-.42.89-.95.89l-.01.01h-.01.02v-.02zm-97.89 109.08c-.18 0-.32-.11-.32-.27-.14-2.4-.07-4-.03-5.31.03-.89.07-1.66.03-2.45-.03-.07.03-.15.07-.2 13.17-14.93 27.38-30.55 42.07-43.58.14-.11.34-.11.46.01.11.12.1.32-.03.42-14.67 12.99-28.82 28.53-41.94 43.42.04.78 0 1.52-.04 2.37-.04 1.28-.11 2.88.03 5.24.03.16-.11.32-.29.32h-.03l.01.01h.01l-.01.01zm5.91 55.4c-.15 0-.32-.12-.32-.27-.49-7.8-1.27-15.7-2.37-23.45-.03-.16.1-.32.27-.34.18-.04.34.09.35.26 1.1 7.75 1.9 15.66 2.37 23.49.03.16-.11.3-.29.32h-.03l.01-.01zm77.26-46.9c-.15 0-.29-.12-.32-.27l-2.18-31.76c0-.16.11-.32.29-.34.18-.01.34.12.35.3l2.18 31.74c0 .16-.11.32-.29.34h-.04v-.01zm-19.96-138.96c-.15 0-.29-.09-.32-.23-.85-3.72-.42-7.7 1.15-11.2.07-.15.25-.22.4-.16.15.07.22.23.18.39-1.55 3.38-1.92 7.24-1.12 10.85.04.15-.07.32-.25.35h-.07.02v-.01zm3.78.34h-.07c-.18-.04-.27-.2-.22-.36.65-2.84 2.02-5.54 3.92-7.83.1-.12.32-.15.44-.06.14.11.15.3.07.42-1.85 2.21-3.16 4.85-3.79 7.59-.04.15-.18.23-.32.23l-.01-.01h-.02l-.01.01zm-8.07-.23c-.14 0-.25-.07-.29-.19-.95-2.02-1.51-4.26-1.58-6.44 0-.16.14-.3.32-.32.18 0 .32.12.34.3.07 2.12.6 4.3 1.51 6.23.07.15 0 .34-.15.38-.04.01-.07.04-.11.04l-.01-.01v.01h-.03zm12.68.93h-.1c-.15-.06-.25-.22-.22-.38.56-1.82 1.83-3.42 3.5-4.46.15-.07.35-.04.44.09.07.15.04.34-.1.42-1.55.95-2.72 2.45-3.23 4.12-.04.15-.18.22-.32.22h.02v-.01zm25.08 48.92c-.15 0-.29-.11-.32-.27-.03-.16.11-.32.29-.34 2.21-.23 4.36-1.12 6.06-2.48.14-.11.34-.09.44.04.11.12.1.34-.04.42-1.79 1.43-4.07 2.37-6.4 2.62h-.04l-.01-.01.01.01zm1.08-4.09c-.11 0-.22-.06-.27-.16-.1-.12-.04-.32.11-.39 3.08-1.66 5.68-4.08 7.45-7.01.07-.15.29-.2.42-.11.15.07.22.26.11.39-1.83 3.01-4.49 5.51-7.68 7.22-.04.04-.1.06-.15.06v.01-.01h.01-.01zm-30.51 54.84c-.1 0-.19-.06-.25-.15-1.83-2.59-3.14-5.43-3.92-8.44-.04-.16.07-.34.22-.36.18-.04.35.06.38.22.75 2.97 2.02 5.73 3.82 8.27.1.15.07.34-.1.42-.04.04-.11.06-.18.06h.01l.01-.01h.01-.01zm-6.71-1.98c-.11 0-.22-.06-.27-.16l-1.87-3.53c-.07-.15-.03-.34.14-.39.15-.09.35-.01.42.12l1.87 3.56c.07.15.03.32-.14.39-.07.01-.1.01-.15.01h-.01zm-68.56 51.01c-.07 0-.11-.01-.18-.01-1.92-.35-3.65-1.68-4.59-3.56-.78-1.48-1.06-3.29-.9-5.35.25-2.9 1.39-5.5 3.18-7.32 2.15-2.16 5.18-3.19 7.99-2.66 1.55.3 3.05 1.05 4.75 2.35.4.32.46.88.14 1.28-.34.38-.94.43-1.32.12-1.46-1.12-2.72-1.76-3.94-1.98-2.12-.39-4.57.42-6.24 2.11-1.54 1.52-2.47 3.74-2.68 6.25-.15 1.72.07 3.21.68 4.39.67 1.36 1.92 2.33 3.24 2.57.52.09.85.58.75 1.06-.07.42-.49.74-.94.74l.01.03.02-.01h.02zm88.9-116.7c-.15-.92.5-1.79 1.5-1.96s1.9.46 2.07 1.37c.18.93-.5 1.79-1.5 1.96-.98.16-1.88-.46-2.07-1.37zm-29.36 0c-.15-.92.5-1.79 1.5-1.96s1.9.46 2.07 1.37c.15.93-.5 1.79-1.5 1.96-.99.16-1.9-.46-2.07-1.37zm15.35 18.44c-.75 0-1.46-.07-2.08-.12-.98-.11-1.96-.27-2.9-.75-1.13-.62-1.85-1.65-1.88-2.73-.07-1.32.85-2.35 1.58-3.15l.15-.16c2.56-2.9 3.94-6.71 3.78-10.48-.03-.5.38-.92.91-.93.53 0 .98.36.99.86.18 4.21-1.36 8.48-4.22 11.7l-.15.19c-.57.64-1.15 1.28-1.13 1.9.03.46.38.93.95 1.23.57.32 1.27.43 2.18.53 1.87.2 3.23.12 4.4-.2.5-.15 1.04.12 1.17.59.15.48-.11 1-.61 1.13-1.06.3-2.11.39-3.08.39l-.01-.03-.02.03h-.01l-.01-.01zm.38 11.93h-.22c-.52-.01-.95-.42-.94-.92 0-.5.4-.88.98-.88 3.65.06 7.37-1.59 9.71-4.27.34-.38.94-.43 1.32-.12.4.32.46.88.14 1.27-2.62 3.04-6.82 4.92-10.98 4.92h-.01v-.01z"/>
    <path fill="#FFF" d="M558.14 110.54c-12.38 17.66-20.54 37.96-22.61 59.12 4.01-4.57 8.76-8.53 14.39-11.44 1.13 5.04 3 9.93 6.94 13.85 4.96-20 12.37-39.45 22.22-57.57-4.4-.38-8.79-.78-13.22-1.16-2.43-.2-5.38-.78-7.74-2.8h.03-.01z"/>
    <path d="M556.87 172.99c-.25 0-.5-.11-.68-.27-3.3-3.3-5.46-7.37-6.9-13.1-4.74 2.63-9.14 6.21-13 10.62-.27.32-.71.42-1.1.27-.38-.16-.61-.53-.57-.93 2-20.59 9.89-41.15 22.74-59.54.15-.22.4-.36.68-.39.27-.04.53.06.75.22 2.29 1.96 5.18 2.41 7.19 2.59l13.22 1.16c.32.01.6.2.75.46.15.27.15.59 0 .86-9.64 17.72-17.09 37.03-22.14 57.36-.07.34-.34.59-.67.67-.07.01-.18.04-.25.04l-.01-.01h-.01v.01zm-6.94-15.69c.14 0 .27.04.4.09.27.11.46.35.52.64 1.19 5.27 2.93 9.07 5.52 12.12 4.96-19.41 12.1-37.87 21.24-54.88l-11.81-1.02c-2.03-.19-4.93-.63-7.45-2.37-11.78 17.06-19.2 36.03-21.55 55.05 3.82-3.94 8.06-7.13 12.66-9.51.15-.06.32-.11.46-.11v-.02z"/>
    <path fill="#FFF" d="M591.39 101.32c12.38 17.64 20.54 37.96 22.58 59.11-3.99-4.54-8.74-8.53-14.36-11.43-1.13 5.03-3 9.91-6.94 13.85-4.96-20.01-12.37-39.45-22.22-57.57 4.4-.38 8.79-.78 13.22-1.16 2.43-.2 5.38-.78 7.74-2.8h-.03.01z"/>
    <path d="M592.67 163.75c-.07 0-.18 0-.25-.01-.35-.09-.6-.35-.67-.67-5.06-20.34-12.5-39.62-22.14-57.37-.15-.26-.15-.59 0-.85.15-.27.44-.43.75-.48l13.22-1.13c2-.16 4.92-.63 7.19-2.59.22-.19.49-.26.75-.22.27.01.52.16.67.38 12.89 18.37 20.76 38.97 22.77 59.55.04.39-.19.78-.57.92-.4.15-.85.06-1.12-.26-3.88-4.42-8.24-7.99-13-10.62-1.42 5.73-3.58 9.81-6.89 13.09-.19.19-.44.27-.68.27l-.03-.01h.01-.01v-.01zm-20.74-57.7c9.15 17.05 16.28 35.5 21.24 54.89 2.58-3.06 4.32-6.87 5.49-12.14.07-.27.27-.51.53-.63.27-.12.6-.11.86.01 4.57 2.37 8.83 5.58 12.66 9.51-2.36-19.03-9.76-37.99-21.55-55.05-2.52 1.76-5.39 2.2-7.45 2.37l-11.81 1.01.01.01.01.01.01.01z"/>
    <path fill="#FFF" d="M556.75 49.28s.49-5.96 6.49-8.12c6.03-2.16 10.43 2.37 10.43 2.37s5.06-4.34 10.04-4c5.69.39 7.6 5.88 7.6 5.88s4.47-4.37 10.2-1.23c6.25 3.42 4.13 9.57 4.13 9.57s5.86-2.84 10.47 2.71c4.63 5.58.27 10.85.27 10.85s6.9.53 6.9 7.76c0 6.9-4.68 8.44-4.68 8.44s6.73 1.82 3.79 9.62c-2.93 7.83-8.36 5.81-8.36 5.81s2.75 5.87-.37 9.49c-3.53 4.12-10.67 3.15-10.67 3.15s1.73 6.82-4.14 9.13c-7.03 2.73-11.73-1.05-11.73-1.05s-2.9 5.31-10 5.31c-7.45 0-9.07-6.48-9.07-6.48s-5.01 5.31-11.89 1.56c-5.2-2.84-3.79-9.19-3.79-9.19s-8.62 2.02-11.78-3.42c-2.68-4.6.65-10.66.65-10.66s-5.95-1.47-7.19-8.08c-1.01-5.31 3.99-10.12 3.99-10.12s-5.53-5.01-3.51-10.12c2.07-5.18 9.15-6 9.15-6s-3.64-4 1.45-10.12c3.86-4.65 11.63-3.06 11.63-3.06l-.03-.01.02.01h.03-.01z"/>
    <path d="M577.12 125.9c-5.9 0-8.49-3.77-9.47-5.86-1.99 1.44-6.44 3.77-11.96.78-4.28-2.35-4.57-6.69-4.43-8.87-2.72.36-8.79.58-11.54-4.11-2.26-3.9-.65-8.61.22-10.59-1.92-.78-5.82-3.01-6.85-8.42-.85-4.59 2.26-8.71 3.65-10.26-1.51-1.6-4.89-5.89-3.1-10.46 1.69-4.23 6.24-5.79 8.55-6.35-.85-1.79-1.65-5.4 2.18-10 3.38-4.07 9.24-3.84 11.6-3.56.42-1.9 1.9-6.1 6.94-7.91 5.22-1.89 9.28.75 10.8 2.02 1.62-1.2 5.81-3.98 10.09-3.68 4.59.32 6.94 3.53 7.9 5.34 1.79-1.2 5.72-3.07 10.3-.58 4.78 2.62 5.12 6.74 4.88 8.99 2.29-.51 6.5-.69 10 3.52 3.68 4.43 2.12 8.76 1.01 10.78 2.26.64 6.37 2.59 6.37 8.4 0 4.74-2.07 7.2-3.64 8.37.9.55 1.95 1.39 2.67 2.71 1.08 2 1.08 4.46.03 7.32-1.15 3.1-2.86 5.13-5.02 6.09-1.04.46-2.03.55-2.83.55.67 2.12 1.39 6.06-1.06 8.95-2.93 3.41-7.9 3.67-10.24 3.58.32 2.83-.4 7.16-4.96 8.96-5.73 2.24-10.03.42-11.81-.62-1.21 1.63-4.43 4.92-10.28 4.92v-.01.01zm-9.07-8.33c.07 0 .15.01.22.04.35.07.61.34.68.65.07.23 1.58 5.81 8.12 5.81 6.43 0 9.07-4.62 9.19-4.82.14-.23.38-.42.67-.48.29-.04.57.01.79.2.18.15 4.39 3.37 10.74.89 5.06-1.98 3.65-7.83 3.58-8.08-.07-.27.03-.59.22-.82.22-.22.52-.34.82-.27.07 0 6.65.85 9.79-2.83 2.71-3.15.27-8.5.22-8.56-.15-.34-.07-.74.19-1 .25-.27.67-.36 1.03-.22.07.01 1.5.5 3.16-.23 1.69-.75 3.01-2.44 3.97-5.03.9-2.37.91-4.33.1-5.87-1.06-1.96-3.23-2.59-3.24-2.59-.4-.12-.68-.46-.68-.86-.03-.38.25-.75.64-.88.15-.06 4.03-1.47 4.03-7.59 0-6.29-5.79-6.86-6.03-6.87-.35-.04-.65-.23-.79-.55-.14-.3-.1-.65.11-.92.15-.19 3.84-4.8-.25-9.71-4.05-4.88-9.07-2.59-9.32-2.48-.34.16-.75.11-1.04-.12-.29-.23-.4-.63-.29-.97.07-.22 1.79-5.5-3.68-8.48-5.01-2.73-8.88.92-9.04 1.08-.22.22-.56.32-.9.23-.34-.07-.6-.3-.68-.59-.07-.2-1.81-4.92-6.78-5.28-4.51-.32-9.29 3.72-9.33 3.75-.38.34-.99.32-1.35-.06-.15-.16-4.03-4.07-9.39-2.14-5.32 1.92-5.84 7.11-5.86 7.33-.03.27-.15.51-.38.65-.22.16-.5.22-.78.16-.07-.01-7.23-1.4-10.67 2.75-4.47 5.38-1.61 8.81-1.46 8.95.22.26.27.63.15.93-.14.3-.42.51-.78.58-.07 0-6.53.81-8.36 5.43-1.77 4.49 3.24 9.09 3.28 9.14.19.16.29.39.29.64.03.23-.07.48-.27.64-.04.06-4.63 4.57-3.75 9.33 1.12 5.93 6.29 7.32 6.5 7.37.29.07.52.26.64.51.11.26.11.53-.03.78-.04.06-3.08 5.7-.67 9.81 2.78 4.78 10.64 3.01 10.72 2.99.32-.07.65.01.9.22.22.22.35.55.27.85-.04.23-1.19 5.74 3.34 8.21 6.1 3.33 10.51-1.17 10.71-1.36.19-.2.44-.32.71-.32l.04-.03v.06z"/>
    <path fill="#FFF" d="M585.45 54.07c-10.43-2.53-22.17 1.23-29.2 8.57-7.07 7.36-9.59 17.81-7.39 27.3 2.5 10.83 14.03 19.1 22.93 20.08 14.46 1.6 26.3-4.65 29.98-8.67 6.79-7.4 9.89-17.63 7.35-26.94-2.5-9.33-10.88-17.24-23.66-20.36v.02-.01z"/>
    <path d="M576.35 111.2c-1.55 0-3.1-.09-4.68-.26-9.39-1.05-21.18-9.64-23.74-20.81-2.33-10.03.6-20.81 7.6-28.1 7.53-7.85 19.63-11.4 30.14-8.85 12.53 3.04 21.64 10.9 24.36 21.01 2.52 9.31-.38 19.96-7.57 27.76-3.79 4.14-14 9.23-26.13 9.23l.01.01v.01h.01v.01zm2.33-57.01c-8.01 0-16.21 3.3-21.74 9.07-6.59 6.89-9.33 17.05-7.15 26.51 2.41 10.39 13.36 18.41 22.11 19.37 14.74 1.63 26-4.92 29.17-8.37 6.78-7.37 9.51-17.37 7.14-26.12-2.54-9.45-11.14-16.82-22.96-19.7-2.12-.51-4.32-.78-6.53-.78h-.01v.01h-.02z"/>
    <path fill="#ACD4F7" d="m569.42439461 72.87212038-5.04638672 4.76434326 14.90362549 17.62258148 14.40014648-22.40341186-5.33380127-4.53161621-10.05596924 15.14328003z"/>
    <path d="M579.28 96.17c-.29 0-.56-.12-.75-.35l-14.89-17.63c-.32-.35-.29-.88.07-1.2l5.06-4.76c.19-.19.44-.27.74-.26.27.01.52.15.68.35l8.02 9.58 9.33-14.07c.15-.23.38-.38.67-.42.27-.04.56.06.78.22l5.32 4.54c.35.27.42.78.19 1.13l-14.42 22.41c-.15.26-.44.42-.75.43h-.07v.03h.02zM565.67 77.7l13.5 15.97 13.28-20.65-3.9-3.33-9.45 14.23c-.15.26-.44.39-.75.42-.32.01-.6-.11-.79-.35l-8.21-9.78-3.68 3.46v.02h.01l-.01.01z"/>
    <path fill="#FFF" d="M502.35 252.6c-15.72 5.69-54.09 15.12-72.59 18.92-17.99-15.64-9.15-61.66-29.48-79.38-2.67-6.63-20.66-14-27.27-10.74-7.57 3.74-10.94 38.38-7.82 47.11 6.9 19.16 12.53 74.86 38.14 94.61 9.59 7.4 51.84-8.71 101.17-31.89 8.1-3.81 19.52-4.04 28.3-1.98 18.68 4.39 22.92 4.23 24.07 1.65 1.12-2.45-16.6-6.09-21.44-9.06 12.22 0 29.53 3.29 30.2-2.14.4-3.49-14.64-1.36-27.32-4.85 16.04-3.68 30.65 1.72 31.53-4.14.65-4.57-20.02-1.78-28.64-4.42 7.35-2.63 24.56-.07 24.82-4.96.19-3.42-14.17-2.93-18.58-2.93-6.65 0-11.06 1.24-17.49-.27 3.34-5.13 15.21-13.49 12.1-15.19-3.34-1.83-6.43.75-14.53 5.59-7.37 4.37-19.24 1.9-25.17 4.04l-.01.03-.01.01.02-.02z"/>
    <path d="M410.83 325.85c-3.68 0-6.37-.65-8.1-2-19.31-14.89-27.24-49.35-33.07-74.51-1.92-8.41-3.61-15.69-5.35-20.52-3.08-8.54 0-44.11 8.28-48.21 3.05-1.5 8.55-1.08 14.67 1.13 5.26 1.92 11.99 5.62 13.87 9.87 10.6 9.38 13.33 26.12 15.99 42.31 2.47 14.99 4.78 29.15 12.97 36.61 19.39-4.03 56.67-13.26 71.95-18.79 2.56-.93 6.09-1.05 9.83-1.16 5.18-.16 11.06-.35 15.18-2.83 1.25-.74 2.37-1.43 3.39-2.05 5.84-3.58 8.79-5.37 12.14-3.56.53.32.9.78.98 1.34.27 1.86-2.29 4.37-6.44 8.37-2.02 1.96-4.13 3.95-5.49 5.69 3.57.65 6.52.46 9.9.22 1.87-.12 3.79-.26 5.99-.26.42 0 .94-.01 1.54-.01 7.21-.06 15.1.06 17.33 2.25.49.48.71 1.05.67 1.65-.19 3.72-6.43 4-13.61 4.33-2.62.12-5.28.26-7.61.55 3.08.35 6.7.43 10.26.53 7.78.2 12.6.42 14.23 2.28.46.5.65 1.12.56 1.78-.6 4-5.62 3.85-12.56 3.63-4.44-.15-9.75-.3-15.38.48 4.53.82 9.14 1.12 13 1.36 5.39.34 8.99.55 10.24 1.98.38.43.53.95.49 1.52-.57 4.78-9.71 4.16-20.25 3.45-2.08-.12-4.18-.27-6.24-.36 1.83.65 3.97 1.34 6.07 2 6.65 2.12 10.78 3.49 11.56 5.15.19.39.22.82.03 1.23-1.42 3.21-5.46 3.52-25.17-1.13-9.54-2.25-20.39-1.5-27.65 1.9-48.15 22.63-79.19 33.79-94.11 33.79l-.03-.03v-.02h-.04l-.02.02zM377.2 181.53c-1.54 0-2.82.22-3.76.67-6.86 3.38-10.4 37.52-7.32 46.01 1.77 4.95 3.47 12.25 5.42 20.73 5.76 24.89 13.59 58.99 32.41 73.49 5.53 4.27 27.42 2.18 100.16-32.02 7.61-3.58 18.99-4.37 28.96-2.03 17.64 4.16 21.93 4.04 22.89 2.32-.79-1.01-6.53-2.84-10.39-4.07-4.39-1.39-8.5-2.68-10.61-4-.37-.22-.52-.63-.4-1.02.11-.38.5-.64.94-.64 3.43 0 7.27.26 11 .51 8.36.55 17.86 1.2 18.21-1.86.03-.07 0-.11-.04-.15-.74-.85-4.88-1.1-8.89-1.36-5.2-.32-11.67-.71-17.68-2.37-.4-.11-.68-.48-.68-.89.03-.39.32-.78.74-.86 7.46-1.72 14.53-1.5 20.2-1.32 6.55.2 10.26.2 10.61-2.05.03-.16-.03-.26-.11-.38-1.17-1.31-7.37-1.47-12.82-1.63-5.56-.15-11.31-.3-15.05-1.43-.38-.12-.65-.46-.67-.85 0-.38.22-.74.61-.88 3.14-1.13 7.86-1.36 12.4-1.56 5.47-.26 11.71-.53 11.82-2.62 0-.04 0-.12-.15-.3-1.83-1.82-12.07-1.72-15.93-1.68h-1.55c-2.12 0-4.03.12-5.86.26-3.78.27-7.37.51-11.86-.55-.29-.06-.53-.26-.65-.53-.11-.27-.07-.58.07-.82 1.36-2.09 4.01-4.63 6.55-7.07 2.33-2.21 6.14-5.89 5.9-6.86-2.25-1.2-4.36-.06-10.16 3.49-1.04.63-2.18 1.32-3.42 2.06-4.57 2.71-10.71 2.9-16.12 3.07-3.57.11-6.94.22-9.23 1.05l-.34-.85.34.85c-15.49 5.61-53.42 14.99-72.7 18.96-.32.07-.61-.01-.85-.2-8.96-7.8-11.35-22.48-13.93-38-2.6-15.97-5.32-32.48-15.57-41.4-.1-.09-.19-.22-.22-.35-1.21-3.01-6.5-6.72-12.86-9.03-3.47-1.24-6.74-1.89-9.33-1.89l-.07.01.01.02h-.01v.01z"/>
    <path fill="#FFF" d="M385.66 244.15c-.79 27.01-1.58 54.01-2.4 81.02-.07 2.48-4.6 12.34-16.56 14.57-46.91 8.8-89.44 10.36-123.58-7.32-18.74-9.7-8.81-40.52-4.82-60.35 50.24-.86 97.26-28.72 147.34-27.92h.01z"/>
    <path d="M306.85 347.02c-25.57 0-46.31-4.57-64.17-13.81-16.97-8.77-11.47-33.46-7.04-53.3.64-2.84 1.24-5.51 1.73-8.02.07-.42.46-.74.94-.74 24.28-.39 48.27-7.29 71.48-13.96 24.6-7.06 50.03-14.35 75.9-13.96.25 0 .5.11.67.27.18.19.27.42.27.65l-2.4 81.03c-.07 2.59-4.6 13.03-17.33 15.41-22.71 4.27-42.51 6.41-60.05 6.41h-.03l.01.02h.02v.01zm-67.73-74.08c-.49 2.33-1.03 4.76-1.61 7.33-4.28 19.23-9.63 43.19 6.09 51.33 29.69 15.38 67.61 17.61 122.92 7.22 11.42-2.14 15.7-11.49 15.78-13.68l2.36-80.11c-25.25-.19-50.2 6.98-74.34 13.91-23.09 6.63-46.92 13.46-71.22 14.02l.01-.01.01-.01z"/>
    <path fill="#FFF" d="M366.71 272.91c5.92-4.69 7.19-5.04 9.07-14.5 11.47-11.33 23.01-41.15 35.18-45.42-7.78-19.97-5.32-41.28-54.95-54.12-18.46-6.13-39.75-10.97-59.27-11.33-8.92-.15-45.38 4.02-60.87 24.51-20.62 27.33-33.88 71.17-36.15 92.56-11.52 107.61 142.05 28.02 166.96 8.3h.03l.01-.01z"/>
    <path d="M243.19 320.65c-9.15 0-17.68-1.47-24.81-5.05-15.78-7.98-22.35-25.15-19.59-51.09 2.26-21.05 15.36-65.18 36.35-93 15.89-21.08 53.27-25.01 61.66-24.88 22.1.38 44.56 6.39 59.55 11.37 42.03 10.88 47.25 28.18 52.31 44.92.98 3.21 1.99 6.55 3.24 9.77.07.22.07.48-.04.69-.1.22-.29.38-.53.46-6.86 2.41-13.82 13.84-20.53 24.86-4.82 7.94-9.39 15.43-14.1 20.16-1.79 8.81-3.16 9.89-8.1 13.76-.38.32-.82.64-1.25 1-9.28 7.36-35.92 22.82-66.07 34.18-17.36 6.56-39.07 12.87-58.09 12.87v-.01h.01v.01zm53.08-172.22c-9.03 0-44.47 4.04-59.61 24.14-20.77 27.53-33.74 71.25-35.97 92.11-2.68 25.12 3.57 41.7 18.58 49.3 6.74 3.41 14.92 4.88 23.92 4.88 43.92 0 107.7-34.61 122.91-46.65.44-.36.86-.67 1.25-1 4.81-3.77 5.81-4.54 7.49-12.97.04-.16.14-.34.25-.46 4.63-4.54 9.41-12.4 14.03-20.01 6.61-10.86 13.44-22.1 20.66-25.31-1.13-3.03-2.08-6.09-2.97-9.07-5.15-16.98-10-33.06-51.02-43.66-.03 0-.04 0-.07-.01-14.85-4.92-37.13-10.88-59-11.27h-.47l-.01-.02h.03l.01.01z"/>
    <path fill="#FFF" d="M358.13 124.4c-4.67 13.09-8.21 26.56-10.57 40.24-.19 1.13-.4 2.33-1.12 3.26-.74.93-1.88 1.44-3.04 1.87-7.74 2.9-16.67 3.25-24.09-.22-7.43-3.48-13-11.11-12.04-19.87 5.49-10.46 14.06-24.86 21.82-41.83 8.77 5.97 18.18 11.01 29.02 16.55l.01.01h.01z"/>
    <path d="M331.19 172.96c-4.36 0-8.55-.86-12.27-2.61-8.46-3.94-13.5-12.29-12.56-20.76.03-.11.04-.22.1-.32 1.61-3.06 3.5-6.48 5.49-10.12 4.81-8.76 10.8-19.65 16.3-31.66.11-.23.35-.43.61-.51.29-.07.57-.01.82.15 8.39 5.7 17.28 10.55 28.92 16.48.4.22.6.67.44 1.1-4.64 13.02-8.2 26.51-10.51 40.1-.22 1.2-.44 2.55-1.31 3.64-.85 1.1-2.15 1.7-3.42 2.18-4.18 1.56-8.49 2.35-12.61 2.35l-.01-.01zm-22.93-23.02c-.91 8.84 5.12 15.79 11.52 18.79 6.74 3.15 15.24 3.22 23.32.2.95-.35 1.99-.78 2.6-1.59.57-.75.75-1.82.95-2.87 2.3-13.42 5.78-26.78 10.35-39.65-10.92-5.59-19.45-10.23-27.46-15.6-5.38 11.63-11.18 22.21-15.89 30.75-1.95 3.58-3.82 6.94-5.38 9.96l-.01.01z"/>
    <path fill="#FFF" d="M323.47 170.91c-5.02 4.33-10.04 8.63-15.93 12.91-3.64-12.45-7.27-25.27-7.49-38.28 2.75-.69 8.92-3.29 11.67-4-1.25 2.53-3.23 4.68-3.04 5.58.11.58 9.64 16.78 14.77 23.79v-.01.01h.01z"/>
    <path d="M307.53 184.74c-.1 0-.19-.01-.32-.06-.29-.09-.52-.34-.61-.62-3.42-11.73-7.28-24.99-7.5-38.52 0-.42.29-.78.68-.89 1.32-.34 3.57-1.16 5.76-1.96 2.33-.85 4.49-1.65 5.92-2.02.37-.09.75.01.99.3.22.27.29.64.14.97-.56 1.1-1.21 2.11-1.79 2.99-.46.69-1.08 1.63-1.15 2 .82 1.7 9.72 16.75 14.63 23.45.29.38.22.89-.14 1.2-4.96 4.26-10.09 8.64-16 12.97-.15.11-.37.19-.57.19l-.03-.01v-.01.01zm-6.5-38.52c.32 12.55 3.82 24.98 7.04 36.06 5.15-3.84 9.72-7.72 14.14-11.51-4.89-6.89-14.25-22.52-14.47-23.48-.18-.88.46-1.86 1.42-3.33.18-.27.37-.55.53-.85-1.06.36-2.3.81-3.47 1.24-1.96.74-3.82 1.4-5.2 1.83v.03h-.01.02z"/>
    <path fill="#FFF" d="M350.12 151.96c-4.81 7.29-13.92 16.94-21.82 19.87 3.18 4.04 6.99 10.19 13.92 17.66 5.65-13.67 9.93-19.87 13.83-30.63-1.58-1.7-3.88-5.09-5.92-6.89h.01l-.01-.01z"/>
    <path d="M342.21 190.38c-.27 0-.52-.11-.71-.32-4.92-5.31-8.25-9.91-10.94-13.62-1.12-1.56-2.11-2.9-3.04-4.08-.18-.22-.22-.51-.15-.78s.29-.5.57-.62c7.39-2.73 16.34-11.87 21.36-19.51.14-.22.38-.38.67-.42.29-.04.57.06.78.23 1.32 1.17 2.75 2.95 3.97 4.53.75.93 1.45 1.82 2.02 2.44.22.26.32.59.19.89-2.08 5.79-4.25 10.15-6.73 15.22-2.11 4.26-4.47 9.09-7.12 15.44-.11.3-.38.5-.71.55-.07.01-.11.01-.18.01v.02h.01v.02zm-12.42-18.18c.74.97 1.5 2.03 2.36 3.22 2.45 3.38 5.47 7.57 9.76 12.34 2.43-5.73 4.63-10.2 6.57-14.16 2.4-4.88 4.47-9.12 6.49-14.54-.53-.63-1.13-1.37-1.75-2.16-.94-1.17-1.95-2.48-2.93-3.49-5.02 7.29-13.28 15.64-20.49 18.81l.01-.01h-.01v-.01z"/>
    <path fill="#ACD4F7" d="M372.55 59.32c-7.41 16.82-19.46 31.78-34.62 42.95-5.02 3.69-10.43 7.04-16.49 8.87-3.2.97-6.94 1.44-9.72-.36-2.56-1.68-3.51-4.82-4.28-7.7-.98-3.56-1.9-7.11-2.87-10.66-1.72-6.41-3.46-12.94-3.12-19.55.64-12.71 9.29-24.46 21.04-30.6 11.73-6.13 26.1-6.97 39.03-3.6 3.01.78 5.99 1.82 8.49 3.61 2.48 1.79 4.43 4.46 4.67 7.42.22 2.68-.29 5.51-2.11 9.62l-.01-.01h-.01z"/>
    <path d="M316.32 112.93c-2 0-3.72-.48-5.15-1.39-2.76-1.82-3.78-4.92-4.67-8.21l-2.87-10.69c-1.72-6.39-3.5-13.02-3.14-19.81.61-12.53 9.07-24.85 21.53-31.36 11.38-5.97 25.86-7.32 39.74-3.68 2.63.69 6.02 1.74 8.81 3.77 2.97 2.12 4.81 5.08 5.04 8.06.25 3.03-.4 6.03-2.18 10.04-7.5 17.02-19.56 32.02-34.91 43.32-6.18 4.54-11.5 7.4-16.81 9.02-1.99.62-3.78.92-5.39.92v.01h.03l-.01-.01zm29.98-75.32c-8.39 0-16.47 1.83-23.36 5.44-11.89 6.21-19.95 17.94-20.54 29.85-.34 6.55 1.4 13.03 3.08 19.3l2.87 10.66c.79 2.93 1.69 5.7 3.92 7.16 2.03 1.34 5.04 1.4 8.88.26 5.08-1.56 10.22-4.33 16.21-8.72 15.08-11.12 26.95-25.86 34.31-42.61 1.65-3.72 2.26-6.47 2.03-9.19-.22-2.48-1.77-4.92-4.28-6.75-2.54-1.83-5.72-2.8-8.17-3.46-4.96-1.28-10-1.92-14.94-1.92v-.01h-.01z"/>
    <path fill="#FFF" d="M379.34 71.11c-.53 9.41 1.32 18.8 1.32 28.22.03 9.41-2.12 19.35-9.45 26.59-6.44 6.38-16.67 9.96-26.57 9.31-9.9-.65-19.24-5.51-24.23-12.63-4.71-6.71-5.52-21.37-6.19-28.69-4.43.69-9.32-.63-11.96-3.63-2.63-2.99-2.6-7.57.44-10.32 3.08-2.76 6.94-3.21 11.35.85-.27-6.05.82-11.96 1.28-14.68 1.28-7.39 1.5-18.33 6.68-21.49 2.93-1.79 9.15-3.38 12.6-4.3 5.99-1.6 14.31 2.11 20.58 2.05 6.28-.06 12.67 2.88 17.71 5.93 6.02 3.67 6.82 15.74 6.4 22.78h.03l-.02.03h.01l.01-.02z"/>
    <path d="M346.98 136.19c-.82 0-1.61-.01-2.4-.07-10.22-.67-19.79-5.66-24.97-13.03-4.36-6.21-5.43-18.5-6.13-26.64-.07-.53-.1-1.05-.14-1.54-4.59.43-9.24-1.13-11.82-4.04-3.08-3.46-2.83-8.54.52-11.56 2-1.82 5.93-4.07 11.02-.5 0-5.27.86-10.15 1.31-12.64l.04-.19c.27-1.52.49-3.17.71-4.92.91-6.75 1.9-14.43 6.4-17.17 2.96-1.82 8.92-3.37 12.49-4.33l.38-.09c3.78-1 8.25-.06 12.6.85 2.97.63 5.78 1.2 8.24 1.2 5.39-.07 11.52 1.98 18.23 6.06 7.54 4.59 7.03 20.46 6.85 23.61-.32 5.27.15 10.62.61 15.79.35 4.04.71 8.22.71 12.37 0 11.67-3.26 20.83-9.72 27.23-6.13 6.05-15.52 9.64-24.96 9.64h-.01l-.01-.02h.03zm-32.75-43.21c.22 0 .4.07.57.19.22.16.35.38.37.64.07.75.14 1.6.22 2.48.65 7.45 1.73 19.97 5.82 25.78 4.86 6.9 13.87 11.6 23.49 12.22 9.67.63 19.56-2.83 25.82-9.02 6.1-6.03 9.22-14.77 9.22-25.97 0-4.07-.37-8.21-.71-12.22-.46-5.24-.94-10.66-.61-16.04.46-8.18-.82-18.84-5.97-21.99-6.39-3.88-12.18-5.83-17.18-5.77-2.68.04-5.72-.63-8.64-1.23-4.11-.86-8.36-1.76-11.67-.88l-.4.11c-3.46.89-9.24 2.41-11.96 4.08-3.72 2.28-4.68 9.51-5.53 15.87-.22 1.78-.44 3.45-.71 5.01l-.04.19c-.49 2.75-1.51 8.48-1.24 14.3.03.38-.22.71-.56.88-.37.15-.79.07-1.06-.19-3.61-3.3-6.99-3.6-10.04-.85-2.62 2.37-2.79 6.36-.37 9.09 2.36 2.66 6.79 3.98 11.06 3.3h.18l-.01.03h-.02l-.01-.01zm65.13-21.87h.03-.03z"/>
    <path fill="#ACD4F7" d="M302.04 63.76c-5.42-15.36 7.68-38.6 52.09-41.83 34.52-2.51 41.68 13.06 41.17 19.64-.34 4.12-4.44 7.83-8.25 6.71 5.68 2.09 8.85 9.47 6.61 15.31-2.25 5.83-9.47 9.02-15.01 6.59-3.64-1.59-6.14-4.96-9.59-8.34-1.88 3.81-3.54 5.61-7.61 5.01-4.07-.63-10.22-6.82-10.9-11.01-1.72 4.04-7 5.51-11.28 3.88-5.86-2.24-7.43-5.12-9.56-9.29-1.55 4-3.94 8.22-8.61 11.17-7.07 4.49-17.56 6.47-19.06 2.14v.01h.01-.01v.02z"/>
    <path d="M382.66 71.91c-1.55 0-3.05-.32-4.43-.89-2.9-1.27-5.12-3.6-7.46-6.06-.49-.51-.98-1.02-1.46-1.54-1.85 3.33-3.86 4.96-8.01 4.34-3.86-.59-9.15-5.4-11.06-9.68-2.48 2.93-7.18 4.08-11.34 2.48-5.34-2.05-7.35-4.68-9.11-7.9-1.42 3.13-3.79 6.94-8.17 9.71-5.84 3.68-13.57 5.58-17.6 4.26-1.5-.48-2.48-1.37-2.93-2.61-2.45-6.94-1.1-14.88 3.71-21.75 4.85-6.94 17.68-18.95 49.23-21.24 21.28-1.56 31.7 3.77 36.71 8.53 4.43 4.19 5.73 8.99 5.47 12.1-.19 2.59-1.72 5.09-3.97 6.56-.61.39-1.27.69-1.9.89 4.22 3.33 6.19 9.57 4.18 14.79-1.21 3.17-3.84 5.74-7.19 7.1-1.54.62-3.12.92-4.68.92h.01l.01.01h-.01l.01-.01zm-13.59-10.97c.25 0 .5.11.67.27.86.86 1.69 1.7 2.45 2.51 2.33 2.44 4.32 4.54 6.86 5.64 2.26 1 5.02.97 7.57-.04 2.87-1.16 5.12-3.36 6.14-6.05 2.03-5.35-.91-12.22-6.07-14.14-.46-.16-.71-.67-.53-1.13.15-.46.68-.71 1.17-.58 1.24.35 2.6.09 3.86-.71 1.75-1.13 3.01-3.19 3.16-5.2.22-2.68-.98-6.9-4.93-10.69-4.72-4.46-14.67-9.49-35.23-7.99-30.7 2.24-43.11 13.76-47.76 20.46-4.47 6.39-5.76 13.76-3.47 20.17.22.67.79 1.16 1.72 1.47 3.47 1.12 10.61-.69 15.92-4.07 4.85-3.06 7.03-7.6 8.24-10.74.11-.35.46-.59.85-.62.37 0 .74.19.91.51 1.99 3.88 3.42 6.69 9.04 8.85 3.57 1.36 8.46.34 10.03-3.38.15-.36.57-.62 1.01-.55.42.04.78.35.82.75.6 3.77 6.47 9.71 10.11 10.26 3.2.48 4.6-.5 6.59-4.5.14-.26.38-.46.71-.5.04-.01.1-.01.15-.01v-.01l-.01.01h.01zm.67 23.37c.19-1.13-.64-2.24-1.85-2.44-1.24-.2-2.4.58-2.58 1.72-.22 1.16.61 2.25 1.85 2.44 1.21.2 2.37-.58 2.58-1.72zm-31.4.15c.19-1.16-.61-2.24-1.85-2.44-1.21-.2-2.37.58-2.58 1.72-.19 1.16.64 2.24 1.85 2.44 1.24.2 2.4-.58 2.58-1.72zm7.68 37c-3.65 0-7.25-1.68-9.45-4.57-.34-.39-.22-.97.19-1.27.42-.3 1.03-.2 1.35.2 2.25 2.9 6.22 4.37 9.86 3.61.52-.11 1.04.2 1.15.67.1.5-.22 1-.74 1.08-.79.16-1.58.26-2.37.26l.01.01zm6.04-11.4c-.75 0-1.5-.07-2.18-.22-2.4-.48-4.39-1.82-5.47-3.67-.27-.43-.11-1 .35-1.24.46-.23 1.04-.09 1.31.35.82 1.37 2.4 2.41 4.22 2.79 1.61.34 3.46.19 5.47-.42.67-.2 1.42-.48 1.92-.97.6-.63.86-1.68.68-2.83-.15-.97-.56-1.9-.98-2.9l-.22-.48c-2.45-5.83-3.53-12.28-3.12-18.62.04-.5.5-.88 1.03-.85.52.01.94.46.9.95-.4 6.09.64 12.25 3 17.85l.19.46c.44 1.05.91 2.12 1.1 3.33.25 1.7-.18 3.29-1.19 4.31-.79.81-1.83 1.2-2.76 1.48-1.5.43-2.93.67-4.26.67l-.01.01.01.01h.01v-.01zm-37.53-23.31c-.49 0-.91-.35-.95-.81-.22-2.11-.34-3.22-.49-5.27-.03-.51.37-.93.9-.97.52-.06.99.34 1.03.85.15 2.02.22 3.11.46 5.18.07.51-.34.95-.85 1.01h-.1l.01.01h-.01zm-17.52 81.28c-.14 0-.25-.07-.29-.19-1.99-4.96-2.9-10.39-2.63-15.69 0-.16.15-.32.34-.27.18 0 .32.15.32.32-.25 5.2.64 10.55 2.58 15.43.07.15-.03.34-.18.38-.04.01-.07.01-.11.01v.01h-.03zm-7.43-7.97c-.15 0-.29-.11-.32-.27l-.98-7.32c-.03-.16.1-.32.27-.34.18-.04.34.09.35.26l.98 7.33c.03.16-.1.32-.27.34h-.04z"/>
    <path fill="#FFF" d="M424.87 203.97c-10.88 13.71-16.43 30.29-25.07 45.28-2 3.48-4.59 7.16-8.76 8.17-3.68.86-7.9-.92-9.59-4.07-1.35-2.51-1.06-5.55.04-8.14 1.1-2.61 2.96-4.86 4.74-7.11 10.35-12.87 19.93-26.28 28.68-40.11 3.38 1.9 6.73 3.81 9.96 6v-.02z"/>
    <path d="M389.1 258.56c-3.47 0-6.97-1.86-8.5-4.76-1.32-2.51-1.35-5.74 0-8.9 1.12-2.63 2.96-4.92 4.72-7.13l.15-.2c10.28-12.81 19.91-26.28 28.6-40.01.27-.43.86-.58 1.31-.32 3.34 1.87 6.79 3.84 10 6.01.22.15.37.36.4.62.04.23-.04.5-.19.67-6.85 8.63-11.67 18.62-16.32 28.27-2.71 5.61-5.49 11.4-8.68 16.91-2.11 3.64-4.86 7.53-9.36 8.61-.71.16-1.42.23-2.18.23l.01.01h.03v-.01zm26.15-59.32c-8.62 13.54-18.11 26.82-28.25 39.42l-.15.2c-1.71 2.11-3.46 4.3-4.47 6.71-1.13 2.66-1.15 5.37-.07 7.4 1.46 2.75 5.28 4.34 8.5 3.58 3.76-.89 6.24-4.39 8.14-7.72 3.14-5.44 5.92-11.21 8.62-16.78 4.57-9.47 9.28-19.26 15.93-27.86-2.67-1.76-5.49-3.38-8.25-4.95v.01h.01-.01v.01z"/>
    <path fill="#ACD4F7" d="M431.93 200.85c.37 2.24-.35 4.6-1.88 6.36-.53.62-1.19 1.16-2 1.36-.82.2-1.66.01-2.47-.19-5.13-1.36-9.56-4.26-13.89-7.1-1.24-.82-2.5-1.66-3.28-2.88-.6-.92-.85-2-.82-3.06 0-2.95 2.48-6.01 5.76-6.05 1.72 0 3.3.78 4.78 1.56 4.03 2.14 7.9 4.54 11.6 7.14 1.35.95 2.78 2.09 2.25 2.84l-.01.01-.01.01h-.02z"/>
    <path d="M427.28 209.55c-.67 0-1.32-.15-1.96-.32-5.34-1.39-10.04-4.49-14.17-7.22-1.25-.82-2.68-1.76-3.54-3.13-.65-1.01-.99-2.24-.99-3.53.03-3.26 2.78-6.9 6.7-6.94h.07c1.9 0 3.61.82 5.18 1.66 4.05 2.16 7.99 4.59 11.69 7.2 1.15.82 3.23 2.28 2.67 3.72.29 2.4-.5 4.91-2.15 6.8-.79.88-1.61 1.43-2.5 1.65-.34.07-.65.11-.99.11v-.01h-.02zm-13.92-19.34h-.04c-2.75.01-4.81 2.73-4.82 5.13 0 .97.25 1.87.68 2.59.67 1.06 1.87 1.86 3.01 2.61 4.22 2.76 8.58 5.64 13.61 6.97.67.19 1.36.34 1.96.19.5-.12.99-.48 1.51-1.06 1.36-1.56 2-3.67 1.71-5.62-.04-.19 0-.36.07-.53-.1-.19-.46-.65-1.95-1.72-3.65-2.59-7.53-4.96-11.5-7.1-1.42-.75-2.82-1.43-4.26-1.43l.01-.01h.02v-.01z"/>
    <path fill="#FFF" d="M394.19 168.21c3.82 10.43 11.56 19.55 21.13 26.33 12.15 8.6 28.06 13.65 43.2 11.01 21.67-3.75 34.88-16.12 39.49-27.53 7-17.39 2.97-38.04-10.16-52.21-13.15-14.18-35.23-22.64-55.06-18.14-48.73 11.09-42.39 50.1-38.6 60.55h-.01v-.01zm40.72 27.33c26.76 8.14 51.91-7.95 54.49-27.96 1.92-15.11-3.34-27.71-6.47-31.72-5.17-6.67-17.72-19.51-35.23-19.68-21.21-.22-33.55 9.74-38.85 16.91-5.28 7.16-7.68 16.06-6.59 24.61 2.03 16.35 15.42 32.61 32.63 37.84h.01l.01.01-.01-.01z"/>
    <path d="M450.21 207.17c-11.98 0-24.52-4.16-35.45-11.89-10.32-7.32-17.72-16.56-21.46-26.75-2.76-7.53-5.22-24.08 3.01-38.35 6.65-11.56 18.84-19.42 36.24-23.38 19.22-4.37 41.7 3.03 55.98 18.41 13.42 14.5 17.49 35.35 10.36 53.14-4.43 10.97-17.32 24.14-40.22 28.11-2.78.48-5.61.71-8.47.71h.01zm-6.32-99.82c-3.71 0-7.35.38-10.9 1.2-16.86 3.85-28.63 11.4-35.02 22.48-7.9 13.72-5.53 29.65-2.9 36.88 3.54 9.71 10.94 18.91 20.79 25.89 13.12 9.31 28.59 13.26 42.44 10.85 22.14-3.85 34.56-16.45 38.77-26.97 6.9-17.17 2.97-37.3-9.99-51.29-11.18-12.05-27.54-19.04-43.21-19.04v-.02l.02.01zm5.34 91.24c-4.86 0-9.8-.71-14.63-2.18-17.15-5.24-31.15-21.47-33.31-38.61-1.08-8.73 1.39-17.94 6.79-25.24 3.05-4.14 14.92-17.6 39.65-17.33 18.58.19 31.34 14.1 35.97 20.04 3.58 4.62 8.55 17.48 6.63 32.37-1.24 9.61-7.49 18.47-17.13 24.34-7.15 4.37-15.46 6.58-23.98 6.58h.01v.01h-.01zm-14.03-3.91c12.74 3.88 26.22 2.37 36.98-4.19 9.18-5.55 15.08-13.94 16.25-23.02 1.92-14.92-3.38-27.37-6.25-31.08-4.47-5.74-16.76-19.13-34.47-19.32h-.67c-23.34 0-34.52 12.63-37.39 16.55-5.13 6.93-7.49 15.66-6.44 23.97 2.07 16.48 15.5 32.06 32 37.1h-.02zm-19.34 17.67c-.11 0-.22-.06-.29-.16l-2.97-5.35c-.1-.15-.04-.34.14-.42.15-.07.35-.01.42.12l3 5.37c.07.15.03.34-.14.39-.07.04-.1.04-.15.04h-.01l-.01.01zm-2.64 6.24c-.11 0-.25-.07-.29-.2-1.04-2.59-2.18-5.18-3.34-7.72-.07-.16 0-.34.15-.39.18-.07.35 0 .42.16 1.17 2.55 2.33 5.15 3.36 7.75.07.16-.03.34-.19.38-.04.01-.07.04-.11.04l-.01-.01.01-.01h-.01zm-3.05 6.56c-.14 0-.27-.07-.32-.22-.94-3.04-2.18-6.05-3.65-8.92-.07-.15 0-.34.15-.39.15-.07.35-.01.42.12 1.51 2.9 2.75 5.96 3.68 9.03.04.16-.07.34-.22.38h-.1.03zm-3.51 5.97c-.14 0-.25-.09-.29-.22-1.12-3.25-2.37-6.51-3.78-9.65-.07-.15 0-.34.18-.38.15-.07.35 0 .4.16 1.4 3.15 2.71 6.43 3.79 9.7.07.16-.04.34-.22.38-.03 0-.07.01-.1.01l.01.01h.01-.01zm-3.38 7.94c-.14 0-.25-.07-.32-.2l-4.13-12.49c-.07-.16.04-.34.19-.38.18-.06.35.04.4.2l4.14 12.49c.04.16-.04.34-.22.38h-.1.03zm-4.62 6.47c-.14 0-.27-.09-.32-.22l-3.71-11.75c-.07-.16.04-.34.22-.38.18-.06.35.04.4.2l3.71 11.75c.04.16-.04.34-.22.38-.04.01-.07.01-.1.01l.01.01v.01zm-4.86 7.38c-.14 0-.27-.07-.29-.22l-3.64-12.99c-.04-.15.07-.32.22-.36.18-.04.35.06.38.22l3.64 12.99c.04.15-.07.34-.22.36h-.1.01-.01zm-5.99.16c-.14 0-.25-.09-.29-.22l-2.02-6.51c-.07-.15.04-.34.22-.36.18-.06.35.04.38.2l2.02 6.51c.07.15-.04.32-.22.36-.03.01-.07.01-.1.01v.01l.01.01h-.01z"/>
    <path fill="#FFF" d="M376 223.98c4.05-3.72 8.32-7.43 13.61-9.54 5.31-2.06 14.94-.88 14.94-.88l-4.63 6.52s-5.62.97-9.19 5.13c4.88-.27 9.93-.62 14.23-2.66 2.03-.97 8.79-4.14 11.1-4 1.45.09-.22 7.36-14.21 12.25 6.49-2.24 11.02-6.59 11.75-6.16 8.32 4.82-9.86 11.73-11.65 12.8 2.76-.97 10.46-5.79 11.67-3.79 2.82 4.54-9.49 9.13-11.67 10.26 1.96-.74 11.52-7.1 11.15-3.11-.53 5.73-11.6 10.38-15.65 11.98-9.86 3.91-22.74 9.02-29.86 7.29-3.84-.92-7.75-6.16-9.14-12.32-.82-3.6-.27-7.87 2.58-10.48 1.13-1.02 10.88-9.58 14.92-13.3v.01h.02l.03-.01z"/>
    <path d="M370.78 261.34c-1.21 0-2.37-.11-3.39-.36-4.26-1.01-8.39-6.48-9.85-13.02-.78-3.49-.42-8.3 2.86-11.31.38-.35 1.71-1.5 3.42-3.03 3.51-3.11 8.81-7.79 11.54-10.27 4.25-3.91 8.5-7.6 13.93-9.73 5.46-2.14 15.01-1 15.41-.95.34.04.61.23.75.53.14.3.11.63-.07.88l-4.63 6.55c-.14.2-.37.34-.61.38-.04 0-3.76.67-6.9 3.17 3.84-.27 7.9-.78 11.35-2.41 8.96-4.26 10.94-4.12 11.6-4.07.5.01 1.15.38 1.28 1.27.15 1.06-.56 3.06-2.71 5.35 1.36.95 2.03 2.09 1.99 3.36-.1 1.65-1.39 3.21-3.39 4.7.46.12.85.39 1.12.82.57.93.68 1.92.37 2.95-.29.93-.99 1.82-1.87 2.66.07.04.18.07.25.12.44.27.98.82.85 1.96-.4 4.34-5.86 8.63-16.22 12.74-8.35 3.33-19.39 7.72-27.06 7.72l-.01-.03-.03.01.02.02zm27.67-47.18c-2.83 0-6.1.23-8.46 1.16-5.1 2-9.22 5.58-13.32 9.35-2.75 2.51-8.04 7.2-11.56 10.3-1.72 1.52-3.04 2.66-3.39 3.01-2.75 2.48-3 6.62-2.33 9.64 1.28 5.77 4.89 10.78 8.43 11.62 6.85 1.65 19.82-3.49 29.27-7.26 9.37-3.72 14.72-7.72 15.05-11.21.04-.23-.03-.34-.03-.34-.29-.12-1.03.06-1.9.42-2.18 1.36-4.64 2.45-6.39 3.25-.15.07-.32.12-.46.2-.42.22-.79.39-1.06.5-.49.19-1.01-.01-1.21-.46-.22-.43-.04-.95.4-1.17.25-.12.57-.3 1.01-.48.4-.22.9-.48 1.39-.75 1.99-1.08 3.78-2.03 5.31-2.62 1.83-1.13 3.39-2.41 3.79-3.68.18-.53.11-1-.18-1.48-.82-.5-5.24 1.7-7.15 2.63-1.36.67-2.54 1.24-3.39 1.54-.44.16-.98-.04-1.17-.46-.22-.39-.07-.92.37-1.16.29-.19.82-.42 1.66-.81 2.86-1.31 11.54-5.28 11.69-8.3.04-.67-.42-1.34-1.4-1.96-.03.01-.07.01-.07.04-2.3 1.98-5.68 4.04-10.46 5.81-.22.07-.44.15-.67.23-.5.16-1.04-.07-1.21-.55-.19-.48.07-1 .56-1.16.22-.07.42-.16.61-.23 3.51-1.31 6.4-3.21 8.35-4.5.68-.46 1.25-.82 1.71-1.08 2.33-2.03 3.26-3.81 3.36-4.65-1.08.12-3.75.85-10.14 3.88-4.57 2.18-9.9 2.48-14.61 2.76-.37.01-.74-.16-.91-.5-.18-.32-.14-.69.11-1 3.2-3.75 7.93-5.05 9.33-5.37l3.51-4.96c-1.1-.09-2.68-.19-4.44-.19l.03-.01-.01.01h-.04v-.02zM376.03 224z"/>
    <path d="M242.2 272.44c-.42 0-.82-.27-.94-.67-.14-.48.18-.97.67-1.12 28.06-7.16 55.79-16.36 82.43-27.37l1.95-.81c12.33-5.09 25.07-10.38 38.57-9.65.52.01.94.43.91.95-.04.5-.49.88-1.01.85-13.04-.67-25.58 4.5-37.7 9.54l-1.95.81c-26.75 11.04-54.55 20.27-82.7 27.45-.07.01-.15.04-.25.04v-.01l.01-.01h.01z"/>
    <path d="M251.27 269.09c-.07 0-.15-.01-.22-.04-.52-.12-.82-.62-.68-1.1.74-2.75 1.51-5.64 2.33-8.67 3.82-14.11 8.55-31.66 12.86-52.03.11-.5.61-.81 1.13-.71.52.11.85.59.74 1.08-4.35 20.42-9.07 37.99-12.89 52.11-.82 3.04-1.58 5.92-2.33 8.67-.11.42-.5.69-.94.69l-.01-.01v.01z"/>
    <path fill="#FFF" d="M477.29 344.15c1.58-30.84-.65-72.47.52-104.24 50.92.79 102.12 1.78 151.56.29 0 31.6-1.51 78.42 0 103.97-52.72-.13-101.05-2.25-152.08 0l-.01-.01v-.01h.01z"/>
    <path d="M629.39 344.94c-16.86-.03-33.45-.29-49.48-.53-34.88-.5-67.88-1.01-102.54.53-.27.01-.53-.07-.74-.22-.19-.17-.29-.36-.29-.59.85-16.29.61-35.89.38-54.85-.19-16.92-.4-34.39.15-49.4 0-.41.42-.77.95-.77h.03l11.25.2c46.45.74 94.48 1.49 140.26.09.27-.01.52.07.68.22.19.14.32.35.32.57 0 10.22-.15 21.86-.34 34.18-.35 25.81-.68 52.46.34 69.72 0 .22-.1.43-.27.59-.18.17-.42.23-.68.23h.01v.01h-.01l-.02.01zm-100.44-2.59c16.82 0 33.67.23 51 .5 15.7.23 31.94.48 48.45.53-.98-17.34-.6-43.58-.27-69 .15-11.99.32-23.35.34-33.35-45.55 1.35-93.25.6-139.39-.13l-10.3-.17c-.52 14.8-.32 31.96-.11 48.56.22 18.64.46 37.91-.34 54.05 17.15-.74 33.88-.97 50.63-.97v-.03h-.01v.01z"/>
    <path fill="#ACD4F7" d="M568.05 239.32c-.07 7.82-.56 16.49-.56 24.09-8.46-.87-22.53-.77-28.86-.36.65-7.62.6-15.77.9-23.67 7.74.05 26.26.17 28.53-.05v-.01h-.01z"/>
    <path d="M567.5 264.17h-.11c-8.17-.83-22.22-.77-28.68-.36-.27.03-.53-.07-.74-.22-.22-.17-.32-.37-.29-.62.44-5.15.57-10.62.68-15.93.04-2.52.11-5.15.19-7.71.03-.41.44-.77.98-.77 6.49.05 26.18.2 28.41-.03.27-.03.53.05.75.2.19.17.32.36.32.59-.03 3.67-.15 7.57-.27 11.35-.14 4.3-.29 8.71-.29 12.74 0 .22-.11.43-.32.59-.18.13-.4.2-.64.2h.01l.01-.01h-.01l-.01-.02zm-17.07-2.22c5.56 0 11.56.17 16.12.56.03-3.79.14-7.9.27-11.89.11-3.48.22-7.06.27-10.47-3.96.13-15.93.07-26.63 0-.07 2.29-.14 4.63-.18 6.91-.11 5.02-.22 10.19-.61 15.12 2.82-.14 6.67-.23 10.75-.23h-.01.02zm62.31 11.25h-.07c-.53-.03-.94-.4-.9-.84.42-4.91.67-9.88.79-14.79 0-.45.42-.79.98-.78.53 0 .95.36.95.79-.1 4.94-.37 9.96-.79 14.89-.04.41-.46.74-.98.74l.01-.01h.01v-.01zm-8.02-.47h-.07c-.52-.03-.94-.4-.9-.83l.91-14.25c.04-.43.5-.74 1.03-.74.52.03.94.4.9.84l-.91 14.23c-.04.41-.46.74-.98.74h.02v.01zm-7.61.07h-.07c-.53-.05-.94-.43-.86-.87.56-4.77.78-9.64.64-14.46-.03-.43.4-.79.94-.79.56-.03.98.34.99.77.14 4.87-.07 9.78-.64 14.63-.07.41-.46.71-.98.71l-.01.01v.01h-.01zm-103.75 18c-.25 0-.46-.07-.64-.21-.19-.14-.32-.34-.34-.54-.34-6.13-.19-11.72-.03-17.63l.04-1.89c.03-.43.44-.77.98-.77h.03c10.88.11 21.84.07 32.41.07h.11c.27 0 .5.07.68.23.18.17.27.36.27.57-.07 1.63-.14 3.27-.22 4.91-.18 4.67-.37 9.5-.65 14.29-.03.4-.42.74-.94.74-4.6.11-9.36.07-13.96.03-5.84-.05-11.89-.09-17.75.17h-.04v.01l.02.01h.02l.01.01zm.95-19.45-.03 1.11c-.15 5.62-.32 10.95-.03 16.73 5.62-.22 11.34-.17 16.89-.14 4.28.05 8.7.07 12.98-.01.27-4.54.46-9.12.64-13.53.04-1.37.1-2.73.15-4.1-10 .03-20.32.05-30.63-.05l.01-.01h.02z"/>
    <path d="M543.24 259.31c-.15 0-.32-.11-.32-.26-.03-.14.11-.27.32-.27l20.62-.92c.18-.01.34.09.35.23 0 .14-.14.27-.32.29l-20.64.92h-.03l.01.01zm-22.67 25.53h-.03l-20.35-.41c-.19 0-.34-.13-.34-.27.03-.14.18-.26.34-.26l20.38.41c.18 0 .32.13.32.27s-.15.26-.32.26zm-13.76-4.41c-.18 0-.32-.11-.34-.26 0-.14.11-.27.29-.27 4.35-.31 8.72-.45 13.06-.46.18 0 .32.13.32.27s-.14.26-.32.26h-.25c-4.25 0-8.54.17-12.75.46h-.03.02zm12.97-4.64-19.63-.07c-.18 0-.32-.13-.32-.27s.14-.26.34-.26l19.6.07c.19 0 .34.11.34.27 0 .14-.15.26-.34.26h.01z"/>
  </g>
</svg>