<?xml version="1.0" encoding="utf-8"?>
<!-- Generator: Adobe Illustrator 27.5.0, SVG Export Plug-In . SVG Version: 6.00 Build 0)  -->
<svg version="1.1" xmlns="http://www.w3.org/2000/svg" xmlns:xlink="http://www.w3.org/1999/xlink" x="0px" y="0px"
	 viewBox="0 0 500 500" style="enable-background:new 0 0 500 500;" xml:space="preserve">
<g id="BACKGROUND">
	<rect style="fill:#0000;" width="500" height="500"/>
	<path style="fill:#F1F2F2;" d="M163.66,137.459c-0.582-1.729-2.09-2.964-3.864-2.964c-0.54,0-1.054,0.117-1.526,0.325
		c-0.655-1.553-2.08-2.632-3.739-2.632c-0.389,0-0.764,0.063-1.121,0.174c-0.078-0.036-0.154-0.068-0.23-0.103
		c0.041-0.277,0.067-0.56,0.067-0.85c0-2.935-2.163-5.313-4.831-5.313c-0.452,0-0.887,0.073-1.301,0.201
		c-1.214-3.204-4.087-5.457-7.44-5.457c-1.437,0-2.783,0.418-3.951,1.143c-2.829-2.434-6.004-3.45-9.286-3.299
		c0.348-0.989,0.547-2.061,0.547-3.185c0-4.876-3.594-8.829-8.027-8.829c-1.281,0-2.488,0.339-3.563,0.926
		c-1.778-6.809-7.479-11.793-14.241-11.793c-6.468,0-11.965,4.56-13.987,10.914c-0.273-0.031-0.551-0.048-0.832-0.048
		c-2.879,0-5.396,1.672-6.813,4.177c-1.342-1.057-2.982-1.686-4.758-1.686c-3.771,0-6.938,2.807-7.889,6.623
		c-3.01,0.88-5.657,2.668-7.888,5.013c-1.386-1.188-3.124-1.901-5.018-1.901c-4.108,0-7.499,3.334-8.083,7.673
		c-0.605-0.301-1.275-0.472-1.982-0.472c-2.16,0-3.989,1.561-4.606,3.712c-0.503-0.24-1.056-0.374-1.639-0.374
		c-2.222,0-4.029,1.935-4.115,4.357c-0.078,0.02-0.155,0.04-0.232,0.06c-0.573-0.126-1.166-0.194-1.773-0.194
		c-2.878,0-5.435,1.49-7.085,3.802H163.66z"/>
	<path style="fill:#F1F2F2;" d="M454.58,388.787c-0.582-1.729-2.09-2.964-3.864-2.964c-0.54,0-1.054,0.117-1.526,0.325
		c-0.655-1.553-2.08-2.632-3.739-2.632c-0.389,0-0.764,0.063-1.121,0.174c-0.078-0.036-0.153-0.068-0.23-0.103
		c0.041-0.277,0.068-0.56,0.068-0.85c0-2.935-2.163-5.314-4.831-5.314c-0.452,0-0.887,0.073-1.301,0.201
		c-1.214-3.204-4.087-5.457-7.44-5.457c-1.437,0-2.783,0.418-3.951,1.143c-2.829-2.434-6.004-3.45-9.286-3.299
		c0.348-0.989,0.547-2.061,0.547-3.185c0-4.876-3.594-8.829-8.027-8.829c-1.281,0-2.488,0.339-3.563,0.926
		c-1.778-6.809-7.478-11.793-14.241-11.793c-6.468,0-11.965,4.559-13.987,10.914c-0.273-0.031-0.551-0.047-0.832-0.047
		c-2.879,0-5.396,1.672-6.813,4.177c-1.342-1.057-2.982-1.686-4.758-1.686c-3.771,0-6.938,2.807-7.889,6.623
		c-3.01,0.88-5.657,2.668-7.888,5.013c-1.386-1.187-3.124-1.901-5.018-1.901c-4.108,0-7.499,3.333-8.083,7.673
		c-0.605-0.3-1.275-0.472-1.982-0.472c-2.161,0-3.989,1.561-4.607,3.713c-0.503-0.24-1.056-0.374-1.639-0.374
		c-2.222,0-4.029,1.935-4.115,4.357c-0.078,0.02-0.155,0.04-0.232,0.06c-0.573-0.126-1.166-0.194-1.773-0.194
		c-2.878,0-5.435,1.49-7.084,3.802H454.58z"/>
	<path style="fill:#F1F2F2;" d="M196.041,440.239c0-3.484-9.209-10.494-18.013-6.817c-2.333-2.737-6.417-4.554-11.068-4.554
		c-0.262,0-0.523,0.007-0.781,0.019c-0.169-0.478-0.363-0.944-0.58-1.398c-2.221-4.631-6.939-7.837-12.417-7.837
		c-2.657,0-5.13,0.765-7.234,2.068c-1.93-2.378-4.871-3.901-8.173-3.901c-0.456,0-0.903,0.039-1.343,0.095
		c-0.257,0.033-0.513,0.066-0.765,0.117c-0.133-1.072-0.421-2.094-0.845-3.046c-1.679-3.766-5.448-6.396-9.837-6.396
		c-0.648,0-1.28,0.066-1.897,0.177c-0.21,0.037-0.417,0.081-0.623,0.132c-0.246-1.184-0.635-2.316-1.15-3.376
		c-2.372-4.897-7.39-8.276-13.197-8.276c-5.085,0-9.565,2.592-12.193,6.524c-1.523-0.58-3.17-0.912-4.897-0.912
		c-7.17,0-13.056,5.478-13.713,12.477c-0.323-0.02-0.647-0.032-0.976-0.032c-7.799,0-14.295,5.569-15.733,12.947
		c-1.288,0.414-2.468,0.98-3.505,1.665c-1.771-0.668-3.77-1.046-5.888-1.046c-6.125,0-11.271,3.147-12.722,7.403
		c-6.537,0.502-11.809,2.009-14.038,3.968H196.041z"/>
	<path style="fill:#F1F2F2;" d="M448.109,79.029c0-3.484-9.209-10.494-18.013-6.817c-2.333-2.737-6.417-4.554-11.068-4.554
		c-0.262,0-0.523,0.007-0.781,0.019c-0.169-0.478-0.363-0.944-0.58-1.398c-2.22-4.631-6.938-7.837-12.417-7.837
		c-2.657,0-5.13,0.765-7.234,2.068c-1.93-2.378-4.871-3.9-8.173-3.9c-0.457,0-0.903,0.039-1.343,0.095
		c-0.257,0.033-0.513,0.066-0.764,0.117c-0.133-1.072-0.421-2.095-0.845-3.046c-1.679-3.766-5.448-6.396-9.837-6.396
		c-0.648,0-1.28,0.066-1.897,0.177c-0.21,0.037-0.417,0.081-0.623,0.132c-0.246-1.184-0.635-2.316-1.15-3.376
		c-2.372-4.897-7.39-8.276-13.197-8.276c-5.085,0-9.565,2.592-12.193,6.524c-1.523-0.58-3.17-0.912-4.897-0.912
		c-7.17,0-13.056,5.478-13.713,12.477c-0.323-0.02-0.647-0.032-0.976-0.032c-7.799,0-14.295,5.569-15.734,12.947
		c-1.288,0.414-2.468,0.98-3.505,1.665c-1.771-0.668-3.77-1.046-5.888-1.046c-6.125,0-11.271,3.147-12.722,7.403
		c-6.537,0.502-11.809,2.009-14.039,3.968H448.109z"/>
</g>
<g id="OBJECTS">
	<g>
		<path style="fill-rule:evenodd;clip-rule:evenodd;fill:#FBD2C0;" d="M368.272,142.812c0.041-0.265,0.388-1.088,0.645-1.272
			c0.731-0.524,3.479,0.209,3.017,3.104c0,0,1.153-0.207,1.85,0.169c0.697,0.376,0.872,2.16,0.872,2.16s1.105,0.955,1.31,1.711
			c0.206,0.756-0.696,1.944-0.696,1.944s0.495,1.241,0.187,1.936c-0.308,0.694-1.734,1.922-2.442,2.057
			c-0.708,0.135-1.857,0.321-1.857,0.321c-1.293,1.282-4.248,0.334-4.248,0.334l-4.249,2.973c0,0-7.06-4.553-6.458-4.785
			c0.601-0.232,4.912-4.035,5.178-4.897c0.266-0.862,0.951-3.682,1.63-4.427c0.68-0.746,2.51-2.576,2.997-2.327
			C366.495,142.062,368.272,142.812,368.272,142.812z"/>
		<path style="fill-rule:evenodd;clip-rule:evenodd;fill:#EDC1AF;" d="M371.254,142.103c1.07,0.825,0.637,2.536,0.68,2.541
			c-0.925,1.152-1.208,1.821-2.699,3.188c-0.123,0.277-1.447,1.121-1.842,1.271c-0.395,0.15-0.403,1.542,1.056,1.395
			c1.697-0.171,6.412-2.9,5.944-4.762c-0.026-0.104,0.258,0.83,0.263,1.236c-0.063,0.477-1.703,1.733-2.556,2.385
			c-0.413,0.315-1.543,0.987-2.295,1.255c-0.933,0.332-0.988,0.462-1.07,0.588c-0.158,0.245,0.061,0.99,0.472,1.43
			c0.411,0.44,1.136,0.078,1.765-0.002c0.628-0.079,3.853-1.795,4.969-3.303c0,0-0.252,0.853-0.669,1.302
			c-0.443,0.343-3.966,2.241-4.217,2.337c-0.128,0.049-0.956,0.175-1.347,0.48c-0.371,0.29-0.176,1.045-0.141,1.25
			c0.071,0.422,1.592,0.245,1.592,0.245c-1.293,1.282-4.829,1.019-4.829,1.019l-3.145,2.484c0,0-0.601-0.4-1.275-0.91l-1.729-1.634
			c0.008-0.209,3.572-0.932,3.572-0.932c0.176-1.01-1.826-2.007-2.508-3.987c-0.051-0.148,2.383,3.406,4.425-0.129
			c0.393-0.681,0.025-2.024-0.085-2.188c-0.109-0.165-0.171-0.899-0.14-1.325c0.011-0.15,1.115-2.126,1.607-2.782
			c0.464-0.618,0.652,0.421,0.908,0.236l1.712,2.039c0,0-1.757,0.194-2.691-1.122c-0.128,0.176-1.197,2.486-1.141,2.602
			c0.056,0.116,0.719,0.493,0.96,0.551c0.24,0.057,2.017-0.95,2.35-1.373C370.358,145.886,372.565,143.835,371.254,142.103z"/>
		<path style="fill-rule:evenodd;clip-rule:evenodd;fill:#FBD2C0;" d="M361.011,151.509c0.26,0.331,3.74,3.99,6.003,4.179
			c2.262,0.189,2.845-0.389,4.006-0.622c-0.334,0.392-2.57,1.515-4.243,1.085c-1.857,1.395-3.663,2.536-3.755,2.846
			c-0.163,0.552-6.252-4.153-5.903-4.562C357.466,154.027,361.011,151.509,361.011,151.509z"/>
		<path style="fill-rule:evenodd;clip-rule:evenodd;fill:#EC2027;" d="M280.924,189.611c-15.927-0.699-47.689,12.806-61.914,17.759
			c-21.746,7.569-40.819,4.236-54.103,6.892c-13.283,2.656-19.723,6.99-19.723,6.99s16.089,4.905,19.602,25.657
			c3.513,20.751,1.089,33.802,16.499,43.14c15.411,9.338,31.564,2.459,43.179,8.8c11.616,6.343,21.471,23.991,21.529,22.661
			c0.209-4.777,38.956-47.822,59.337-123.079C295.893,196.063,287.546,189.902,280.924,189.611z"/>
		<path style="fill-rule:evenodd;clip-rule:evenodd;fill:#DF2328;" d="M266.614,248.933c-4.41,5.536-34.538,38.546-32.078,37.497
			c2.461-1.05,7.611-0.338,9.53,3.071c1.919,3.408,5.131,6.032,5.131,6.032s31.497-47.452,30.534-48.887
			C278.766,245.212,266.614,248.933,266.614,248.933z"/>
		<path style="fill-rule:evenodd;clip-rule:evenodd;fill:#DF2328;" d="M261.199,221.275c-5.706,2.903-64.691,53.995-64.691,53.995
			s1.066,6.137,8.082,8.225c7.016,2.088,15.391-0.866,15.391-0.866l38.708-56.661L261.199,221.275z"/>
		<path style="fill-rule:evenodd;clip-rule:evenodd;fill:#DF2328;" d="M253.344,208.226c-10.444,5.15-80.561,14.768-77.959,16.141
			c2.602,1.372,16.635,5.548,13.635,11.79c-3,6.243-3.051,13.941-1.064,13.328C189.943,248.87,253.344,208.226,253.344,208.226z"/>
		<path style="fill-rule:evenodd;clip-rule:evenodd;fill:#1A1A1A;" d="M183.28,317.521c-0.669,1.213-4.231,4.06-5.287,6.219
			c-1.002,1.119-2.732,5.977-3.895,10.966c-0.764,6.63,4.773,12.086,7.502,11.187c2.472-6.443,5.882-19.479,8.338-22.076l0-0.001
			L183.28,317.521z"/>
		<path style="fill-rule:evenodd;clip-rule:evenodd;fill:#1A1A1A;" d="M265.702,306.258l-6.304,5
			c0.576,8.15,2.827,18.73,13.35,20.733c1.232,0.235-1.876-17.844-1.031-19.416L265.702,306.258z"/>
		<path style="fill-rule:evenodd;clip-rule:evenodd;fill:#333333;" d="M249.652,247.703c-7.67,7.251-18.283,20.813-29.723,31.788
			c-14.546,13.955-32.214,25.735-38.947,37.941l9.972,7.754c10.128-10.71,23.101-20.782,35.417-28.764
			c13.945-9.039,26.435-18.542,35.907-24.533c4.061,1.727,22.246,9.02,25.596,9.896c-0.176,0.211-24.041,22.299-24.472,23.765
			l8.534,8.968c1.553-2.457,35.695-24.641,35.967-35.364C308.042,272.153,291.229,260.285,249.652,247.703z"/>
		<path style="fill-rule:evenodd;clip-rule:evenodd;fill:#242424;" d="M213.066,291.142l0.812,4.438l3.168,0.409
			c0,0,2.033,1.6,2.429,1.63c0.396,0.03,20.34-33.83,20.34-33.83l-2.608-2.367L213.066,291.142z"/>
		<path style="fill-rule:evenodd;clip-rule:evenodd;fill:#1C1C1C;" d="M237.206,261.421c-1.62-1.07-37.342-18.161-38.544-17.649
			c-1.201,0.511-19.238,26.663-19.202,27.613c0.036,0.949,35.381,24.828,34.442,24.235
			C212.964,295.03,237.206,261.421,237.206,261.421z"/>
		<path style="fill-rule:evenodd;clip-rule:evenodd;fill:#F2F2F2;" d="M362.31,155.28c0,0.07,0.691,6.106-14.029,17.496
			c-14.91,11.53-32.241,23.965-33.891,25.025c-1.64,1.06-7.528,5.377-7.528,5.377S285.94,246.79,286.4,246.32
			c0.05-0.05,0.34-0.47,0.83-1.19c-1.24,2.48-2.39,4.97-3.4,7.44c-0.68,1.65-2.07,6.99-5.59,6.53c-5.12-0.67-8.24-0.95-11.24-1.66
			c0,0,0,0,0-0.01c-2-4.34-10.88-15.73-8.08-24c3.5-10.37,13.75-32.37,14.05-33.04c-0.29,0.28-4.82,4.84-7.41,5.85
			c-2.66,1.03-14.23,8.45-22.69,15.03c-6.45,5.03-13.6,13.64-16.72,17.96c-2.28-0.95-5.24-2.31-5.24-2.31
			c3.54-6.6,19.12-23.77,20.13-24.9c1.8-2.01,20.15-17.41,28.13-19.5c0,0,7.69-1.41,9.95-1.23c0,0,19.45,1.82,26.4-1.31
			c8.11-3.66,16.85-9.93,23.17-14.44c4.6-3.28,21.63-17.01,30.28-24.34L362.31,155.28z"/>
		<path style="fill-rule:evenodd;clip-rule:evenodd;fill:#E6E6E6;" d="M267.25,257.43c-4.5-1.12-8.19-3.3-17.6-9.73
			c-7.15-4.88,16.25-30.64,17.95-39.01c1.52-1.63-13.05,6.37-17.86,10.83c0,0-11.17,10.65-21.03,20.6
			c-0.03,0.12-1.16-0.31-2.55-0.89c3.12-4.32,11.985-19.392,39.219-33.416c2.471-1.273,7.361-5.144,7.651-5.424
			c-0.3,0.67-10.13,22.39-13.63,32.76C256.6,241.42,264.55,253.09,267.25,257.43z"/>
		<path style="fill-rule:evenodd;clip-rule:evenodd;fill:#D1D3D4;" d="M300.034,192.009c0.586,1.766,3.919,3.837,3.792,6.432
			c0,0-5.285,0.064-9.144-3.518c-0.05-0.678-0.28-1.622-0.524-2.498c-0.358-1.288-0.746-2.431-0.639-2.371
			C293.965,190.3,300.034,192.009,300.034,192.009z"/>
		<path style="fill-rule:evenodd;clip-rule:evenodd;fill:#FBD2C0;" d="M227.692,238.994c0.556,0.191,0.553-0.602,1.761,0.117
			c1.208,0.719,4.719,5.448,4.887,6.644c0.169,1.196-0.228,2.144-1.459,2.497c-1.232,0.355-2.861,0.892-4.171-0.876
			C227.401,245.608,227.692,238.994,227.692,238.994z"/>
		<path style="fill-rule:evenodd;clip-rule:evenodd;fill:#1A1A1A;" d="M227.722,258.189c0.858-1.734,7.348-7.58,2.077-10.901
			c-14.78-9.31-21.548,2.186-21.437,2.226l3.168,1.187c0,0,2.665-3.215,4.126-3.913c3.431-1.637,13.257,1.688,13.185,4.326
			c-0.052,1.885-3.998,5.314-3.777,5.602C225.286,257.005,227.722,258.189,227.722,258.189z"/>
		<path style="fill-rule:evenodd;clip-rule:evenodd;fill:#FBD2C0;" d="M220.912,236.924c-1.247,0.211-0.713,1.388-3.415,5.11
			c-1.407,3.095-0.635,7.397,1.545,7.23c0.153,1.105,2.403,1.817,3.367,1.836c0.51,1.087,3.373,1.318,4.071,0.954
			c0.827,0.737,2.095,0.84,2.837,0.2c2.205-1.117,2.874-4.009,3.002-7.672C232.511,239.204,225.601,236.133,220.912,236.924z"/>
		<path style="fill-rule:evenodd;clip-rule:evenodd;fill:#292929;" d="M230.711,263.547c2.937-0.549,5.121-0.967,5.633-1.064
			c0.075-0.015,0.114-0.023,0.114-0.023c0.479-0.667,0.748-1.039,0.748-1.039c-0.227-0.15-1.12-0.613-2.495-1.298
			c-8.446-4.21-35.015-16.791-36.048-16.351c-0.156,0.067-0.596,0.565-1.244,1.386c0,0-0.621,15.407,1.465,18.039
			C207.987,270.418,219.786,265.592,230.711,263.547z"/>
		<g>
			<polygon style="fill-rule:evenodd;clip-rule:evenodd;fill:#BABCBE;" points="205.012,265.247 201.816,269.505 199.067,268.011 
				202.162,263.913 			"/>
			<polygon style="fill-rule:evenodd;clip-rule:evenodd;fill:#808184;" points="204.538,265.366 202.258,264.298 199.53,267.911 
				201.73,269.107 			"/>
		</g>
		<path style="fill-rule:evenodd;clip-rule:evenodd;fill:#292929;" d="M236.458,262.461c0,0,1.398,1.314,2.673,2.487
			c0.484-0.72,0.754-1.125,0.754-1.125l-2.679-2.402L236.458,262.461z"/>
		
			<rect x="182.685" y="266.257" transform="matrix(0.5731 -0.8195 0.8195 0.5731 -88.3517 364.2793)" style="opacity:0.57;fill-rule:evenodd;clip-rule:evenodd;fill:#FFFFFF;" width="245.579" height="1.373"/>
		<path style="fill-rule:evenodd;clip-rule:evenodd;fill:#604F4D;" d="M310.475,147.755c1.271,0.465,3.013,1.046,3.837,3.654
			c0.824,2.608,1.958,8.865-0.114,10.98c-2.072,2.114-6.464-10.304-6.34-10.674C307.983,151.345,310.475,147.755,310.475,147.755z"
			/>
		<path style="fill-rule:evenodd;clip-rule:evenodd;fill:#FBC9B4;" d="M284.032,182.059c0.265,0.442,1.9,2.165,1.723,5.789
			c-0.177,3.624-2.872,5.214-2.43,5.391c0.268,0.107,5.715,0.294,8.743,0.527c0.469-0.099,1.519,0.268,2.018,0.4l5.554,1.542
			l-0.088-1.989c0,0-0.23-0.834-1.423-3.22s-1.193-6.805-1.193-6.805L284.032,182.059z"/>
		<path style="fill-rule:evenodd;clip-rule:evenodd;fill:#FBD2C0;" d="M309.969,149.574c-3.97-4.512-23.185-16.605-35.639,1.647
			c-15.895,23.296,8.41,40.205,26.86,38.226c11.911-1.277,19.906-10.398,13.007-27.059
			C315.297,156.061,314.205,154.646,309.969,149.574z"/>
		<path style="fill-rule:evenodd;clip-rule:evenodd;fill:#594A48;" d="M271.171,152.922c0.323-7.345,7.919-13.578,14.643-14.717
			c9.185-1.555,13.552-0.635,19.172-4.604c0,0-0.479,2.944,0.037,2.796c1.946-0.557,4.793-2.375,7.942-6.139
			c0.038,0.328,7.547,7.217,0.623,17.376c1.751-0.925,2.616-1.743,2.616-1.743s-0.121,0.421-1.833,2.819
			c-2.886,4.042-11.788,9.555-16.611,8.361c-0.472-0.117,2.833,1.369,2.833,1.369c-4.456,2.569-11.884,2.804-17.031,0.879
			c-0.151,0.09-0.275,0.185-0.362,0.285c-4.343,5,1.565,13.696-0.517,14.749c-1.722,0.871-5.422-5.377-7.135-5.347
			c-1.713,0.03-3.327,0.684-3.345,3.624c-0.018,2.94,10.751,13.202,10.751,13.202C267.177,182.271,259.637,158.78,271.171,152.922z"
			/>
		<path style="fill-rule:evenodd;clip-rule:evenodd;fill:#604F4D;" d="M312.965,130.437c0.066,0.352,7.534,7.233,0.622,17.373
			c1.751-0.925,2.616-1.743,2.616-1.743s-0.121,0.421-1.833,2.819c-2.886,4.042-11.788,9.554-16.611,8.36
			c-0.472-0.117,2.833,1.369,2.833,1.369c-4.456,2.569-11.884,2.804-17.031,0.879c0,0-7.161-2.533-7.672-2.493
			c-0.511,0.041,1.513-0.377,4.096-1.507c2.584-1.13,7.266-4.329,8.018-5.212c0.753-0.882-1.728,4.147-2.273,4.396
			c-0.546,0.249,4.022-1.141,10.205-4.871c6.182-3.729,9.709-8.533,9.684-8.839c-0.024-0.307-1.267,6.064-1.498,6.391
			c-0.231,0.327,7.033-4.671,8.069-10.408C313.193,131.394,312.979,130.488,312.965,130.437z"/>
		<g>
			<path style="fill-rule:evenodd;clip-rule:evenodd;fill:#404041;" d="M296.185,164.919c1.242-0.015,2.261,1.014,2.276,2.298
				c0.015,1.283-0.98,2.335-2.222,2.35c-1.242,0.015-2.261-1.014-2.276-2.298C293.948,165.986,294.943,164.934,296.185,164.919z"/>
			<path style="fill-rule:evenodd;clip-rule:evenodd;fill:#FFFFFF;" d="M297.118,165.354c0.502-0.006,0.914,0.41,0.92,0.928
				c0.006,0.519-0.396,0.944-0.898,0.95c-0.502,0.006-0.914-0.41-0.92-0.929C296.214,165.785,296.616,165.36,297.118,165.354z"/>
		</g>
		<g>
			<path style="fill-rule:evenodd;clip-rule:evenodd;fill:#404041;" d="M310.536,161.867c1.116-0.013,2.032,0.911,2.045,2.064
				c0.013,1.153-0.88,2.098-1.996,2.111c-1.116,0.013-2.032-0.911-2.045-2.065C308.526,162.825,309.42,161.88,310.536,161.867z"/>
			<path style="fill-rule:evenodd;clip-rule:evenodd;fill:#FFFFFF;" d="M311.374,162.257c0.451-0.005,0.821,0.368,0.826,0.834
				c0.005,0.466-0.356,0.848-0.807,0.853c-0.451,0.005-0.821-0.368-0.826-0.834C310.562,162.645,310.923,162.263,311.374,162.257z"
				/>
		</g>
		<path style="fill-rule:evenodd;clip-rule:evenodd;fill:#FBD2C0;" d="M275.031,179.646c0.944,0.473,1.707,0.955,2.424,1.064
			c6.304,0.954,2.241-8.627-0.519-10.999C270.705,164.357,265.213,174.73,275.031,179.646z"/>
		<path style="fill-rule:evenodd;clip-rule:evenodd;fill:#E3B4A4;" d="M274.591,170.409c-3.28-1.275-5.049,4.624-0.097,7.377
			c2.276,1.266,2.99,0.823,3.683,0.001c0.693-0.822,0.767-2.242-0.723-2.714c-1.49-0.472-1.51-1.259-1.214-1.796
			c0.296-0.537,0.546-0.853,0.01-1.556C275.715,171.019,274.591,170.409,274.591,170.409z"/>
		<path style="fill-rule:evenodd;clip-rule:evenodd;fill:#D6A091;" d="M306.963,173.868c-1.36,0.364-3.052-0.6-3.05-0.601
			c-0.285-0.532,0.01-2.108,0.172-2.674c0.053-0.185-0.065,1.651,0.062,2.134c0.105,0.4,0.55,0.339,0.701,0.306l0,0l0.002-0.001
			l1.761-0.446c0.264-0.057,2.5-0.54,2.723-0.593C309.335,171.993,308.345,173.587,306.963,173.868z"/>
		<path style="fill-rule:evenodd;clip-rule:evenodd;fill:#604F4D;" d="M305.673,162.116c-0.154,0.147-0.602-0.282-0.589-0.577
			c0.035-0.792,1.198-2.447,3.822-3.128c2.382-0.618,5.894,0.071,5.444,1.568C314.176,160.558,310.119,157.862,305.673,162.116z"/>
		<path style="fill-rule:evenodd;clip-rule:evenodd;fill:#A9ABAE;" d="M299.55,193.719c0,0,0.584-1.728,0.484-1.71
			c-0.1,0.018-1.449-0.574-1.449-0.574L299.55,193.719z"/>
		<polygon style="fill-rule:evenodd;clip-rule:evenodd;fill:#333333;" points="297.546,195.707 300.567,194.246 301.191,197.175 
			298.666,199.394 		"/>
		<path style="fill-rule:evenodd;clip-rule:evenodd;fill:#E6E6E6;" d="M300.034,192.009c-0.1,0.018-0.484,1.71-0.484,1.71
			s2.77,8.276,2.77,8.143c0-0.132,2.457-3.87,2.457-3.87C303.933,197.064,300.505,191.924,300.034,192.009z"/>
		<path style="fill-rule:evenodd;clip-rule:evenodd;fill:#A9ABAE;" d="M290.352,192.923c0.486,0,3.338-0.403,3.338-0.403
			l-0.077,1.429c0,0-0.366,4.144-0.587,3.835c-0.221-0.309-3.292-2.895-3.292-2.895L290.352,192.923z"/>
		<path style="fill-rule:evenodd;clip-rule:evenodd;fill:#333333;" d="M297.136,202.209c-2.743,7.309-16.185,57.28-16.185,57.28
			l-9.526,7.261l-3.472-11.383c0,0,20.218-48.606,24.453-54.464c-0.286-0.706-1.394-2.802-1.3-3.08
			c0.204-0.599,1.008-2.836,2.506-3.874l6.026,1.758c0.014,1.441,0.199,3.582,0.058,4.464
			C299.608,200.724,298.029,201.705,297.136,202.209z"/>
		<path style="fill:#EC2027;" d="M266.804,192.268c0,0,2.199,0.999,6.796,1.979c4.597,0.98,14.869,2.059,14.829,1.819
			c-0.04-0.24,3.188-2.693,3.028-2.895c-0.16-0.202-7.744-1.583-10.942-2.342c-3.198-0.76-7.235-0.88-9.953,0
			C267.844,191.708,266.804,192.268,266.804,192.268z"/>
		<path style="fill-rule:evenodd;clip-rule:evenodd;fill:#FBD2C0;" d="M368.272,142.812c0.38,0.285,2.485,2.96,2.402,3.502
			c-0.178,1.162-4.197,0.272-3.621-1.758c0.007-0.026,0.151-0.93,0.502-1.428C367.777,142.813,368.269,142.812,368.272,142.812z"/>
		<path style="fill-rule:evenodd;clip-rule:evenodd;fill:#A15641;" d="M310.707,176.952c-3.387,0.952-10.737,3.432-14.332,1.146
			C295.487,188.216,312.7,187.802,310.707,176.952z"/>
		<path style="fill-rule:evenodd;clip-rule:evenodd;fill:#F05D66;" d="M307.139,184.605c-2.863-3.126-7.793-2.881-9.967-2.483
			c0.222,0.383,0.483,0.733,0.776,1.049c0.08,0.086,0.163,0.171,0.248,0.252C300.44,185.576,304.274,185.968,307.139,184.605z"/>
		<path style="fill-rule:evenodd;clip-rule:evenodd;fill:#FFFFFF;" d="M301.109,181.251c2.541-0.02,8.453-1.038,8.697-1.605
			c0.16-0.373-0.092-1.572-0.285-2.352c-3.383,0.985-8.88,2.552-12.257,1.248c0.125,0.683,0.306,1.464,0.384,1.711
			C297.797,180.723,298.568,181.271,301.109,181.251z"/>
		
			<rect x="55.444" y="259.983" transform="matrix(0.5731 -0.8195 0.8195 0.5731 -143.5007 245.7052)" style="opacity:0.57;fill-rule:evenodd;clip-rule:evenodd;fill:#FFFFFF;" width="217.288" height="1.215"/>
		
			<rect x="64.65" y="275.555" transform="matrix(0.5731 -0.8195 0.8195 0.5731 -146.3578 271.5224)" style="opacity:0.57;fill-rule:evenodd;clip-rule:evenodd;fill:#FFFFFF;" width="245.579" height="1.373"/>
		
			<rect x="82.515" y="207.311" transform="matrix(0.5731 -0.8195 0.8195 0.5731 -98.1901 227.0944)" style="opacity:0.57;fill-rule:evenodd;clip-rule:evenodd;fill:#FFFFFF;" width="172.729" height="0.966"/>
		
			<rect x="132.784" y="328.756" transform="matrix(0.5731 -0.8195 0.8195 0.5731 -166.8434 338.441)" style="opacity:0.57;fill-rule:evenodd;clip-rule:evenodd;fill:#FFFFFF;" width="217.288" height="1.215"/>
		<path style="fill-rule:evenodd;clip-rule:evenodd;fill:#604F4D;" d="M290.622,165.433c-0.16,0.153-0.627-0.294-0.613-0.601
			c0.036-0.824,1.246-2.546,3.976-3.254c2.478-0.643,6.132,0.074,5.664,1.631C299.467,163.813,295.247,161.008,290.622,165.433z"/>
		<path style="fill-rule:evenodd;clip-rule:evenodd;fill:#604F4D;" d="M271.171,152.922c-6.239,3.169-6.897,11.5-3.688,19.043
			c-0.336-1.987,0.022-2.727,0.022-2.727l1.414,0.707c0,0-0.442-0.928-1.326-3.668c-0.884-2.74-0.486-5.391-0.486-5.391
			s1.944,1.326,1.989,1.547c0.044,0.221-0.309-1.591,0.486-5.038C270.377,153.948,271.171,152.922,271.171,152.922z"/>
		<path style="fill-rule:evenodd;clip-rule:evenodd;fill:#E6E6E6;" d="M365.12,158.72c-7.98,7.99-19.63,18.68-30.32,26.73
			c-10.09,7.61-19.28,12.59-25.58,19.56c-3.48,9.98-14.45,24.98-21.99,40.12c-0.49,0.72-0.78,1.14-0.83,1.19
			c-0.46,0.47,21.29-44.87,21.29-44.87s0,0,1.64-1.06c1.65-1.06,22.121-15.789,37.031-27.319
			c14.72-11.39,15.949-17.721,15.949-17.791c0,0,0,0,0.01,0.01L365.12,158.72z"/>
		<path style="fill:#333333;" d="M292.174,198.441c-0.069-0.156-2.844-3.832-2.844-3.832l1.145-2.089l3.137,1.429L292.174,198.441z"
			/>
		<path style="fill-rule:evenodd;clip-rule:evenodd;fill:#E6E6E6;" d="M293.69,192.52c-1.004,0.507-3.181,4.147-4.965,6.078
			c0,0-5.749-3.723-9.607-7.305c1.333-1.366,3.704-3.647,3.884-3.548C283.446,187.993,293.69,192.52,293.69,192.52z"/>
	</g>
</g>
</svg>
