<svg width="736" height="50" xmlns="http://www.w3.org/2000/svg" xmlns:svg="http://www.w3.org/2000/svg" enable-background="new 0 0 736 736" version="1.1" xml:space="preserve">
 <g class="layer">
  <title>Layer 1</title>
  <path d="m277.69,11.78c38.02,-1.52 75.14,-2.38 112.43,-2.72c3.77,-0.04 8.6,-0.35 10.18,1.07c1.67,1.48 -3.25,1.93 -6.32,2.56c-3.51,0.71 -7.21,1.34 -13.65,2.53c15.25,0.71 27.22,-0.34 39.06,-0.81c87,-3.41 174.26,-4.65 261.89,-3.03c4.43,0.08 9.59,-0.17 12.66,1.32c-1.18,1.67 -5.56,1.38 -9.26,1.33c-110.99,-1.46 -221.16,0.62 -330.53,6.48c-4.29,0.23 -10.21,1.04 -12.56,-0.71c-2.52,-1.84 4.03,-2.25 7.68,-2.94c7.24,-1.38 14.76,-2.63 24.63,-4.38c-25.9,0.04 -48.93,0.75 -71.91,1.44c-88.41,2.63 -175.32,7.63 -261,14.59c-4.15,0.34 -9.05,1.28 -12.02,-0.57c0.64,-1.24 4.01,-1.46 6.91,-1.72c78.82,-6.92 159.08,-11.7 241.81,-14.43z" fill="#ff2200" id="svg_1" opacity="1"/>
 </g>
</svg>