<svg width="750" height="500" xmlns="http://www.w3.org/2000/svg" xmlns:svg="http://www.w3.org/2000/svg" enable-background="new 0 0 750 500" version="1.1" xml:space="preserve">
 <g class="layer">
  <title>Layer 1</title>
  <g id="svg_3" transform="matrix(1 0 0 1 0 0)">
   <g id="svg_4">
    <rect fill="#FAFAFA" height="104.45" id="svg_5" width="172.54" x="-227.94" y="46.49"/>
   </g>
  </g>
  <g id="svg_6" transform="matrix(1 0 0 1 0 0)">
   <g id="svg_7">
    <g id="svg_8">
     <path d="m-55.4,150.94c0,0 -0.02,-0.65 -0.02,-1.88c-0.01,-1.24 -0.02,-3.07 -0.03,-5.45c-0.01,-4.8 -0.02,-11.84 -0.06,-20.89c-0.02,-18.07 -0.07,-44.17 -0.11,-76.23l0.22,0.24c-46.03,0.02 -106.5,0.05 -172.52,0.07l-0.01,0l0.29,-0.31c-0.01,36.94 -0.02,72.27 -0.02,104.45l-0.27,-0.29c50.49,0.06 93.58,0.11 124.08,0.14c15.25,0.04 27.35,0.06 35.64,0.07c4.15,0.02 7.35,0.04 9.51,0.04c1.07,0.01 1.89,0.01 2.45,0.02c0.55,0 0.85,0.01 0.85,0.01s-0.28,0.01 -0.82,0.02c-0.55,0 -1.36,0 -2.42,0.01c-2.16,0.01 -5.34,0.02 -9.46,0.04c-8.28,0.02 -20.36,0.05 -35.59,0.08c-30.53,0.04 -73.7,0.08 -124.25,0.14l-0.28,0l0,-0.3c0,-32.18 -0.01,-67.51 -0.01,-104.45l0,-0.31l0.29,0l0.01,0c66.02,0.02 126.5,0.06 172.52,0.07l0.22,0l0,0.24c-0.06,32.13 -0.09,58.26 -0.12,76.38c-0.02,9.02 -0.04,16.05 -0.06,20.83c-0.01,2.37 -0.02,4.17 -0.02,5.41c-0.01,1.22 -0.02,1.83 -0.02,1.83z" fill="#E0E0E0" id="svg_9"/>
    </g>
   </g>
  </g>
  <g id="svg_10">
   <g id="svg_11">
    <rect fill="#E0E0E0" height="26.41" id="svg_12" width="24.39" x="24.15" y="134.38"/>
   </g>
  </g>
  <g id="svg_13">
   <g id="svg_14">
    <g id="svg_15">
     <path d="m82.04,138.09c0,0.18 -5.7,0.31 -12.71,0.31c-7.03,0 -12.71,-0.14 -12.71,-0.31c0,-0.17 5.69,-0.31 12.71,-0.31c7.01,0 12.71,0.14 12.71,0.31z" fill="#E0E0E0" id="svg_16"/>
    </g>
   </g>
  </g>
  <g id="svg_17">
   <g id="svg_18">
    <g id="svg_19">
     <path d="m163.26,147.59c0,0.17 -23.87,0.31 -53.32,0.31c-29.46,0 -53.33,-0.14 -53.33,-0.31c0,-0.18 23.87,-0.31 53.33,-0.31c29.45,0 53.32,0.14 53.32,0.31z" fill="#E0E0E0" id="svg_20"/>
    </g>
   </g>
  </g>
  <g id="svg_21">
   <g id="svg_22">
    <g id="svg_23">
     <path d="m127.39,158.24c0,0.17 -15.7,0.31 -35.05,0.31c-19.35,0 -35.04,-0.14 -35.04,-0.31c0,-0.18 15.68,-0.31 35.04,-0.31c19.35,0 35.05,0.13 35.05,0.31z" fill="#E0E0E0" id="svg_24"/>
    </g>
   </g>
  </g>
  <g id="svg_47" transform="matrix(1 0 0 1 0 0)">
   <g id="svg_48">
    <rect fill="#FAFAFA" height="90.28" id="svg_49" width="149.13" x="-231.88" y="501.92"/>
   </g>
  </g>
  <g id="svg_50" transform="matrix(1 0 0 1 0 0)">
   <g id="svg_51">
    <g id="svg_52">
     <path d="m-82.75,592.21c0,0 -0.02,-0.56 -0.02,-1.64c-0.01,-1.08 -0.01,-2.65 -0.02,-4.71c-0.02,-4.15 -0.03,-10.24 -0.06,-18.06c-0.03,-15.63 -0.08,-38.17 -0.12,-65.88l0.22,0.24c-39.79,0.02 -92.06,0.05 -149.12,0.07l-0.01,0l0.29,-0.31c-0.01,31.93 -0.01,62.46 -0.02,90.29l-0.27,-0.3c43.63,0.06 80.88,0.11 107.23,0.14c13.19,0.04 23.65,0.06 30.82,0.08c3.58,0.01 6.34,0.02 8.22,0.04c0.93,0 1.63,0.01 2.13,0.01c0.47,0.01 0.73,0.02 0.73,0.02s-0.23,0.01 -0.7,0.01c-0.49,0 -1.18,0.01 -2.1,0.02c-1.87,0 -4.61,0.01 -8.16,0.02c-7.17,0.02 -17.61,0.05 -30.76,0.08c-26.4,0.04 -63.7,0.08 -107.41,0.14l-0.27,0l0,-0.29c-0.01,-27.83 -0.01,-58.36 -0.02,-90.29l0,-0.31l0.29,0l0.01,0c57.06,0.04 109.33,0.06 149.12,0.08l0.22,0l0,0.23c-0.06,27.78 -0.09,50.37 -0.12,66.03c-0.02,7.8 -0.04,13.87 -0.06,18.01c-0.01,2.05 -0.02,3.6 -0.02,4.68c-0.01,1.04 -0.02,1.58 -0.02,1.58z" fill="#E0E0E0" id="svg_53"/>
    </g>
   </g>
  </g>
  <g id="svg_54">
   <g id="svg_55">
    <rect fill="#E0E0E0" height="22.83" id="svg_56" width="21.08" x="44.34" y="353.44"/>
   </g>
  </g>
  <g id="svg_57">
   <g id="svg_58">
    <g id="svg_59">
     <path d="m94.38,356.65c0,0.17 -4.93,0.31 -10.99,0.31c-6.08,0 -10.99,-0.14 -10.99,-0.31c0,-0.18 4.92,-0.31 10.99,-0.31c6.06,0 10.99,0.13 10.99,0.31z" fill="#E0E0E0" id="svg_60"/>
    </g>
   </g>
  </g>
  <g id="svg_61">
   <g id="svg_62">
    <g id="svg_63">
     <path d="m164.59,364.85c0,0.17 -20.63,0.31 -46.09,0.31c-25.46,0 -46.09,-0.14 -46.09,-0.31c0,-0.17 20.63,-0.31 46.09,-0.31c25.46,0 46.09,0.14 46.09,0.31z" fill="#E0E0E0" id="svg_64"/>
    </g>
   </g>
  </g>
  <g id="svg_65">
   <g id="svg_66">
    <g id="svg_67">
     <path d="m133.57,374.06c0,0.17 -13.56,0.31 -30.29,0.31c-16.73,0 -30.29,-0.14 -30.29,-0.31s13.55,-0.31 30.29,-0.31c16.72,0 30.29,0.13 30.29,0.31z" fill="#E0E0E0" id="svg_68"/>
    </g>
   </g>
  </g>
  <g id="svg_89" transform="matrix(1 0 0 1 0 0)">
   <g id="svg_90">
    <g id="svg_91">
     <g id="svg_92">
      <rect fill="#FAFAFA" height="90.28" id="svg_93" width="149.13" x="884.67" y="349.65"/>
     </g>
    </g>
    <g id="svg_94">
     <g id="svg_95">
      <g id="svg_96">
       <path d="m1033.79,439.93c0,0 -0.01,-0.55 -0.02,-1.63c-0.01,-1.08 -0.01,-2.65 -0.02,-4.71c-0.01,-4.15 -0.03,-10.24 -0.06,-18.06c-0.03,-15.63 -0.07,-38.17 -0.12,-65.88l0.22,0.24c-39.79,0.02 -92.06,0.05 -149.12,0.07l-0.01,0l0.29,-0.31c-0.01,31.93 -0.01,62.46 -0.02,90.28l-0.27,-0.29c43.63,0.06 80.88,0.11 107.23,0.14c13.19,0.04 23.65,0.06 30.82,0.07c3.58,0.02 6.34,0.04 8.22,0.04c0.93,0.01 1.63,0.02 2.13,0.02c0.47,0 0.73,0.01 0.73,0.01s-0.23,0.01 -0.7,0.02c-0.49,0 -1.18,0.01 -2.1,0.01c-1.87,0.01 -4.61,0.02 -8.16,0.04c-7.17,0.02 -17.6,0.05 -30.76,0.08c-26.4,0.04 -63.7,0.08 -107.41,0.14l-0.27,0l0,-0.29c-0.01,-27.83 -0.01,-58.36 -0.02,-90.29l0,-0.31l0.29,0l0.01,0c57.06,0.04 109.33,0.06 149.12,0.08l0.22,0l0,0.23c-0.04,27.78 -0.09,50.37 -0.12,66.03c-0.02,7.8 -0.04,13.87 -0.06,18c-0.01,2.05 -0.01,3.61 -0.02,4.69c-0.01,1.04 -0.02,1.57 -0.02,1.57z" fill="#E0E0E0" id="svg_97"/>
      </g>
     </g>
    </g>
   </g>
   <g id="svg_98">
    <g id="svg_99">
     <rect fill="#E0E0E0" height="22.83" id="svg_100" width="21.08" x="902.89" y="371.17"/>
    </g>
   </g>
   <g id="svg_101">
    <g id="svg_102">
     <g id="svg_103">
      <path d="m952.93,374.38c0,0.17 -4.92,0.31 -10.99,0.31c-6.06,0 -10.99,-0.14 -10.99,-0.31s4.93,-0.31 10.99,-0.31c6.08,0 10.99,0.13 10.99,0.31z" fill="#E0E0E0" id="svg_104"/>
     </g>
    </g>
   </g>
   <g id="svg_105">
    <g id="svg_106">
     <g id="svg_107">
      <path d="m1023.13,382.58c0,0.17 -20.63,0.31 -46.09,0.31c-25.46,0 -46.09,-0.14 -46.09,-0.31c0,-0.17 20.63,-0.31 46.09,-0.31c25.46,0 46.09,0.14 46.09,0.31z" fill="#E0E0E0" id="svg_108"/>
     </g>
    </g>
   </g>
   <g id="svg_109">
    <g id="svg_110">
     <g id="svg_111">
      <path d="m992.12,391.79c0,0.17 -13.56,0.31 -30.29,0.31c-16.72,0 -30.29,-0.14 -30.29,-0.31c0,-0.18 13.56,-0.31 30.29,-0.31c16.72,0 30.29,0.13 30.29,0.31z" fill="#E0E0E0" id="svg_112"/>
     </g>
    </g>
   </g>
   <g id="svg_113">
    <g id="svg_114">
     <path d="m1011.71,427.97l-101.86,0c-5.39,0 -9.78,-4.74 -9.78,-10.58l0,0c0,-5.84 4.37,-10.57 9.78,-10.57l101.86,0c5.4,0 9.78,4.74 9.78,10.57l0,0c0,5.85 -4.37,10.58 -9.78,10.58z" fill="#E0E0E0" id="svg_115"/>
    </g>
   </g>
   <g id="svg_116">
    <g id="svg_117">
     <path d="m942.06,418.88l-2.51,0l-0.47,1.24l-1.27,0l2.4,-5.82l1.23,0l2.41,5.82l-1.3,0l-0.47,-1.24zm-0.4,-1.03l-0.85,-2.24l-0.85,2.24l1.7,0z" fill="#FFFFFF" id="svg_118"/>
    </g>
    <g id="svg_119">
     <path d="m949.07,416.42c0,1.29 -0.91,2.1 -2.34,2.1l-1.08,0l0,1.6l-1.25,0l0,-5.82l2.33,0c1.44,0 2.34,0.8 2.34,2.12zm-1.27,0c0,-0.65 -0.38,-1.02 -1.14,-1.02l-1.02,0l0,2.02l1.02,0c0.76,0 1.14,-0.38 1.14,-1z" fill="#FFFFFF" id="svg_120"/>
    </g>
    <g id="svg_121">
     <path d="m954.63,416.42c0,1.29 -0.91,2.1 -2.34,2.1l-1.08,0l0,1.6l-1.25,0l0,-5.82l2.33,0c1.44,0 2.34,0.8 2.34,2.12zm-1.27,0c0,-0.65 -0.38,-1.02 -1.14,-1.02l-1.02,0l0,2.02l1.02,0c0.76,0 1.14,-0.38 1.14,-1z" fill="#FFFFFF" id="svg_122"/>
    </g>
    <g id="svg_123">
     <path d="m955.51,414.3l1.25,0l0,4.72l2.7,0l0,1.1l-3.94,0l0,-5.82z" fill="#FFFFFF" id="svg_124"/>
    </g>
    <g id="svg_125">
     <path d="m962.18,418.05l0,2.07l-1.24,0l0,-2.08l-2.09,-3.74l1.33,0l1.44,2.58l1.44,-2.58l1.23,0l-2.1,3.76z" fill="#FFFFFF" id="svg_126"/>
    </g>
    <g id="svg_127">
     <path d="m971.92,414.3l0,5.82l-1.02,0l-2.68,-3.54l0,3.54l-1.24,0l0,-5.82l1.04,0l2.67,3.54l0,-3.54l1.23,0z" fill="#FFFFFF" id="svg_128"/>
    </g>
    <g id="svg_129">
     <path d="m972.87,417.21c0,-1.72 1.24,-3 2.94,-3c1.69,0 2.95,1.27 2.95,3s-1.26,3.01 -2.95,3.01c-1.7,0 -2.94,-1.28 -2.94,-3.01zm4.62,0c0,-1.1 -0.72,-1.87 -1.68,-1.87c-0.96,0 -1.68,0.77 -1.68,1.87c0,1.11 0.72,1.87 1.68,1.87c0.96,0 1.68,-0.75 1.68,-1.87z" fill="#FFFFFF" id="svg_130"/>
    </g>
    <g id="svg_131">
     <path d="m987.64,414.3l-1.76,5.82l-1.34,0l-1.18,-3.95l-1.23,3.95l-1.33,0l-1.77,-5.82l1.29,0l1.22,4.09l1.26,-4.09l1.16,0l1.23,4.13l1.26,-4.13l1.18,0z" fill="#FFFFFF" id="svg_132"/>
    </g>
   </g>
  </g>
  <g id="svg_134" transform="matrix(1 0 0 1 0 0)">
   <g id="svg_135">
    <g id="svg_136">
     <rect fill="#FAFAFA" height="104.45" id="svg_137" width="172.54" x="931.97" y="636.21"/>
    </g>
   </g>
   <g id="svg_138">
    <g id="svg_139">
     <g id="svg_140">
      <path d="m1104.51,740.67c0,0 -0.01,-0.66 -0.02,-1.89c-0.01,-1.24 -0.01,-3.06 -0.02,-5.45c-0.01,-4.8 -0.03,-11.84 -0.06,-20.88c-0.03,-18.08 -0.07,-44.17 -0.12,-76.24l0.22,0.24c-46.03,0.02 -106.49,0.05 -172.52,0.07l-0.01,0l0.29,-0.31c-0.01,36.94 -0.01,72.27 -0.02,104.46l-0.27,-0.3c50.49,0.06 93.59,0.11 124.08,0.14c15.25,0.04 27.36,0.06 35.66,0.08c4.14,0.01 7.33,0.02 9.5,0.04c1.08,0 1.9,0.01 2.46,0.01c0.55,0.01 0.84,0.02 0.84,0.02s-0.27,0.01 -0.81,0.01c-0.56,0 -1.37,0.01 -2.43,0.01c-2.15,0.01 -5.34,0.02 -9.46,0.04c-8.27,0.02 -20.36,0.05 -35.59,0.08c-30.53,0.04 -73.69,0.08 -124.25,0.14l-0.27,0l0,-0.29c-0.01,-32.19 -0.01,-67.52 -0.02,-104.46l0,-0.31l0.29,0l0.01,0c66.03,0.04 126.5,0.06 172.52,0.08l0.22,0l0,0.23c-0.04,32.13 -0.09,58.26 -0.11,76.38c-0.02,9.03 -0.04,16.05 -0.06,20.83c-0.01,2.37 -0.02,4.19 -0.02,5.42c-0.02,1.21 -0.03,1.83 -0.03,1.83z" fill="#E0E0E0" id="svg_141"/>
     </g>
    </g>
   </g>
  </g>
  <g id="svg_142">
   <g id="svg_143">
    <rect fill="#E0E0E0" height="26.41" id="svg_144" width="24.39" x="595.06" y="207.11"/>
   </g>
  </g>
  <g id="svg_145">
   <g id="svg_146">
    <g id="svg_147">
     <path d="m652.95,210.81c0,0.18 -5.69,0.31 -12.71,0.31c-7.03,0 -12.71,-0.13 -12.71,-0.31c0,-0.17 5.69,-0.31 12.71,-0.31c7.03,0 12.71,0.14 12.71,0.31z" fill="#E0E0E0" id="svg_148"/>
    </g>
   </g>
  </g>
  <g id="svg_149">
   <g id="svg_150">
    <g id="svg_151">
     <path d="m734.18,220.31c0,0.18 -23.88,0.31 -53.33,0.31c-29.46,0 -53.33,-0.13 -53.33,-0.31c0,-0.17 23.87,-0.31 53.33,-0.31c29.45,0 53.33,0.14 53.33,0.31z" fill="#E0E0E0" id="svg_152"/>
    </g>
   </g>
  </g>
  <g id="svg_153">
   <g id="svg_154">
    <g id="svg_155">
     <path d="m698.29,230.96c0,0.17 -15.68,0.31 -35.04,0.31c-19.36,0 -35.05,-0.14 -35.05,-0.31c0,-0.18 15.68,-0.31 35.05,-0.31c19.34,0 35.04,0.14 35.04,0.31z" fill="#E0E0E0" id="svg_156"/>
    </g>
   </g>
  </g>
  <g display="none" id="Background_Simple" transform="matrix(1 0 0 1 0 0)">
   <g display="inline" id="svg_177">
    <g id="svg_178">
     <path d="m1129.86,585.97l-1.67,-2.97c-14.01,-24.99 -39.34,-40.06 -66.04,-38.23c-3.44,0.23 -6.86,0.73 -10.23,1.52c-24.28,5.62 -45.41,25.51 -54.17,50.97c-5.16,14.97 -6.59,32.22 -16.37,44.11c-12.71,15.46 -34.32,15.95 -53.31,15.31c-18.99,-0.65 -40.59,-0.1 -53.25,15.44c-7.93,9.72 -10.45,23.56 -9.81,36.58c1.69,34.48 23.89,65.32 52.11,80.64c28.22,15.33 61.46,16.71 92.35,9.96c43.28,-9.45 84.42,-35.39 109.16,-75.45c24.74,-40.06 31.01,-94.64 11.21,-137.88z" fill="#F5F5F5" id="svg_179"/>
    </g>
   </g>
   <g display="inline" id="svg_180">
    <g id="svg_181">
     <path d="m350.29,731.36l0.82,3.36c6.84,28.28 27.14,50.55 53.22,57.06c3.35,0.84 6.76,1.41 10.2,1.71c24.75,2.1 50.25,-10.42 65.36,-32.11c8.88,-12.76 14.81,-28.83 27.31,-37.2c16.27,-10.89 37.1,-4.69 55.13,1.79s38.88,12.64 55.11,1.67c10.16,-6.88 16.23,-19.35 19.05,-32.04c7.47,-33.57 -5.68,-69.98 -28.69,-93.39c-23.01,-23.42 -54.5,-35 -85.88,-38.09c-43.96,-4.33 -90.24,7.81 -124.52,38.56c-34.26,30.75 -54.67,81.12 -47.1,128.68z" fill="#F5F5F5" id="svg_182"/>
    </g>
   </g>
  </g>
  <g id="svg_184">
   <g id="svg_185">
    <rect fill="none" height="521.07" id="svg_186" width="539.17" x="-1049.79" y="157.51"/>
   </g>
  </g>
  <g id="svg_187" transform="matrix(1 0 0 1 0 0)">
   <g id="svg_188">
    <rect fill="#E0E0E0" height="33.67" id="svg_189" width="511.17" x="-624.79" y="6.51"/>
   </g>
  </g>
  <g id="svg_190">
   <g id="svg_191">
    <g id="svg_192">
     <path d="m1166.57,227.09c0,5.37 -85.54,9.31 -191.05,9.31c-105.54,0 -191.07,-3.94 -191.07,-9.31c0,-5.01 85.53,-9.31 191.07,-9.31c105.51,0 191.05,4.3 191.05,9.31z" fill="#263238" id="svg_193"/>
    </g>
   </g>
  </g>
  <g id="svg_194" transform="matrix(1 0 0 1 0 0)">
   <g id="svg_195">
    <g id="svg_196">
     <g id="svg_197">
      <rect fill="#E0E0E0" height="43.14" id="svg_198" width="7.57" x="329.31" y="363.57"/>
     </g>
    </g>
    <g id="svg_199">
     <g id="svg_200">
      <g id="svg_201">
       <path d="m336.88,406.71c-0.01,-0.01 -0.03,-0.31 -0.04,-0.88c-0.01,-0.62 -0.02,-1.45 -0.03,-2.49c-0.02,-2.2 -0.06,-5.3 -0.09,-9.12c-0.03,-7.75 -0.08,-18.48 -0.12,-30.64l0.29,0.3c-2.43,0 -4.98,0.01 -7.57,0.01c0.56,-0.62 0.15,-0.17 0.28,-0.3l0,0.01l0,0.02l0,0.05l0,0.11l0,0.22l0,0.42l0,0.85c0,0.56 0,1.12 0,1.69c0,1.11 0,2.22 0,3.31c0,2.19 0,4.34 0,6.43c-0.01,4.19 -0.02,8.17 -0.03,11.86c-0.03,7.35 -0.07,13.59 -0.09,18.15l-0.15,-0.17c2.34,0.05 4.21,0.07 5.54,0.1c0.61,0.02 1.1,0.04 1.49,0.05c0.33,0.01 0.52,0.01 0.53,0.02c0.01,0.01 -0.15,0.02 -0.47,0.04c-0.38,0.01 -0.86,0.02 -1.46,0.04c-1.36,0.02 -3.25,0.06 -5.63,0.1l-0.15,0l0,-0.17c-0.03,-4.57 -0.07,-10.8 -0.1,-18.15c-0.01,-3.7 -0.02,-7.68 -0.03,-11.86c0,-2.09 0,-4.25 0,-6.43c0,-1.09 0,-2.2 0,-3.31c0,-0.56 0,-1.12 0,-1.69l0,-0.85l0,-0.42l0,-0.22l0,-0.11l0,-0.05l0,-0.02l0,-0.01c0.12,-0.14 -0.3,0.3 0.29,-0.32c2.58,0 5.14,0 7.57,0l0.29,0l0,0.31c-0.06,12.25 -0.1,23.05 -0.13,30.85c-0.03,3.8 -0.07,6.88 -0.08,9.07c-0.02,1 -0.03,1.81 -0.04,2.4c-0.01,0.55 -0.02,0.83 -0.03,0.81z" fill="#263238" id="svg_202"/>
      </g>
     </g>
    </g>
   </g>
   <g id="svg_203">
    <g id="svg_204">
     <path d="m350.61,357.03l-35.38,0c-5.25,0 -9.5,-4.6 -9.5,-10.28l0,0l54.37,0l0,0c0.01,5.68 -4.24,10.28 -9.49,10.28z" fill="#263238" id="svg_205"/>
    </g>
   </g>
   <g id="svg_206">
    <g id="svg_207">
     <path d="m381.81,348.77l-61.69,0l0,-14.28l61.69,0c3.65,0 6.61,3.19 6.61,7.14l0,0c0,3.95 -2.96,7.14 -6.61,7.14z" fill="#FF725E" id="svg_208"/>
    </g>
   </g>
   <g id="svg_209">
    <g id="svg_210">
     <path d="m272.2,231.9c-3.52,0.51 -6.03,3.98 -5.64,7.81l8.9,87.61c1.27,12.21 10.8,21.44 22.16,21.44l23.53,0c3.65,0 6.61,-3.21 6.61,-7.15l0,0c0,-3.95 -2.96,-7.15 -6.61,-7.15l-19.98,0c-5.68,0 -10.48,-4.56 -11.23,-10.66l-10.35,-85.79c-0.47,-3.9 -3.78,-6.64 -7.38,-6.11l0,0z" fill="#FF725E" id="svg_211"/>
    </g>
   </g>
   <g id="svg_212">
    <g id="svg_213">
     <path d="m347.15,335.18l-67.06,1.02l-6.55,-104.37l56.12,-0.38c5.6,0 10.14,4.96 10.14,11.09l7.35,92.65z" fill="#FF725E" id="svg_214"/>
    </g>
   </g>
   <g id="svg_215" opacity="0.3">
    <g id="svg_216">
     <path d="m272.2,231.9c-3.52,0.51 -6.03,3.98 -5.64,7.81l8.9,87.61c1.27,12.21 10.8,21.44 22.16,21.44l23.53,0c3.65,0 6.61,-3.21 6.61,-7.15l0,0c0,-3.95 -2.96,-7.15 -6.61,-7.15l-21.41,0c-5.69,0 -9.68,-4.35 -10.43,-10.45l-9.73,-86c-0.47,-3.9 -3.78,-6.64 -7.38,-6.11l0,0z" id="svg_217"/>
    </g>
   </g>
   <g id="svg_218">
    <g id="svg_219">
     <rect fill="#263238" height="8.25" id="svg_220" width="14.66" x="325.76" y="357.03"/>
    </g>
   </g>
   <g id="svg_221">
    <g id="svg_222">
     <g id="svg_223">
      <path d="m335.84,442.09l-5.7,0c-2.42,0 -4.39,-2.13 -4.39,-4.75l0,-28.32c0,-2.62 1.97,-4.74 4.39,-4.74l5.7,0c2.42,0 4.37,2.12 4.37,4.74l0,28.32c0,2.62 -1.96,4.75 -4.37,4.75z" fill="#E0E0E0" id="svg_224"/>
     </g>
    </g>
    <g id="svg_225">
     <g id="svg_226">
      <g id="svg_227">
       <path d="m335.84,442.09c0,-0.04 0.32,-0.02 0.91,-0.17c0.57,-0.17 1.44,-0.51 2.21,-1.42c0.38,-0.45 0.71,-1.04 0.92,-1.73c0.22,-0.71 0.2,-1.51 0.19,-2.4c-0.01,-1.79 -0.03,-3.8 -0.04,-6.04c-0.02,-4.48 -0.04,-9.79 -0.07,-15.69c0,-1.48 0,-2.99 -0.01,-4.53c0,-0.79 0.04,-1.55 -0.15,-2.25c-0.17,-0.72 -0.53,-1.38 -1.02,-1.93c-0.49,-0.53 -1.1,-0.94 -1.78,-1.15c-0.67,-0.23 -1.4,-0.18 -2.19,-0.18c-1.54,0 -3.08,0 -4.66,0c-1.48,-0.01 -2.89,0.91 -3.58,2.28c-0.34,0.68 -0.53,1.44 -0.52,2.21c0,0.83 0,1.63 0,2.44c-0.01,3.21 -0.01,6.3 -0.02,9.27c-0.02,5.9 -0.04,11.21 -0.06,15.69c-0.06,1.14 0.04,2.13 0.47,3c0.43,0.85 1.06,1.51 1.76,1.9c0.71,0.41 1.45,0.55 2.13,0.54c0.7,0.01 1.34,0.02 1.92,0.04c1.12,0.02 2,0.04 2.66,0.06c0.61,0.01 0.93,0.04 0.93,0.06s-0.32,0.04 -0.93,0.06c-0.66,0.01 -1.55,0.04 -2.66,0.06c-0.59,0.01 -1.23,0.01 -1.92,0.02c-0.71,0.04 -1.52,-0.11 -2.28,-0.53c-0.76,-0.41 -1.46,-1.1 -1.93,-2.02c-0.23,-0.47 -0.4,-0.98 -0.49,-1.52c-0.1,-0.56 -0.07,-1.12 -0.08,-1.67c-0.02,-4.48 -0.04,-9.79 -0.07,-15.69c0,-2.95 -0.01,-6.06 -0.01,-9.27c0,-0.81 0,-1.61 0,-2.44c-0.01,-0.86 0.19,-1.75 0.59,-2.52c0.77,-1.55 2.39,-2.61 4.08,-2.6c1.58,0 3.13,0 4.66,0c0.75,0 1.56,-0.06 2.35,0.2c0.76,0.25 1.47,0.72 2.02,1.33c0.54,0.61 0.95,1.36 1.15,2.18c0.22,0.83 0.15,1.66 0.17,2.42c0,1.54 -0.01,3.05 -0.01,4.53c-0.02,5.9 -0.04,11.21 -0.07,15.69c-0.01,2.24 -0.02,4.25 -0.03,6.04c-0.01,0.87 0.01,1.75 -0.25,2.49c-0.23,0.74 -0.61,1.35 -1.02,1.82c-0.83,0.92 -1.75,1.26 -2.34,1.38c-0.61,0.11 -0.93,0.05 -0.93,0.05z" fill="#263238" id="svg_228"/>
      </g>
     </g>
    </g>
   </g>
   <g id="svg_229">
    <g id="svg_230">
     <g id="svg_231">
      <path d="m375.19,439.75l-86.05,0c-2.53,0 -4.62,0.91 -6.2,2.7c-3.19,3.61 -2.99,9.53 -2.98,9.78l3.91,-0.18c-0.03,-1.21 0.22,-4.78 1.91,-6.67c0.83,-0.93 1.92,-1.39 3.36,-1.39l22.58,0l0,10.82l3.91,0l0,-10.82l59.56,0c2.52,0 4.57,2.22 4.57,4.95l0,3.19l3.92,0l0,-3.19c0,-5.07 -3.81,-9.2 -8.49,-9.2z" fill="#E0E0E0" id="svg_232"/>
     </g>
    </g>
    <g id="svg_233">
     <g id="svg_234">
      <g id="svg_235">
       <path d="m375.19,439.75c0,0 0.36,-0.02 1.07,0.05c0.71,0.07 1.77,0.31 3,0.99c1.22,0.72 2.62,1.95 3.58,3.92c0.47,0.98 0.82,2.13 0.93,3.41c0.08,1.28 0.03,2.6 0.06,4.02l0,0.16l-0.14,0c-1.22,0 -2.54,0.01 -3.92,0.01l-0.14,0l-0.01,-0.17c-0.11,-2.07 0.44,-4.6 -1.16,-6.37c-0.72,-0.87 -1.77,-1.46 -2.91,-1.55c-1.15,-0.04 -2.39,0 -3.62,0c-4.98,0 -10.46,0.01 -16.36,0.04c-11.8,0.01 -25.28,0.02 -39.93,0.05l0.28,-0.3c0.01,3.41 0.01,7.09 0.01,10.82l0,0.31l-0.29,0c-1.22,0 -2.56,0 -3.91,0l-0.29,0l0,-0.31c0,-3.42 0,-7.1 0,-10.82l0.29,0.31c-4.1,0 -8.43,0 -12.82,0c-3.41,0 -6.79,0.01 -10.13,0.01c-0.8,0.04 -1.57,0.28 -2.21,0.75c-0.64,0.47 -1.1,1.17 -1.46,1.95c-0.67,1.54 -0.95,3.32 -0.94,5.02l0,0.31l-0.27,0.01c-1.31,0.06 -2.63,0.11 -3.92,0.17l-0.29,0.02l-0.01,-0.31c-0.02,-2.03 0.24,-4.02 0.85,-5.91c0.59,-1.88 1.59,-3.64 3.02,-4.89c1.42,-1.26 3.25,-1.89 5.01,-1.97c1.77,-0.04 3.47,-0.01 5.18,-0.01c6.8,0 13.32,0.01 19.51,0.02c12.37,0.02 23.37,0.05 32.55,0.06c9.16,0.05 16.5,0.07 21.58,0.1c2.51,0.02 4.45,0.04 5.8,0.05c0.65,0.01 1.15,0.02 1.5,0.04c0.34,0.01 0.51,0.02 0.51,0.02s-0.17,0.02 -0.51,0.04c-0.35,0 -0.85,0.01 -1.5,0.02c-1.34,0.01 -3.29,0.02 -5.8,0.05c-5.08,0.02 -12.42,0.06 -21.58,0.1c-9.18,0.02 -20.18,0.05 -32.55,0.07c-6.17,0 -12.7,0.01 -19.51,0.02c-1.7,0 -3.44,-0.02 -5.15,0.01c-1.69,0.08 -3.37,0.68 -4.69,1.87c-1.34,1.16 -2.28,2.81 -2.85,4.62c-0.57,1.79 -0.83,3.76 -0.8,5.68l-0.3,-0.29c1.29,-0.06 2.6,-0.12 3.92,-0.19l-0.28,0.32c-0.01,-1.82 0.27,-3.64 0.99,-5.32c0.38,-0.84 0.89,-1.64 1.65,-2.19c0.73,-0.55 1.62,-0.81 2.5,-0.86c3.35,0 6.74,-0.01 10.16,-0.01c4.4,0 8.74,0 12.82,0l0.29,0l0,0.31c0,3.72 -0.01,7.4 -0.01,10.82l-0.28,-0.3c1.35,0 2.7,0 3.92,0l-0.29,0.3c0,-3.73 0.01,-7.41 0.01,-10.82l0,-0.3l0.28,0c14.64,0.02 28.12,0.04 39.92,0.05c5.9,0.01 11.38,0.02 16.36,0.04c1.25,0.01 2.44,-0.01 3.66,0.04c1.24,0.11 2.36,0.75 3.14,1.69c0.77,0.94 1.2,2.15 1.22,3.34c-0.01,1.14 -0.01,2.24 -0.01,3.3l-0.15,-0.17c1.38,0.01 2.71,0.01 3.92,0.01l-0.14,0.16c-0.01,-1.41 0.06,-2.77 -0.02,-4.01c-0.09,-1.23 -0.42,-2.36 -0.87,-3.31c-0.91,-1.94 -2.26,-3.17 -3.45,-3.89c-1.22,-0.71 -2.25,-0.97 -2.95,-1.06c-0.7,-0.1 -1.06,-0.1 -1.06,-0.12z" fill="#263238" id="svg_236"/>
      </g>
     </g>
    </g>
   </g>
   <g id="svg_237">
    <g id="svg_238">
     <path d="m321.23,459.88c0,4.58 -3.44,8.3 -7.68,8.3c-4.23,0 -7.67,-3.72 -7.67,-8.3c0,-4.59 3.44,-8.31 7.67,-8.31c4.24,0 7.68,3.72 7.68,8.31z" fill="#263238" id="svg_239"/>
    </g>
   </g>
   <g id="svg_240">
    <g id="svg_241">
     <path d="m289.59,457.84c0,4.58 -3.44,8.3 -7.67,8.3c-4.24,0 -7.68,-3.72 -7.68,-8.3c0,-4.59 3.44,-8.31 7.68,-8.31c4.23,0 7.67,3.72 7.67,8.31z" fill="#263238" id="svg_242"/>
    </g>
   </g>
   <g id="svg_243">
    <g id="svg_244">
     <path d="m388.51,458.14c0,4.58 -3.44,8.3 -7.68,8.3c-4.23,0 -7.67,-3.72 -7.67,-8.3c0,-4.59 3.44,-8.3 7.67,-8.3c4.24,0 7.68,3.71 7.68,8.3z" fill="#263238" id="svg_245"/>
    </g>
   </g>
   <g id="svg_246">
    <g id="svg_247">
     <g id="svg_248">
      <path d="m383.47,334.49c0,0.17 -18.91,0.38 -42.23,0.48c-23.33,0.1 -42.23,0.02 -42.23,-0.14c0,-0.17 18.9,-0.38 42.23,-0.48c23.32,-0.1 42.23,-0.04 42.23,0.14z" fill="#263238" id="svg_249"/>
     </g>
    </g>
   </g>
   <g id="svg_250">
    <g id="svg_251">
     <g id="svg_252">
      <path d="m289.39,322.61c-0.15,0.02 -2.49,-18.9 -5.19,-42.25c-2.72,-23.37 -4.78,-42.32 -4.63,-42.35c0.15,-0.01 2.49,18.9 5.19,42.26c2.72,23.36 4.78,42.31 4.63,42.34z" fill="#263238" id="svg_253"/>
     </g>
    </g>
   </g>
   <g id="svg_254">
    <g id="svg_255">
     <g id="svg_256">
      <path d="m278.87,231.71c0,-0.02 0.2,-0.08 0.6,-0.18c0.4,-0.07 0.98,-0.17 1.75,-0.19c1.51,-0.04 3.77,0.05 6.37,1.06c1.27,0.51 2.64,1.39 3.7,2.74c1.09,1.3 2,2.91 2.85,4.62c1.66,3.46 3.5,7.21 5.53,11.11c4.05,7.79 7.86,14.77 10.45,19.94c1.31,2.57 2.32,4.69 3,6.15c0.3,0.69 0.55,1.26 0.76,1.7c0.17,0.39 0.24,0.61 0.22,0.62c-0.01,0 -0.13,-0.19 -0.33,-0.56c-0.22,-0.43 -0.51,-0.98 -0.85,-1.65c-0.78,-1.49 -1.86,-3.55 -3.16,-6.04c-2.67,-5.11 -6.54,-12.04 -10.6,-19.85c-2.03,-3.9 -3.87,-7.69 -5.49,-11.13c-0.83,-1.71 -1.7,-3.28 -2.74,-4.56c-1.01,-1.3 -2.26,-2.13 -3.5,-2.67c-2.5,-1.04 -4.73,-1.2 -6.22,-1.23c-1.5,-0.01 -2.33,0.18 -2.34,0.13z" fill="#263238" id="svg_257"/>
     </g>
    </g>
   </g>
   <g id="svg_258">
    <g id="svg_259">
     <g id="svg_260">
      <path d="m267,236.24c0.14,0.08 -4.94,9.67 -11.33,21.41c-6.41,11.74 -11.7,21.19 -11.84,21.11c-0.13,-0.1 4.94,-9.67 11.34,-21.42c6.4,-11.74 11.7,-21.19 11.83,-21.1z" fill="#263238" id="svg_261"/>
     </g>
    </g>
   </g>
   <g id="svg_262">
    <g id="svg_263">
     <g id="svg_264">
      <rect fill="#FAFAFA" height="29.35" id="svg_265" width="91.93" x="234.98" y="278.75"/>
     </g>
    </g>
    <g id="svg_266">
     <g id="svg_267">
      <path d="m259.78,287.86l-4.51,11.27l-2.37,0l-4.48,-11.27l2.6,0l3.17,8.05l3.2,-8.05l2.4,0z" fill="#263238" id="svg_268"/>
     </g>
     <g id="svg_269">
      <path d="m267.14,296.71l-4.83,0l-0.92,2.42l-2.46,0l4.63,-11.25l2.37,0l4.65,11.25l-2.53,0l-0.92,-2.42zm-0.76,-1.99l-1.65,-4.31l-1.65,4.31l3.29,0z" fill="#263238" id="svg_270"/>
     </g>
     <g id="svg_271">
      <path d="m270.86,293.49c0,-3.4 2.41,-5.82 5.64,-5.82c1.79,0 3.29,0.72 4.27,2l-1.55,1.54c-0.7,-0.86 -1.57,-1.32 -2.61,-1.32c-1.94,0 -3.32,1.48 -3.32,3.6c0,2.13 1.38,3.6 3.32,3.6c1.04,0 1.91,-0.44 2.61,-1.33l1.55,1.54c-0.98,1.3 -2.47,2.01 -4.29,2.01c-3.23,0 -5.63,-2.43 -5.63,-5.82z" fill="#263238" id="svg_272"/>
     </g>
     <g id="svg_273">
      <path d="m289.03,296.71l-4.83,0l-0.92,2.42l-2.46,0l4.63,-11.25l2.37,0l4.65,11.25l-2.53,0l-0.92,-2.42zm-0.75,-1.99l-1.66,-4.31l-1.65,4.31l3.3,0z" fill="#263238" id="svg_274"/>
     </g>
     <g id="svg_275">
      <path d="m303.09,287.86l0,11.27l-1.98,0l-5.18,-6.84l0,6.84l-2.37,0l0,-11.27l1.99,0l5.17,6.84l0,-6.84l2.37,0z" fill="#263238" id="svg_276"/>
     </g>
     <g id="svg_277">
      <path d="m307.7,289.99l-3.32,0l0,-2.13l9.06,0l0,2.13l-3.32,0l0,9.14l-2.41,0l0,-9.14z" fill="#263238" id="svg_278"/>
     </g>
    </g>
    <g id="svg_279">
     <g id="svg_280">
      <g id="svg_281">
       <path d="m323.94,305.43c0,0 -0.01,-0.14 -0.01,-0.42c-0.01,-0.3 -0.01,-0.71 -0.02,-1.23c-0.01,-1.09 -0.02,-2.67 -0.04,-4.7c-0.02,-4.11 -0.06,-10.08 -0.09,-17.62l0.17,0.18c-19.61,0.04 -51.16,0.07 -86.71,0.13c0.12,-0.14 -0.3,0.31 0.28,-0.31l0,0l0,0.01l0,0.02l0,0.05l0,0.1l0,0.19l0,0.39l0,0.77l0,1.53c0,1.02 0,2.05 0,3.05c0,2.03 0,4.04 0,6.05c0,3.99 0,7.94 0,11.8l-0.29,-0.3c24.71,0.05 46.35,0.1 61.83,0.13c7.74,0.04 13.94,0.07 18.24,0.08c2.12,0.02 3.78,0.04 4.92,0.05c0.55,0.01 0.97,0.01 1.29,0.01c0.29,0.01 0.44,0.02 0.44,0.02c0.01,0.01 -0.13,0.01 -0.41,0.02c-0.31,0 -0.72,0.01 -1.25,0.01c-1.14,0.01 -2.76,0.02 -4.86,0.05c-4.29,0.02 -10.46,0.05 -18.17,0.08c-15.54,0.04 -37.25,0.08 -62.03,0.14l-0.28,0l0,-0.31c0,-3.86 0,-7.81 -0.01,-11.8c0,-2 0,-4.02 0,-6.05c0,-1 0,-2.02 0,-3.05l0,-1.53l0,-0.77l0,-0.39l0,-0.19l0,-0.1l0,-0.05l0,-0.02l0,-0.01l0,0c0.57,-0.62 0.17,-0.18 0.3,-0.31c35.55,0.05 67.1,0.1 86.71,0.12l0.18,0l0,0.19c-0.04,7.58 -0.08,13.59 -0.1,17.72c-0.01,2.02 -0.03,3.58 -0.04,4.66c0,0.5 -0.01,0.9 -0.01,1.18c-0.01,0.28 -0.01,0.41 -0.02,0.39z" fill="#263238" id="svg_282"/>
      </g>
     </g>
    </g>
   </g>
  </g>
  <g id="svg_312">
   <g id="svg_313">
    <g id="svg_314">
     <g id="svg_315">
      <path d="m259.07,78.77l-1.12,-25.41c-0.09,-2.08 -1.6,-3.76 -3.51,-3.91l0,0c-2.02,-0.17 -3.81,1.41 -4.06,3.59l-2.97,25.47c-0.23,1.93 1.16,3.64 2.96,3.64l5.71,0.01c1.71,0 3.07,-1.54 2.99,-3.38z" fill="#E0E0E0" id="svg_316"/>
     </g>
    </g>
    <g id="svg_317">
     <g id="svg_318">
      <path d="m248.43,35.06c1.04,-3.24 4.31,-4.94 7.29,-3.81c2.98,1.14 4.55,4.66 3.51,7.89c-1.04,3.24 -4.31,4.94 -7.29,3.81c-2.98,-1.14 -4.56,-4.66 -3.51,-7.89z" fill="#E0E0E0" id="svg_319"/>
     </g>
    </g>
   </g>
   <g id="svg_320">
    <g id="svg_321">
     <g id="svg_322">
      <path d="m197.63,110.88l-13.67,-12.53c-1.12,-1.03 -2.76,-0.99 -3.84,0.08l0,0c-1.13,1.14 -1.25,3.04 -0.25,4.32l11.58,15.04c0.87,1.14 2.47,1.18 3.41,0.11l2.97,-3.46c0.89,-1.03 0.81,-2.65 -0.19,-3.56z" fill="#F5F5F5" id="svg_323"/>
     </g>
    </g>
    <g id="svg_324">
     <g id="svg_325">
      <path d="m169.59,94.58c-1.13,-2.31 -0.31,-5.17 1.82,-6.39c2.13,-1.22 4.77,-0.32 5.9,1.99c1.13,2.31 0.3,5.17 -1.83,6.37c-2.13,1.22 -4.77,0.33 -5.89,-1.97z" fill="#F5F5F5" id="svg_326"/>
     </g>
    </g>
   </g>
   <g id="svg_327">
    <g id="svg_328">
     <path d="m186.03,51.78l21.02,38.56c1.72,3.16 5.35,4.42 8.44,2.97l0,0c3.28,-1.54 4.86,-5.58 3.6,-9.2l-14.7,-42.3c-1.12,-3.19 -4.56,-4.62 -7.36,-3.03l-8.91,5.07c-2.66,1.51 -3.61,5.13 -2.09,7.93z" fill="#E0E0E0" id="svg_329"/>
    </g>
   </g>
   <g id="svg_330">
    <g id="svg_331">
     <path d="m235.76,110.35c0.83,5.96 -2.96,11.52 -8.46,12.41c-5.5,0.9 -10.63,-3.21 -11.45,-9.16c-0.83,-5.96 2.96,-11.52 8.46,-12.41c5.5,-0.9 10.63,3.21 11.45,9.16z" fill="#E0E0E0" id="svg_332"/>
    </g>
   </g>
  </g>
  <g id="svg_333">
   <g id="svg_334">
    <g id="svg_335">
     <path d="m-34.62,540.65c0,-1.69 -0.1,-151.57 -0.24,-380.22l0.24,0.2c-147.44,0.01 -323.1,0.03 -511.12,0.04l-0.04,0l0.29,-0.23c-0.02,138.52 -0.03,268.76 -0.04,380.22l-0.24,-0.21c305.6,0.13 508.99,0.21 511.16,0.21c-2.18,0 -205.56,0.08 -511.16,0.21l-0.25,0l0,-0.21c-0.01,-111.46 -0.02,-241.71 -0.03,-380.22l0,-0.23l0.29,0l0.04,0c188.02,0.01 363.67,0.03 511.12,0.04l0.24,0l0,0.2c-0.14,228.65 -0.24,378.53 -0.24,380.22z" fill="#263238" id="svg_336" stroke-dasharray="5"/>
    </g>
   </g>
  </g>
  <g id="svg_337" transform="matrix(1 0 0 1 0 0)">
   <g id="svg_338">
    <circle cx="-611.59" cy="22.11" fill="#FFFFFF" id="svg_339" r="3.79"/>
   </g>
  </g>
  <g id="svg_340" transform="matrix(1 0 0 1 0 0)">
   <g id="svg_341">
    <circle cx="-597.05" cy="22.11" fill="#FFFFFF" id="svg_342" r="3.79"/>
   </g>
  </g>
  <g id="svg_343" transform="matrix(1 0 0 1 0 0)">
   <g id="svg_344">
    <circle cx="-582.51" cy="22.11" fill="#FFFFFF" id="svg_345" r="3.79"/>
   </g>
  </g>
  <g id="Character">
   <g id="svg_346">
    <g id="svg_347">
     <g id="svg_348">
      <g id="svg_349">
       <path d="m432.63,103.32c-0.06,0.18 -2.42,-0.62 -5.27,-1.79c-2.85,-1.17 -5.1,-2.27 -5.04,-2.45c0.06,-0.18 2.42,0.62 5.27,1.79c2.85,1.17 5.1,2.27 5.04,2.45z" fill="#455A64" id="svg_350"/>
      </g>
     </g>
     <g id="svg_351">
      <g id="svg_352">
       <path d="m418.5,127.46c-1.15,-0.14 -4.09,1.47 -6.56,4.66c-0.04,0.05 -0.08,0.08 -0.12,0.14c-1.76,2.14 -2.85,-4.44 -2.96,-6.86c-0.08,-1.58 -1.58,-2.65 -3.03,-2.19l-7.71,3.21l-2.19,-0.08c-1.13,0.36 -1.81,1.54 -1.6,2.75l2.74,13.02l-0.14,3.49l14.8,3.32l0.8,-8.71c0.29,-0.99 0.66,-2.15 1.15,-3.48c0.44,-1.2 1.07,-2.32 1.87,-3.29c0.84,-1.02 1.97,-2.28 2.89,-2.98c0.09,-0.06 0.18,-0.13 0.25,-0.17c0.19,-0.1 0.33,-0.23 0.45,-0.37c0.82,-0.83 0.5,-2.34 -0.64,-2.48z" fill="#FFBE9D" id="svg_353"/>
      </g>
     </g>
     <g id="svg_354">
      <g id="svg_355">
       <path d="m415.26,90.75c0,0 -8.84,-1.2 -22.12,-12.63c-13.28,-11.44 -20.47,-27.7 -21.95,-27.47c-1.49,0.24 -8.28,-2.37 -18.13,28.06c-9.84,30.42 -4.37,36.69 -1.92,36.39c2.46,-0.31 18.76,-7.07 29.32,-6.84c10.56,0.22 24.5,4.74 24.5,4.74l10.31,-22.24z" fill="#FF725E" id="svg_356"/>
      </g>
     </g>
     <g id="svg_357">
      <g id="svg_358">
       <path d="m435.03,104.76l-2.43,6.37l-1.08,2.86c-1.49,3.92 -5.56,5.9 -9.25,4.48l-19.16,-5.11l8.48,-27.8l19.46,8.8c3.73,1.7 5.51,6.34 3.98,10.39z" fill="#263238" id="svg_359"/>
      </g>
     </g>
     <g id="svg_360">
      <g id="svg_361">
       <path d="m427.48,114.19l-6.42,12.32l-2.93,-1.03l-20.03,16.19l-4.98,-11.72c0,0 11.66,-4.82 13.95,-9.15c2.29,-4.33 -0.12,-5.44 -0.12,-5.44l5.63,-6.39l14.89,5.21z" fill="#263238" id="svg_362"/>
      </g>
     </g>
     <g id="svg_363">
      <g id="svg_364">
       <path d="m354.11,79.14c-5.21,16.47 -6.74,30.82 -3.39,32.06c3.34,1.24 10.27,-11.11 15.49,-27.58c5.21,-16.47 6.74,-30.82 3.39,-32.06c-3.34,-1.24 -10.27,11.11 -15.49,27.58z" fill="#263238" id="svg_365"/>
      </g>
     </g>
     <g id="svg_366">
      <g id="svg_367">
       <polygon fill="#455A64" id="svg_368" points="437.3839111328125,113.38033522803482 432.2068176269531,112.18441571078313 434.76165771484375,105.46099985690137 438.75360107421875,107.61364795540896 "/>
      </g>
     </g>
     <g id="svg_369">
      <g id="svg_370">
       <path d="m431.42,107.29c-0.06,0.19 -2.65,-0.61 -5.81,-1.78c-3.15,-1.17 -5.66,-2.27 -5.6,-2.45c0.07,-0.18 2.66,0.62 5.81,1.78c3.16,1.17 5.67,2.27 5.6,2.45z" fill="#455A64" id="svg_371"/>
      </g>
     </g>
     <g id="svg_372">
      <g id="svg_373">
       <path d="m429.82,111.5c-0.01,0.1 -0.62,0 -1.6,-0.22c-0.49,-0.12 -1.07,-0.26 -1.72,-0.43c-0.63,-0.18 -1.31,-0.47 -2.03,-0.73c-2.87,-1.1 -5.08,-2.25 -5.03,-2.42c0.06,-0.19 2.4,0.66 5.25,1.75c0.71,0.28 1.38,0.57 2,0.79c0.62,0.19 1.18,0.38 1.65,0.56c0.94,0.33 1.51,0.6 1.49,0.69z" fill="#455A64" id="svg_374"/>
      </g>
     </g>
     <g id="svg_375">
      <g id="svg_376">
       <path d="m367.23,74.24c0,0 -7.96,-4.28 -11.12,7.14c-3.15,11.43 4.92,12.43 4.92,12.43c2.77,-5.76 4.86,-12.26 6.21,-19.57z" fill="#FAFAFA" id="svg_377"/>
      </g>
     </g>
     <g id="svg_378">
      <g id="svg_379">
       <path d="m374.09,60.31c0.04,0.01 0,0.77 -0.11,2.14c-0.12,1.36 -0.29,3.35 -0.56,5.8c-0.21,1.21 -0.44,2.54 -0.7,3.96c-0.13,0.71 -0.27,1.45 -0.4,2.2c-0.08,0.38 -0.14,0.77 -0.21,1.15c-0.09,0.39 -0.2,0.78 -0.3,1.17c-0.41,1.57 -0.84,3.22 -1.28,4.92c-0.11,0.43 -0.23,0.86 -0.34,1.29c-0.11,0.44 -0.28,0.85 -0.42,1.29c-0.3,0.85 -0.6,1.72 -0.91,2.61c-0.3,0.88 -0.61,1.75 -0.91,2.61c-0.15,0.43 -0.28,0.86 -0.45,1.27c-0.18,0.41 -0.35,0.81 -0.53,1.22c-0.7,1.6 -1.37,3.15 -2.01,4.63c-0.17,0.36 -0.32,0.73 -0.49,1.08c-0.19,0.35 -0.36,0.69 -0.55,1.03c-0.35,0.67 -0.7,1.32 -1.04,1.95c-0.66,1.24 -1.29,2.42 -1.87,3.48c-1.27,2.03 -2.35,3.65 -3.09,4.77c-0.74,1.11 -1.17,1.71 -1.2,1.69c-0.04,-0.02 0.32,-0.68 0.99,-1.84c0.71,-1.18 1.7,-2.85 2.93,-4.89c0.54,-1.08 1.14,-2.25 1.79,-3.5c0.32,-0.63 0.65,-1.28 0.99,-1.95c0.18,-0.33 0.35,-0.67 0.53,-1.02c0.17,-0.35 0.31,-0.72 0.46,-1.09c0.63,-1.47 1.29,-3.01 1.98,-4.6c0.17,-0.41 0.34,-0.81 0.51,-1.21c0.19,-0.41 0.31,-0.85 0.46,-1.27c0.29,-0.85 0.59,-1.72 0.89,-2.6c0.3,-0.87 0.6,-1.73 0.89,-2.58c0.14,-0.43 0.31,-0.85 0.42,-1.28c0.12,-0.43 0.23,-0.85 0.34,-1.28c0.45,-1.69 0.89,-3.32 1.31,-4.88c0.1,-0.38 0.22,-0.77 0.3,-1.15c0.08,-0.38 0.15,-0.77 0.23,-1.15c0.14,-0.74 0.29,-1.47 0.42,-2.18c0.28,-1.41 0.54,-2.71 0.78,-3.92c0.31,-2.4 0.57,-4.35 0.76,-5.75c0.19,-1.35 0.31,-2.1 0.35,-2.1z" fill="#263238" id="svg_380"/>
      </g>
     </g>
     <g id="svg_381">
      <g id="svg_382">
       <path d="m403.37,120.57c-0.82,0.31 -1.28,1.3 -1.04,2.25c0.45,1.81 1.2,4.63 1.79,6.36c0.19,0.55 0.4,1.11 0.76,1.55c0.35,0.43 0.91,0.71 1.41,0.54c0.54,-0.18 0.88,-0.8 0.97,-1.42c0.08,-0.62 -0.06,-1.26 -0.2,-1.87c-0.38,-1.67 -1.06,-4.2 -1.66,-6.25c-0.28,-0.97 -1.19,-1.48 -2.04,-1.16l0,0z" fill="#FFBE9D" id="svg_383"/>
      </g>
     </g>
     <g id="svg_384">
      <g id="svg_385">
       <path d="m400.9,123.65c-0.83,0.31 -1.28,1.3 -1.05,2.25c0.46,1.81 1.22,4.63 1.8,6.35c0.19,0.56 0.4,1.12 0.75,1.55c0.36,0.44 0.92,0.72 1.42,0.55c0.54,-0.18 0.88,-0.8 0.96,-1.42c0.09,-0.62 -0.04,-1.26 -0.19,-1.87c-0.39,-1.67 -1.07,-4.21 -1.66,-6.27c-0.28,-0.96 -1.19,-1.47 -2.04,-1.15l0,0z" fill="#FFBE9D" id="svg_386"/>
      </g>
     </g>
     <g id="svg_387">
      <g id="svg_388">
       <path d="m398.58,125.54c-0.75,0.28 -1.16,1.12 -0.94,1.95c0.42,1.55 1.1,4.02 1.63,5.51c0.18,0.48 0.36,0.97 0.68,1.34c0.33,0.38 0.84,0.62 1.29,0.48c0.49,-0.16 0.8,-0.68 0.87,-1.23c0.07,-0.54 -0.06,-1.08 -0.19,-1.61c-0.34,-1.46 -0.97,-3.65 -1.51,-5.43c-0.25,-0.83 -1.08,-1.28 -1.84,-1l0,0z" fill="#FFBE9D" id="svg_389"/>
      </g>
     </g>
     <g id="svg_390">
      <g id="svg_391">
       <path d="m395.65,126.02c-0.75,0.28 -1.17,1.14 -0.95,1.95c0.43,1.57 1.12,4.04 1.66,5.54c0.17,0.49 0.35,0.98 0.68,1.36c0.33,0.37 0.84,0.61 1.29,0.47c0.5,-0.14 0.81,-0.68 0.88,-1.23c0.07,-0.54 -0.06,-1.09 -0.19,-1.61c-0.35,-1.47 -0.97,-3.67 -1.52,-5.47c-0.25,-0.84 -1.08,-1.28 -1.86,-1l0,0z" fill="#FFBE9D" id="svg_392"/>
      </g>
     </g>
     <g id="svg_393">
      <g id="svg_394">
       <path d="m404.73,130.8c-0.17,0.05 -0.75,-1.38 -1.33,-3.21c-0.56,-1.82 -0.89,-3.35 -0.74,-3.41c0.15,-0.06 0.75,1.38 1.31,3.21c0.57,1.82 0.91,3.35 0.75,3.41z" fill="#EB996E" id="svg_395"/>
      </g>
     </g>
     <g id="svg_396">
      <g id="svg_397">
       <path d="m402.07,133.3c-0.15,0.05 -0.78,-1.59 -1.39,-3.68c-0.61,-2.08 -0.98,-3.81 -0.82,-3.87c0.15,-0.06 0.78,1.59 1.39,3.68c0.62,2.08 0.98,3.83 0.82,3.87z" fill="#EB996E" id="svg_398"/>
      </g>
     </g>
     <g id="svg_399">
      <g id="svg_400">
       <path d="m399.47,133.47c-0.15,0.07 -0.87,-1.33 -1.45,-3.19c-0.59,-1.85 -0.8,-3.43 -0.63,-3.48c0.17,-0.04 0.63,1.45 1.2,3.28c0.56,1.83 1.03,3.31 0.87,3.4z" fill="#EB996E" id="svg_401"/>
      </g>
     </g>
     <g id="svg_402">
      <g id="svg_403">
       <path d="m399.15,111.33" fill="none" id="svg_404" stroke="#4E585D" stroke-miterlimit="10" stroke-width="0.05"/>
      </g>
     </g>
    </g>
    <g id="svg_405">
     <g id="svg_406">
      <g id="svg_407">
       <g id="svg_408">
        <g id="svg_409">
         <path d="m491.56,89.97c-4.21,-7.7 -11.82,-12.7 -19.78,-15.08c-3.36,-1 -5.63,-0.72 -9.09,-0.3c-3.46,0.42 -6.72,1.85 -9.13,4.57c-2.86,3.23 -5.4,6.96 -6.46,11.28c-1.09,4.44 -2.2,8.91 -2.52,13.49c-0.32,4.58 0.17,9.34 2.12,13.42l10.36,3.76c5.84,1.2 11.77,2.38 17.71,1.88c5.94,-0.5 11.97,-2.92 15.81,-7.85c5.32,-6.85 5.2,-17.46 0.99,-25.16z" fill="#263238" id="svg_410"/>
        </g>
       </g>
      </g>
     </g>
     <g id="svg_411">
      <g id="svg_412">
       <g id="svg_413">
        <g id="svg_414">
         <path d="m497.16,123.74c0.11,-2.64 -0.8,-5.41 -2.68,-7.08c-1.9,-1.67 -4.82,-2.02 -6.82,-0.48l-1.97,1.88c-2.79,0.78 -4.9,3.73 -5.01,6.85c-0.11,3.12 1.68,6.18 4.29,7.53c2.6,1.35 5.84,0.99 8.22,-0.77c2.39,-1.76 3.87,-4.82 3.98,-7.94z" fill="#263238" id="svg_415"/>
        </g>
       </g>
      </g>
     </g>
     <g id="svg_416">
      <g id="svg_417">
       <g id="svg_418">
        <g id="svg_419">
         <g id="svg_420">
          <path d="m493.96,131.17c-0.07,-0.05 0.77,-0.67 0.89,-2.2c0.12,-1.48 -0.6,-3.59 -1.7,-5.58c-1.14,-2.01 -2.6,-3.49 -3.74,-4.4c-1.15,-0.93 -1.97,-1.34 -1.92,-1.44c0.01,-0.05 0.89,0.23 2.13,1.1c1.24,0.85 2.81,2.34 3.98,4.44c0.6,1.04 1.04,2.1 1.33,3.12c0.3,1 0.43,2 0.31,2.81c-0.11,0.83 -0.45,1.42 -0.74,1.75c-0.29,0.33 -0.51,0.43 -0.53,0.41z" fill="#455A64" id="svg_421"/>
         </g>
        </g>
       </g>
      </g>
     </g>
     <g id="svg_422">
      <g id="svg_423">
       <g id="svg_424">
        <g id="svg_425">
         <g id="svg_426">
          <path d="m488.34,133.73c-0.18,-0.05 1.04,-3.41 0.6,-7.7c-0.39,-4.29 -2.22,-7.31 -2.07,-7.38c0.06,-0.04 0.57,0.65 1.17,1.94c0.6,1.28 1.2,3.19 1.41,5.38c0.21,2.2 -0.01,4.21 -0.35,5.6c-0.33,1.39 -0.71,2.19 -0.76,2.16z" fill="#455A64" id="svg_427"/>
         </g>
        </g>
       </g>
      </g>
     </g>
     <g id="svg_428">
      <g id="svg_429">
       <g id="svg_430">
        <g id="svg_431">
         <g id="svg_432">
          <g id="svg_433">
           <g id="svg_434">
            <g id="svg_435">
             <g id="svg_436">
              <g id="svg_437">
               <path d="m453.54,145.15c0.64,-4.03 2.08,-12.68 2.07,-12.65c0,0 -8.53,-2.48 -9.23,-14.91c-0.35,-6.18 0.83,-16.14 2.03,-24.27c1.08,-7.31 8.24,-16.32 16.59,-14.97l3.77,0.14l13.33,8.46c2.03,0.44 3.41,2.51 3.17,4.75l-7.3,52.24l-20.67,43.78l-4.67,-31.06l0.92,-11.5z" fill="#FFBE9D" id="svg_438"/>
              </g>
             </g>
            </g>
           </g>
          </g>
         </g>
        </g>
       </g>
       <g id="svg_439">
        <g id="svg_440">
         <g id="svg_441">
          <g id="svg_442">
           <g id="svg_443">
            <g id="svg_444">
             <g id="svg_445">
              <g id="svg_446">
               <g id="svg_447">
                <g id="svg_448">
                 <g id="svg_449">
                  <g id="svg_450">
                   <g id="svg_451">
                    <g id="svg_452">
                     <g id="svg_453">
                      <g id="svg_454">
                       <g id="svg_455">
                        <g id="svg_456">
                         <g id="svg_457">
                          <g id="svg_458">
                           <g id="svg_459">
                            <g id="svg_460">
                             <path d="m452.25,102.23c-0.1,0.84 0.46,1.6 1.26,1.73c0.8,0.13 1.52,-0.43 1.62,-1.26c0.1,-0.83 -0.46,-1.6 -1.26,-1.73c-0.8,-0.13 -1.52,0.43 -1.62,1.26z" fill="#263238" id="svg_461"/>
                            </g>
                           </g>
                          </g>
                         </g>
                        </g>
                       </g>
                      </g>
                     </g>
                    </g>
                   </g>
                  </g>
                 </g>
                </g>
               </g>
              </g>
             </g>
            </g>
           </g>
          </g>
          <g id="svg_462">
           <g id="svg_463">
            <g id="svg_464">
             <g id="svg_465">
              <g id="svg_466">
               <g id="svg_467">
                <g id="svg_468">
                 <g id="svg_469">
                  <g id="svg_470">
                   <g id="svg_471">
                    <g id="svg_472">
                     <g id="svg_473">
                      <g id="svg_474">
                       <g id="svg_475">
                        <g id="svg_476">
                         <g id="svg_477">
                          <g id="svg_478">
                           <g id="svg_479">
                            <g id="svg_480">
                             <g id="svg_481">
                              <path d="m450.53,98.28c0.17,0.23 1.35,-0.54 2.91,-0.37c1.57,0.14 2.63,1.14 2.82,0.94c0.1,-0.08 -0.06,-0.48 -0.52,-0.92c-0.45,-0.44 -1.26,-0.91 -2.23,-1c-0.97,-0.1 -1.82,0.2 -2.33,0.55c-0.52,0.35 -0.72,0.71 -0.64,0.8z" fill="#263238" id="svg_482"/>
                             </g>
                            </g>
                           </g>
                          </g>
                         </g>
                        </g>
                       </g>
                      </g>
                     </g>
                    </g>
                   </g>
                  </g>
                 </g>
                </g>
               </g>
              </g>
             </g>
            </g>
           </g>
          </g>
          <g id="svg_483">
           <g id="svg_484">
            <g id="svg_485">
             <g id="svg_486">
              <g id="svg_487">
               <g id="svg_488">
                <g id="svg_489">
                 <g id="svg_490">
                  <g id="svg_491">
                   <g id="svg_492">
                    <g id="svg_493">
                     <g id="svg_494">
                      <g id="svg_495">
                       <g id="svg_496">
                        <g id="svg_497">
                         <g id="svg_498">
                          <g id="svg_499">
                           <g id="svg_500">
                            <g id="svg_501">
                             <path d="m458.48,112.6c0.01,-0.1 -0.94,-0.38 -2.5,-0.77c-0.4,-0.08 -0.76,-0.2 -0.81,-0.51c-0.07,-0.32 0.14,-0.77 0.39,-1.24c0.46,-1.02 0.96,-2.07 1.47,-3.17c2.05,-4.51 3.59,-8.24 3.42,-8.32c-0.18,-0.08 -1.98,3.49 -4.03,8.01c-0.5,1.11 -0.97,2.16 -1.42,3.18c-0.2,0.48 -0.51,1 -0.36,1.67c0.09,0.33 0.35,0.6 0.61,0.71c0.24,0.11 0.46,0.13 0.66,0.17c1.58,0.26 2.55,0.37 2.57,0.28z" fill="#263238" id="svg_502"/>
                            </g>
                           </g>
                          </g>
                         </g>
                        </g>
                       </g>
                      </g>
                     </g>
                    </g>
                   </g>
                  </g>
                 </g>
                </g>
               </g>
              </g>
             </g>
            </g>
           </g>
          </g>
          <g id="svg_503">
           <g id="svg_504">
            <g id="svg_505">
             <g id="svg_506">
              <g id="svg_507">
               <g id="svg_508">
                <g id="svg_509">
                 <g id="svg_510">
                  <g id="svg_511">
                   <g id="svg_512">
                    <g id="svg_513">
                     <g id="svg_514">
                      <g id="svg_515">
                       <g id="svg_516">
                        <g id="svg_517">
                         <g id="svg_518">
                          <g id="svg_519">
                           <g id="svg_520">
                            <path d="m455.61,132.5c0,0 7.57,1.33 15.55,-2.79c0,0 -4.79,8.06 -16.03,5.73l0.47,-2.94z" fill="#EB996E" id="svg_521"/>
                           </g>
                          </g>
                         </g>
                        </g>
                       </g>
                      </g>
                     </g>
                    </g>
                   </g>
                  </g>
                 </g>
                </g>
               </g>
              </g>
             </g>
            </g>
           </g>
          </g>
          <g id="svg_522">
           <g id="svg_523">
            <g id="svg_524">
             <g id="svg_525">
              <g id="svg_526">
               <g id="svg_527">
                <g id="svg_528">
                 <g id="svg_529">
                  <g id="svg_530">
                   <g id="svg_531">
                    <g id="svg_532">
                     <g id="svg_533">
                      <g id="svg_534">
                       <g id="svg_535">
                        <g id="svg_536">
                         <g id="svg_537">
                          <g id="svg_538">
                           <g id="svg_539">
                            <g id="svg_540">
                             <g id="svg_541">
                              <g id="svg_542">
                               <path d="m451.75,92.31c0.24,0.42 1.36,0.13 2.65,0.25c1.3,0.06 2.36,0.5 2.65,0.13c0.13,-0.18 0,-0.59 -0.45,-1c-0.44,-0.41 -1.2,-0.79 -2.09,-0.85c-0.89,-0.06 -1.7,0.2 -2.19,0.55c-0.49,0.35 -0.67,0.73 -0.57,0.92z" fill="#263238" id="svg_543"/>
                              </g>
                             </g>
                            </g>
                           </g>
                          </g>
                         </g>
                        </g>
                       </g>
                      </g>
                     </g>
                    </g>
                   </g>
                  </g>
                 </g>
                </g>
               </g>
              </g>
             </g>
            </g>
           </g>
          </g>
          <g id="svg_544">
           <g id="svg_545">
            <g id="svg_546">
             <g id="svg_547">
              <g id="svg_548">
               <g id="svg_549">
                <g id="svg_550">
                 <g id="svg_551">
                  <g id="svg_552">
                   <g id="svg_553">
                    <g id="svg_554">
                     <g id="svg_555">
                      <g id="svg_556">
                       <g id="svg_557">
                        <g id="svg_558">
                         <g id="svg_559">
                          <g id="svg_560">
                           <g id="svg_561">
                            <g id="svg_562">
                             <path d="m470.11,103.47c-0.08,0.83 -0.78,1.45 -1.59,1.38c-0.81,-0.07 -1.39,-0.8 -1.31,-1.63c0.08,-0.84 0.78,-1.45 1.59,-1.38c0.8,0.07 1.39,0.79 1.31,1.63z" fill="#263238" id="svg_563"/>
                            </g>
                           </g>
                          </g>
                         </g>
                        </g>
                       </g>
                      </g>
                     </g>
                    </g>
                   </g>
                  </g>
                 </g>
                </g>
               </g>
              </g>
             </g>
            </g>
           </g>
          </g>
          <g id="svg_564">
           <g id="svg_565">
            <g id="svg_566">
             <g id="svg_567">
              <g id="svg_568">
               <g id="svg_569">
                <g id="svg_570">
                 <g id="svg_571">
                  <g id="svg_572">
                   <g id="svg_573">
                    <g id="svg_574">
                     <g id="svg_575">
                      <g id="svg_576">
                       <g id="svg_577">
                        <g id="svg_578">
                         <g id="svg_579">
                          <g id="svg_580">
                           <g id="svg_581">
                            <g id="svg_582">
                             <g id="svg_583">
                              <path d="m471.21,99.69c-0.21,0.18 -1.19,-0.86 -2.75,-1.09c-1.55,-0.24 -2.79,0.45 -2.94,0.23c-0.08,-0.11 0.15,-0.44 0.71,-0.77c0.53,-0.31 1.41,-0.57 2.39,-0.43c0.96,0.14 1.73,0.66 2.15,1.11c0.42,0.47 0.54,0.86 0.44,0.94z" fill="#263238" id="svg_584"/>
                             </g>
                            </g>
                           </g>
                          </g>
                         </g>
                        </g>
                       </g>
                      </g>
                     </g>
                    </g>
                   </g>
                  </g>
                 </g>
                </g>
               </g>
              </g>
             </g>
            </g>
           </g>
          </g>
          <g id="svg_585">
           <g id="svg_586">
            <g id="svg_587">
             <g id="svg_588">
              <g id="svg_589">
               <g id="svg_590">
                <g id="svg_591">
                 <g id="svg_592">
                  <g id="svg_593">
                   <g id="svg_594">
                    <g id="svg_595">
                     <g id="svg_596">
                      <g id="svg_597">
                       <g id="svg_598">
                        <g id="svg_599">
                         <g id="svg_600">
                          <g id="svg_601">
                           <g id="svg_602">
                            <g id="svg_603">
                             <g id="svg_604">
                              <g id="svg_605">
                               <path d="m470.97,93.93c-0.32,0.33 -1.35,-0.22 -2.63,-0.42c-1.28,-0.25 -2.42,-0.1 -2.62,-0.53c-0.09,-0.22 0.13,-0.57 0.65,-0.86c0.52,-0.3 1.34,-0.48 2.22,-0.31c0.88,0.16 1.61,0.61 2.01,1.06c0.41,0.47 0.51,0.88 0.36,1.05z" fill="#263238" id="svg_606"/>
                              </g>
                             </g>
                            </g>
                           </g>
                          </g>
                         </g>
                        </g>
                       </g>
                      </g>
                     </g>
                    </g>
                   </g>
                  </g>
                 </g>
                </g>
               </g>
              </g>
             </g>
            </g>
           </g>
          </g>
         </g>
        </g>
       </g>
      </g>
     </g>
     <g id="svg_607">
      <g id="svg_608">
       <g id="svg_609">
        <g id="svg_610">
         <g id="svg_611">
          <path d="m482.87,108.84l-2.25,1.87c-7.17,-10.08 -20.5,-34.56 -19.77,-33.11c0,0 6.12,-1.61 12.19,0.56c6.08,2.19 17.44,7.52 16.14,15.46c-1.3,7.94 -6.31,15.22 -6.31,15.22z" fill="#263238" id="svg_612"/>
         </g>
        </g>
       </g>
      </g>
     </g>
     <g id="svg_613">
      <g id="svg_614">
       <g id="svg_615">
        <g id="svg_616">
         <g id="svg_617">
          <path d="m487.51,116.66c-0.04,-0.01 0.07,-0.69 0.2,-1.94c0.13,-1.24 0.23,-3.05 0.09,-5.27c-0.23,-4.44 -1.75,-10.55 -5.1,-16.32c-3.36,-5.76 -7.59,-10.05 -10.73,-12.93c-1.58,-1.44 -2.91,-2.55 -3.83,-3.31c-0.92,-0.77 -1.42,-1.2 -1.4,-1.22c0.01,-0.02 0.15,0.06 0.41,0.24c0.27,0.18 0.64,0.44 1.12,0.8c0.96,0.71 2.32,1.77 3.94,3.18c3.23,2.81 7.53,7.09 10.95,12.94c3.4,5.85 4.88,12.1 5.03,16.6c0.09,2.26 -0.06,4.09 -0.25,5.33c-0.08,0.62 -0.21,1.1 -0.27,1.42c-0.08,0.31 -0.12,0.49 -0.14,0.48z" fill="#455A64" id="svg_618"/>
         </g>
        </g>
       </g>
      </g>
     </g>
     <g id="svg_619">
      <g id="svg_620">
       <g id="svg_621">
        <g id="svg_622">
         <g id="svg_623">
          <path d="m471.63,75.97c0.01,-0.01 0.15,0.07 0.42,0.24c0.28,0.17 0.66,0.42 1.16,0.77c0.98,0.69 2.4,1.73 4.06,3.15c1.67,1.4 3.6,3.16 5.6,5.27c1.98,2.12 4.14,4.52 5.85,7.52c0.86,1.49 1.52,3.09 1.96,4.69c0.43,1.6 0.61,3.21 0.62,4.74c0.01,3.06 -0.55,5.75 -1.14,7.95c-0.6,2.2 -1.23,3.92 -1.67,5.11c-0.22,0.59 -0.4,1.04 -0.53,1.35c-0.13,0.3 -0.21,0.45 -0.22,0.45c-0.03,-0.02 0.18,-0.68 0.56,-1.89c0.38,-1.21 0.95,-2.94 1.49,-5.13c0.54,-2.19 1.06,-4.86 1.02,-7.83c-0.02,-1.48 -0.21,-3.05 -0.63,-4.59c-0.42,-1.55 -1.07,-3.09 -1.9,-4.54c-1.68,-2.93 -3.81,-5.32 -5.75,-7.45c-1.97,-2.12 -3.85,-3.9 -5.49,-5.33c-1.62,-1.44 -2.99,-2.52 -3.94,-3.26c-0.96,-0.75 -1.49,-1.16 -1.47,-1.2z" fill="#455A64" id="svg_624"/>
         </g>
        </g>
       </g>
      </g>
     </g>
     <g id="svg_625">
      <g id="svg_626">
       <g id="svg_627">
        <g id="svg_628">
         <g id="svg_629">
          <path d="m482.99,109.08c-0.03,0.02 -0.33,-0.42 -0.85,-1.22c-0.56,-0.9 -1.29,-2.05 -2.16,-3.42c-1.8,-2.89 -4.26,-6.92 -6.95,-11.4c-2.7,-4.46 -5.1,-8.53 -6.83,-11.49c-0.82,-1.41 -1.49,-2.58 -2.02,-3.52c-0.46,-0.84 -0.71,-1.32 -0.67,-1.33c0.02,-0.02 0.33,0.41 0.85,1.21c0.56,0.9 1.29,2.05 2.15,3.42c1.8,2.89 4.26,6.92 6.96,11.4c2.7,4.47 5.1,8.54 6.83,11.49c0.81,1.41 1.49,2.6 2.02,3.52c0.46,0.84 0.71,1.32 0.67,1.34z" fill="#455A64" id="svg_630"/>
         </g>
        </g>
       </g>
      </g>
     </g>
     <g id="svg_631">
      <g id="svg_632">
       <g id="svg_633">
        <g id="svg_634">
         <g id="svg_635">
          <g id="svg_636">
           <g id="svg_637">
            <g id="svg_638">
             <g id="svg_639">
              <g id="svg_640">
               <g id="svg_641">
                <g id="svg_642">
                 <g id="svg_643">
                  <g id="svg_644">
                   <g id="svg_645">
                    <g id="svg_646">
                     <g id="svg_647">
                      <g id="svg_648">
                       <g id="svg_649">
                        <path d="m480.72,112.08c0.09,-0.91 1.26,-2.97 2.1,-3.01c2.25,-0.14 6.24,0.47 5.73,6.59c-0.7,8.36 -8.3,5.87 -8.3,5.63c0.01,-0.19 0.18,-6.06 0.46,-9.21z" fill="#FFBE9D" id="svg_650"/>
                       </g>
                      </g>
                     </g>
                    </g>
                   </g>
                  </g>
                 </g>
                </g>
               </g>
              </g>
             </g>
            </g>
           </g>
          </g>
         </g>
        </g>
       </g>
      </g>
      <g id="svg_651">
       <g id="svg_652">
        <g id="svg_653">
         <g id="svg_654">
          <g id="svg_655">
           <g id="svg_656">
            <g id="svg_657">
             <g id="svg_658">
              <g id="svg_659">
               <g id="svg_660">
                <g id="svg_661">
                 <g id="svg_662">
                  <g id="svg_663">
                   <g id="svg_664">
                    <g id="svg_665">
                     <g id="svg_666">
                      <g id="svg_667">
                       <g id="svg_668">
                        <g id="svg_669">
                         <path d="m482.38,118.15c0.03,-0.02 0.12,0.12 0.34,0.25c0.21,0.13 0.59,0.25 1.01,0.12c0.84,-0.24 1.65,-1.58 1.81,-3.07c0.08,-0.77 -0.01,-1.51 -0.21,-2.13c-0.18,-0.63 -0.51,-1.1 -0.92,-1.22c-0.4,-0.13 -0.71,0.1 -0.83,0.32c-0.12,0.23 -0.09,0.39 -0.13,0.41c-0.02,0.02 -0.15,-0.16 -0.06,-0.49c0.04,-0.17 0.15,-0.36 0.34,-0.5c0.2,-0.14 0.49,-0.2 0.76,-0.13c0.6,0.1 1.08,0.74 1.3,1.44c0.24,0.68 0.36,1.52 0.27,2.37c-0.19,1.69 -1.12,3.18 -2.26,3.42c-0.55,0.11 -0.99,-0.12 -1.2,-0.33c-0.22,-0.24 -0.25,-0.42 -0.22,-0.44z" fill="#EB996E" id="svg_670"/>
                        </g>
                       </g>
                      </g>
                     </g>
                    </g>
                   </g>
                  </g>
                 </g>
                </g>
               </g>
              </g>
             </g>
            </g>
           </g>
          </g>
         </g>
        </g>
       </g>
      </g>
     </g>
    </g>
    <g id="svg_671">
     <g id="svg_672">
      <g id="svg_673">
       <g id="svg_674">
        <g id="svg_675">
         <path d="m498.85,421.58c-0.15,1.32 -3.15,38.1 -3.15,38.1l-15.56,0l-2.73,-37.95l21.44,-0.16z" fill="#FFBE9D" id="svg_676"/>
        </g>
       </g>
      </g>
     </g>
     <g id="svg_677">
      <g id="svg_678">
       <g id="svg_679">
        <g id="svg_680">
         <g id="svg_681">
          <g id="svg_682">
           <path d="m480.1,454.2c0,0 10.94,8.41 16.22,1.14l1.39,3.52l6.21,25.1c0.41,1.61 -0.3,3.41 -1.75,4.03c-1.12,0.47 -2.34,0.2 -3.18,-0.66c-4.5,-4.63 -20.95,-21.75 -20.79,-24.07l0.06,-6.17c0.02,-1.27 0.75,-2.42 1.84,-2.88l0,0z" fill="#FF725E" id="svg_683"/>
          </g>
         </g>
        </g>
       </g>
      </g>
      <g id="svg_684">
       <g id="svg_685">
        <g id="svg_686">
         <g id="svg_687">
          <g id="svg_688">
           <path d="m501.63,488.15l-23.44,-27.04l0.01,1.34c-0.12,1.46 0.46,2.03 1.1,2.97c1.9,2.77 7.15,8.97 19.6,21.91c0.73,0.75 1.76,1.06 2.73,0.83l0,0z" fill="#263238" id="svg_689"/>
          </g>
         </g>
        </g>
       </g>
      </g>
      <g id="svg_690">
       <g id="svg_691">
        <g id="svg_692">
         <g id="svg_693">
          <g id="svg_694">
           <g id="svg_695">
            <path d="m481.62,457.09c0.74,0.55 0.98,1.76 0.51,2.57c-0.47,0.83 -1.6,1.1 -2.35,0.57c-0.74,-0.54 -1.08,-1.97 -0.52,-2.73c0.55,-0.75 1.89,-1.02 2.5,-0.3" fill="#FFFFFF" id="svg_696"/>
           </g>
          </g>
         </g>
        </g>
       </g>
      </g>
      <g id="svg_697">
       <g id="svg_698">
        <g id="svg_699">
         <g id="svg_700">
          <g id="svg_701">
           <g id="svg_702">
            <path d="m494.88,474.3c0.17,0.08 0.82,-1.58 2.56,-2.49c1.71,-0.96 3.34,-0.51 3.37,-0.72c0.03,-0.07 -0.34,-0.32 -1.03,-0.42c-0.68,-0.11 -1.68,0 -2.63,0.51c-0.95,0.51 -1.63,1.3 -1.97,1.96c-0.34,0.65 -0.39,1.12 -0.31,1.15z" fill="#263238" id="svg_703"/>
           </g>
          </g>
         </g>
        </g>
       </g>
      </g>
      <g id="svg_704">
       <g id="svg_705">
        <g id="svg_706">
         <g id="svg_707">
          <g id="svg_708">
           <g id="svg_709">
            <path d="m496.98,478.55c0.14,0.13 1.08,-0.91 2.6,-1.38c1.5,-0.51 2.82,-0.22 2.86,-0.42c0.09,-0.17 -1.33,-0.83 -3.05,-0.25c-1.72,0.55 -2.56,1.95 -2.41,2.05z" fill="#263238" id="svg_710"/>
           </g>
          </g>
         </g>
        </g>
       </g>
      </g>
      <g id="svg_711">
       <g id="svg_712">
        <g id="svg_713">
         <g id="svg_714">
          <g id="svg_715">
           <g id="svg_716">
            <path d="m490.97,468.86c0.13,0.16 1.57,-1.45 3.87,-2.42c2.29,-1 4.34,-0.91 4.35,-1.11c0.04,-0.18 -2.14,-0.61 -4.6,0.47c-2.45,1.04 -3.77,2.98 -3.62,3.06z" fill="#263238" id="svg_717"/>
           </g>
          </g>
         </g>
        </g>
       </g>
      </g>
      <g id="svg_718">
       <g id="svg_719">
        <g id="svg_720">
         <g id="svg_721">
          <g id="svg_722">
           <g id="svg_723">
            <path d="m490.44,461.22c0.09,0.19 1.7,-0.55 3.81,-0.63c2.11,-0.13 3.79,0.44 3.84,0.25c0.08,-0.16 -1.61,-1.08 -3.88,-0.96c-2.26,0.11 -3.87,1.2 -3.78,1.34z" fill="#263238" id="svg_724"/>
           </g>
          </g>
         </g>
        </g>
       </g>
      </g>
      <g id="svg_725">
       <g id="svg_726">
        <g id="svg_727">
         <g id="svg_728">
          <g id="svg_729">
           <g id="svg_730">
            <path d="m495.45,460.51c0.03,-0.01 0.02,-0.44 -0.17,-1.18c-0.2,-0.75 -0.6,-1.82 -1.4,-2.92c-0.41,-0.53 -0.86,-1.2 -1.75,-1.45c-0.43,-0.13 -1.02,0.07 -1.28,0.55c-0.28,0.48 -0.3,1.02 -0.22,1.51c0.38,1.97 2.28,3.58 4.39,3.44c2.11,-0.18 3.77,-1.83 4.29,-3.71c0.1,-0.48 0.13,-1.05 -0.18,-1.53c-0.32,-0.49 -0.94,-0.59 -1.34,-0.42c-0.84,0.31 -1.28,0.96 -1.71,1.45c-0.85,1.06 -1.3,2.1 -1.56,2.82c-0.24,0.73 -0.29,1.16 -0.25,1.17c0.12,0.06 0.46,-1.67 2.14,-3.66c0.43,-0.47 0.92,-1.04 1.52,-1.23c0.3,-0.1 0.57,-0.01 0.73,0.23c0.15,0.23 0.17,0.63 0.07,1.02c-0.45,1.53 -1.97,3.05 -3.74,3.17c-1.78,0.13 -3.45,-1.28 -3.77,-2.87c-0.07,-0.38 -0.04,-0.79 0.11,-1.05c0.14,-0.26 0.42,-0.38 0.71,-0.32c0.61,0.13 1.09,0.72 1.49,1.2c1.61,2.05 1.8,3.85 1.92,3.79z" fill="#263238" id="svg_731"/>
           </g>
          </g>
         </g>
        </g>
       </g>
      </g>
     </g>
    </g>
    <g id="svg_732">
     <g id="svg_733">
      <g id="svg_734">
       <polygon fill="#FFBE9D" id="svg_735" points="413.390380859375,409.614779121007 416.07232666015625,456.56031126054506 434.91961669921875,456.4180006707294 438.1041259765625,407.6427689850417 "/>
      </g>
     </g>
     <g id="svg_736">
      <g id="svg_737">
       <path d="m415.73,450.9l-0.01,1.36c0,0 -21.29,9.15 -21.53,13.51l42.19,-0.05l-0.6,-15.21c-6.26,3.16 -12.82,3.52 -20.06,0.38z" fill="#FF725E" id="svg_738"/>
      </g>
     </g>
     <g id="svg_739">
      <g id="svg_740">
       <path d="m431.53,455.38c0.82,0.24 1.38,1.23 1.19,2.13c-0.19,0.9 -1.12,1.53 -1.93,1.3c-0.83,-0.23 -1.54,-1.4 -1.26,-2.26c0.29,-0.87 1.41,-1.54 2.15,-1.11" fill="#FFFFFF" id="svg_741"/>
      </g>
     </g>
     <g id="svg_742">
      <g id="svg_743">
       <path d="m436.39,465.73l-0.14,-3.66l-40.38,1.39c0,0 -1.88,0.88 -1.67,2.32l42.19,-0.05z" fill="#263238" id="svg_744"/>
      </g>
     </g>
     <g id="svg_745">
      <g id="svg_746">
       <path d="m415.57,452.38c0.01,0.23 1.04,0.32 2.05,1.04c1.03,0.69 1.56,1.66 1.75,1.57c0.19,-0.04 -0.12,-1.38 -1.36,-2.22c-1.24,-0.85 -2.49,-0.59 -2.44,-0.38z" fill="#263238" id="svg_747"/>
      </g>
     </g>
     <g id="svg_748">
      <g id="svg_749">
       <path d="m411.15,454.38c-0.04,0.22 0.84,0.59 1.55,1.53c0.72,0.92 0.91,1.94 1.1,1.94c0.2,0.02 0.33,-1.28 -0.55,-2.43c-0.88,-1.16 -2.1,-1.26 -2.1,-1.04z" fill="#263238" id="svg_750"/>
      </g>
     </g>
     <g id="svg_751">
      <g id="svg_752">
       <path d="m408.64,460.1c0.19,0.05 0.47,-1.06 -0.06,-2.28c-0.53,-1.22 -1.5,-1.71 -1.59,-1.52c-0.11,0.18 0.52,0.84 0.94,1.84c0.44,1 0.5,1.95 0.71,1.96z" fill="#263238" id="svg_753"/>
      </g>
     </g>
    </g>
    <g id="svg_754">
     <g id="svg_755">
      <g id="svg_756">
       <path d="m438.1,264.31c-0.56,1.76 -22.91,83.74 -22.91,83.74l-3.84,97.26l27.81,1.73l9.96,-97.11l25.41,-60.74l-11.17,-49.42l-22.73,0l-2.53,24.53z" fill="#263238" id="svg_757"/>
      </g>
     </g>
     <g id="svg_758">
      <g id="svg_759">
       <path d="m457.9,239.78c0.4,1.17 14.66,56.81 14.66,56.81l1.98,82.92l0,68.61l25.35,0l11.81,-151.31c0,0 2.09,-27.46 -1.48,-36.75c-3.57,-9.3 -18.02,-25.48 -18.02,-25.48l-34.3,5.2z" fill="#263238" id="svg_760"/>
      </g>
     </g>
     <g id="svg_761">
      <g id="svg_762">
       <g id="svg_763">
        <path d="m459.94,245.47c0.03,-0.01 0.24,0.68 0.57,1.94c0.36,1.35 0.85,3.15 1.44,5.31c1.27,4.58 2.97,10.72 4.86,17.5c1.87,6.85 3.4,13.11 4.29,17.7c0.46,2.28 0.76,4.15 0.94,5.45c0.18,1.29 0.25,2.01 0.21,2.02c-0.04,0 -0.19,-0.71 -0.43,-1.99c-0.24,-1.28 -0.61,-3.12 -1.12,-5.39c-0.98,-4.56 -2.57,-10.78 -4.44,-17.62c-1.88,-6.84 -3.59,-13.04 -4.71,-17.56c-0.56,-2.25 -0.99,-4.09 -1.26,-5.37c-0.27,-1.28 -0.4,-1.99 -0.35,-2z" fill="#455A64" id="svg_764"/>
       </g>
      </g>
     </g>
     <g id="svg_765">
      <g id="svg_766">
       <g id="svg_767">
        <path d="m468.69,245.47c0.03,0.1 -0.88,0.13 -1.59,1.23c-0.33,0.53 -0.53,1.33 -0.22,2.1c0.28,0.75 1.02,1.45 1.88,1.49c0.86,0.04 1.66,-0.59 2,-1.3c0.38,-0.73 0.24,-1.55 -0.04,-2.12c-0.6,-1.17 -1.52,-1.29 -1.47,-1.39c0,-0.04 0.21,-0.06 0.57,0.07c0.36,0.13 0.86,0.45 1.25,1.1c0.39,0.61 0.61,1.64 0.17,2.58c-0.41,0.92 -1.36,1.72 -2.5,1.67c-1.15,-0.07 -2.02,-0.96 -2.35,-1.91c-0.35,-0.98 -0.04,-2 0.39,-2.56c0.43,-0.6 0.96,-0.87 1.34,-0.97c0.38,-0.1 0.59,-0.05 0.59,-0.01z" fill="#455A64" id="svg_768"/>
       </g>
      </g>
     </g>
     <g id="svg_769">
      <g id="svg_770">
       <g id="svg_771">
        <path d="m491.19,285.42c0.01,0 0.02,0.14 0.03,0.42c0,0.31 0.01,0.71 0.02,1.22c0.01,1.12 0.02,2.7 0.03,4.71c0.02,4.1 -0.02,10.02 -0.12,17.34c-0.21,14.64 -0.81,34.84 -1.6,57.15c-0.8,22.32 -1.46,42.53 -1.77,57.15c-0.15,7.32 -0.27,13.24 -0.31,17.33c-0.03,2.01 -0.06,3.59 -0.07,4.71c-0.02,0.5 -0.03,0.91 -0.04,1.22c-0.01,0.28 -0.01,0.42 -0.02,0.42c-0.01,0 -0.02,-0.14 -0.03,-0.42c0,-0.31 -0.01,-0.71 -0.02,-1.22c-0.01,-1.12 -0.02,-2.7 -0.03,-4.71c-0.02,-4.1 0.02,-10.02 0.12,-17.34c0.2,-14.63 0.81,-34.85 1.6,-57.16c0.8,-22.32 1.46,-42.51 1.77,-57.14c0.15,-7.32 0.25,-13.24 0.3,-17.33c0.03,-2.01 0.07,-3.59 0.08,-4.71c0.02,-0.51 0.03,-0.91 0.03,-1.22c0.02,-0.28 0.02,-0.42 0.03,-0.42z" fill="#455A64" id="svg_772"/>
       </g>
      </g>
     </g>
     <g id="svg_773">
      <g id="svg_774">
       <g id="svg_775">
        <path d="m452.07,275.43c0.01,0 -0.03,0.14 -0.12,0.42c-0.11,0.31 -0.25,0.72 -0.43,1.23c-0.41,1.11 -0.98,2.69 -1.71,4.71c-1.51,4.11 -3.7,10.01 -6.38,17.28c-2.64,7.32 -5.77,16.05 -8.7,25.93c-2.93,9.87 -5.81,20.92 -7.01,32.8c-0.59,5.96 -0.84,11.82 -1.17,17.45c-0.29,5.64 -0.55,11.09 -0.82,16.28c-0.5,10.38 -0.94,19.72 -1.31,27.58c-0.4,7.85 -0.77,14.2 -1.07,18.57c-0.17,2.16 -0.29,3.86 -0.38,5.05c-0.06,0.55 -0.09,0.98 -0.12,1.32c-0.03,0.29 -0.04,0.44 -0.06,0.44c-0.01,0 -0.01,-0.16 0,-0.45c0.01,-0.32 0.03,-0.75 0.06,-1.32c0.07,-1.18 0.15,-2.88 0.28,-5.05c0.23,-4.39 0.54,-10.74 0.89,-18.58c0.33,-7.86 0.74,-17.21 1.18,-27.58c0.25,-5.19 0.51,-10.64 0.78,-16.29c0.33,-5.64 0.57,-11.49 1.16,-17.47c1.22,-11.97 4.13,-23.05 7.08,-32.92c2.98,-9.89 6.14,-18.61 8.84,-25.9c2.72,-7.3 4.99,-13.16 6.55,-17.21c0.78,-2.01 1.38,-3.58 1.81,-4.68c0.21,-0.5 0.36,-0.91 0.49,-1.21c0.11,-0.26 0.17,-0.41 0.18,-0.39z" fill="#455A64" id="svg_776"/>
       </g>
      </g>
     </g>
    </g>
    <g id="svg_777">
     <g id="svg_778">
      <path d="m490.32,141.88c0,0 15.08,3.05 18.39,6.04c3.25,2.92 33.51,45.64 34.14,54.25c0.63,8.61 -3.05,11.77 -5.14,13.81s-38.19,28.56 -38.19,28.56l-11.1,-19.94l31.19,-20.18l-15.06,-27.88l-14.25,-34.67z" fill="#FF725E" id="svg_779"/>
     </g>
    </g>
    <g id="svg_780">
     <g id="svg_781">
      <g id="svg_782">
       <path d="m529.69,196.8c0.03,0.19 -2.98,0.17 -5.99,2.25c-3.04,2.01 -4.33,4.96 -4.48,4.84c-0.06,-0.02 0.17,-0.8 0.83,-1.89c0.65,-1.08 1.79,-2.43 3.35,-3.49c1.57,-1.05 3.19,-1.57 4.37,-1.73c1.18,-0.17 1.92,-0.05 1.92,0.02z" fill="#FF725E" id="svg_783"/>
      </g>
     </g>
    </g>
    <g id="svg_784">
     <g id="svg_785">
      <g id="svg_786">
       <path d="m453.78,143.95l4,39.27l20.4,-44.28l13.16,14.47c0,0 8.07,51.72 8.18,52.09c0.12,0.37 -5.53,29.59 -5.53,29.59l-37.38,7.83l-11.41,-3.15l-1.8,-46.01l-0.8,-35.23l11.18,-14.59z" fill="#FFFFFF" id="svg_787"/>
      </g>
     </g>
     <g id="svg_788">
      <g id="svg_789">
       <g id="svg_790">
        <g id="svg_791">
         <path d="m448.93,145.63l-9.71,2.44c-1.29,0.32 -2.5,0.98 -3.51,1.93c-8.28,7.68 -26.19,23.92 -26.19,23.92l3.29,-28.82l-17.21,-1.78c0,0 -5.17,36.33 -4.64,45.89c0.63,11.1 9.82,13.82 23.21,7.86c14.81,-6.6 23.93,-12.77 23.93,-12.77l10.84,-38.65z" fill="#FF725E" id="svg_792"/>
        </g>
       </g>
      </g>
     </g>
     <g id="svg_793">
      <g id="svg_794">
       <path d="m503.07,176.66l-1.77,34.44l1.78,6.7c0,0 16.75,34.23 19.46,56.89l-20.72,3.62c0,0 -5.66,-29.24 -9.63,-43.73c-3.98,-14.51 -15.7,-20.63 -19.67,-35.58c-3.98,-14.96 -2.51,-25.39 -2.51,-26.3c0,-0.9 8.16,-33.76 8.16,-33.76l1.46,-6.86l7.33,7.55l18.83,6.79l-2.73,30.24z" fill="#FF725E" id="svg_795"/>
      </g>
     </g>
     <g id="svg_796" opacity="0.3">
      <g id="svg_797">
       <g id="svg_798">
        <path d="m512.95,240.72c0,0 -7.12,5.9 -10.73,7.9c-0.22,0.12 -0.51,0.25 -0.83,0.38c-1.54,0.62 -3.27,-0.1 -4.05,-1.65c-0.44,-0.87 -0.89,-1.79 -1.19,-2.49c-0.76,-1.78 -1.59,-3.92 -2.32,-5.78l2.32,-0.61l3.38,6.06l9.74,-7.22l1.86,-1.38l1.82,4.77z" id="svg_799"/>
       </g>
      </g>
     </g>
     <g id="svg_800">
      <g id="svg_801">
       <path d="m453.95,140.08l-4.53,5.13l-10.86,4.13c0,0 -2.65,34.71 -1.22,42.07c1.39,7.1 4.04,15.74 4.26,25.94c0.22,10.2 -10.54,64.11 -10.54,64.11l13.01,5.35c0,0 6.64,-62.41 5.34,-76.02c-1.3,-13.6 2.07,-41.04 2.07,-41.04l2.46,-29.66z" fill="#FF725E" id="svg_802"/>
      </g>
     </g>
     <g id="svg_803">
      <g id="svg_804">
       <g id="svg_805">
        <path d="m478.58,206.25c-0.01,0.01 -0.18,-0.18 -0.47,-0.56c-0.3,-0.39 -0.68,-1 -1.1,-1.85c-0.83,-1.69 -1.57,-4.42 -1.69,-7.85c-0.12,-3.42 0.23,-7.47 0.77,-11.94c0.56,-4.46 1.44,-9.33 2.75,-14.33c2.41,-9.39 5.88,-17.48 8.87,-23.22l0.18,0.35c-1.71,-0.06 -3.25,-0.12 -4.61,-0.16l-0.33,-0.01l0.2,-0.29c1.26,-1.84 2.28,-3.32 3.02,-4.4c0.33,-0.47 0.61,-0.85 0.83,-1.15c0.19,-0.26 0.29,-0.39 0.31,-0.38c0.01,0.01 -0.07,0.16 -0.23,0.43c-0.2,0.32 -0.45,0.73 -0.75,1.21c-0.71,1.11 -1.68,2.62 -2.89,4.51l-0.13,-0.29c1.36,0.01 2.89,0.04 4.61,0.06l0.35,0.01l-0.18,0.33c-2.89,5.76 -6.29,13.84 -8.68,23.16c-1.3,4.96 -2.19,9.81 -2.78,14.24c-0.55,4.42 -0.95,8.47 -0.88,11.84c0.07,3.37 0.73,6.05 1.48,7.75c0.76,1.7 1.44,2.48 1.38,2.52z" fill="#263238" id="svg_806"/>
       </g>
      </g>
     </g>
     <g id="svg_807">
      <g id="svg_808">
       <g id="svg_809">
        <path d="m491.33,174.43c0.02,0.16 -2.35,0.78 -5.34,1.1c-2.98,0.32 -5.42,0.24 -5.42,0.07c-0.01,-0.17 2.41,-0.37 5.37,-0.69c2.96,-0.32 5.36,-0.66 5.39,-0.48z" fill="#263238" id="svg_810"/>
       </g>
      </g>
     </g>
     <g id="svg_811">
      <g id="svg_812">
       <g id="svg_813">
        <path d="m504.54,166.44c0.04,0.01 -0.06,0.63 -0.23,1.75c-0.14,1.12 -0.33,2.75 -0.51,4.76c-0.35,4.04 -0.71,9.63 -1.06,15.8c-0.34,6.12 -0.65,11.66 -0.88,15.82c-0.13,2.02 -0.24,3.66 -0.34,4.8c-0.1,1.12 -0.18,1.75 -0.21,1.75c-0.04,0 -0.04,-0.63 -0.01,-1.76c0.04,-1.26 0.09,-2.87 0.15,-4.81c0.14,-4.05 0.36,-9.65 0.72,-15.83c0.35,-6.18 0.77,-11.77 1.24,-15.81c0.22,-2.01 0.47,-3.64 0.68,-4.75c0.24,-1.11 0.42,-1.72 0.45,-1.71z" fill="#263238" id="svg_814"/>
       </g>
      </g>
     </g>
     <g id="svg_815">
      <g id="svg_816">
       <g id="svg_817">
        <path d="m528.65,205.53c-0.06,0.18 -2.09,-0.53 -4.69,-0.73c-2.6,-0.23 -4.71,0.16 -4.74,-0.04c-0.04,-0.14 2.09,-0.81 4.78,-0.59c2.7,0.22 4.72,1.22 4.65,1.35z" fill="#263238" id="svg_818"/>
       </g>
      </g>
     </g>
     <g id="svg_819">
      <g id="svg_820">
       <g id="svg_821">
        <path d="m409.61,173.19c0.14,0.07 -0.54,2.07 -1.52,4.46c-0.98,2.4 -1.9,4.28 -2.04,4.21c-0.14,-0.07 0.53,-2.07 1.52,-4.46c0.98,-2.39 1.9,-4.27 2.04,-4.21z" fill="#263238" id="svg_822"/>
       </g>
      </g>
     </g>
     <g id="svg_823">
      <g id="svg_824">
       <g id="svg_825">
        <path d="m436.7,161.7c0.15,0 0.41,6.77 0.55,15.13c0.15,8.36 0.14,15.14 -0.01,15.14c-0.17,0 -0.41,-6.77 -0.56,-15.13c-0.14,-8.36 -0.13,-15.13 0.02,-15.14z" fill="#263238" id="svg_826"/>
       </g>
      </g>
     </g>
     <g id="svg_827">
      <g id="svg_828">
       <g id="svg_829">
        <path d="m449.58,190.14c-0.04,0 -0.09,-0.62 -0.14,-1.75c-0.03,-1.24 -0.09,-2.85 -0.15,-4.76c-0.11,-4.03 -0.22,-9.6 -0.32,-15.75c-0.09,-6.15 -0.13,-11.71 -0.14,-15.74c0.01,-1.93 0.02,-3.53 0.02,-4.77c0.02,-1.12 0.04,-1.75 0.09,-1.75c0.04,0 0.09,0.62 0.14,1.75c0.03,1.24 0.09,2.85 0.15,4.77c0.11,4.03 0.22,9.59 0.32,15.74c0.09,6.14 0.13,11.71 0.14,15.74c-0.01,1.93 -0.02,3.53 -0.02,4.77c-0.02,1.12 -0.06,1.75 -0.09,1.75z" fill="#263238" id="svg_830"/>
       </g>
      </g>
     </g>
     <g id="svg_831">
      <g id="svg_832">
       <g id="svg_833">
        <path d="m531.35,220.93c0.01,0.01 -0.2,0.19 -0.6,0.5c-0.44,0.35 -1.03,0.8 -1.77,1.38c-1.6,1.22 -3.84,2.92 -6.64,5.03c-5.71,4.28 -13.63,10.2 -22.67,16.95l-0.24,0.19l-0.15,-0.29c-1.6,-2.87 -3.27,-5.86 -4.97,-8.91c-2.12,-3.83 -4.19,-7.55 -6.12,-11.03l-0.14,-0.26l0.23,-0.16c8.98,-5.75 16.78,-10.75 22.38,-14.34c2.76,-1.75 4.98,-3.15 6.56,-4.14c0.74,-0.45 1.33,-0.81 1.77,-1.09c0.41,-0.24 0.62,-0.36 0.63,-0.35c0.01,0.02 -0.19,0.17 -0.59,0.44c-0.43,0.29 -0.99,0.68 -1.71,1.17c-1.56,1.03 -3.76,2.48 -6.47,4.28c-5.58,3.65 -13.34,8.71 -22.28,14.53l0.1,-0.41c1.94,3.48 4.01,7.19 6.14,11.01c1.7,3.05 3.36,6.04 4.96,8.92l-0.41,-0.1c9.08,-6.67 17.04,-12.55 22.78,-16.77c2.84,-2.06 5.11,-3.71 6.74,-4.89c0.76,-0.54 1.37,-0.96 1.82,-1.28c0.42,-0.29 0.64,-0.43 0.65,-0.42z" fill="#263238" id="svg_834"/>
       </g>
      </g>
     </g>
     <g id="svg_835" opacity="0.3">
      <g id="svg_836">
       <g id="svg_837">
        <path d="m477.07,203.67c-0.54,-5.11 0.25,-10.27 1.28,-15.3c2.85,-13.96 7.57,-27.47 13.94,-39.98c-1.4,-1.03 -3.39,-0.57 -4.71,0.57c-1.31,1.16 -2.1,2.86 -2.81,4.52c-4.83,11.25 -8.01,23.39 -9.11,35.75c-0.25,2.87 -0.39,4.72 -0.17,7.22c0.22,2.5 0.22,5.14 1.66,7.12" id="svg_838"/>
       </g>
      </g>
     </g>
     <g id="svg_839" opacity="0.3">
      <g id="svg_840">
       <g id="svg_841">
        <path d="m436.67,164.21c-3.44,6.47 -2.98,14.23 0.3,20.78c0,-7.21 0,-13.45 -0.4,-20.69" id="svg_842"/>
       </g>
      </g>
     </g>
    </g>
    <g id="svg_843">
     <g id="svg_844">
      <path d="m463.37,116.3c-0.09,-0.42 -0.28,-0.85 -0.63,-1.04c-0.22,-0.12 -0.49,-0.12 -0.73,-0.12c-1.44,0.02 -2.86,0.25 -4.25,0.66l-0.08,0.24c0.09,0.67 0.18,1.34 0.39,1.97c0.2,0.63 0.52,1.24 1.01,1.66c0.91,0.78 2.3,0.74 3.23,-0.02c0.92,-0.75 1.33,-2.13 1.07,-3.35z" fill="#EB996E" id="svg_845"/>
     </g>
    </g>
    <g id="svg_846">
     <g id="svg_847">
      <g id="svg_848">
       <path d="m459.11,119.96c0.02,-0.11 0.73,0.22 1.79,-0.12c0.52,-0.17 1.09,-0.53 1.49,-1.15c0.39,-0.61 0.6,-1.48 0.4,-2.32c-0.1,-0.41 -0.3,-0.78 -0.55,-0.92c-0.27,-0.16 -0.63,-0.1 -0.99,-0.02c-0.68,0.14 -1.35,0.28 -2,0.41c-1.14,0.22 -1.84,0.31 -1.87,0.23c-0.01,-0.08 0.66,-0.33 1.79,-0.66c0.64,-0.17 1.29,-0.35 1.97,-0.54c0.36,-0.08 0.85,-0.22 1.36,0.05c0.49,0.28 0.73,0.81 0.85,1.32c0.24,1.03 -0.02,2.08 -0.52,2.8c-0.51,0.74 -1.23,1.11 -1.82,1.24c-1.24,0.25 -1.93,-0.28 -1.89,-0.31z" fill="#263238" id="svg_849"/>
      </g>
     </g>
    </g>
    <g id="svg_850">
     <g id="svg_851">
      <path d="m483.21,121.16c-0.3,-0.85 -1.27,-1.57 -2.08,-1.35l0.02,0c-0.49,0.05 -0.96,0.37 -1.23,0.81c-0.44,0.77 -0.36,1.85 0.21,2.52c0.56,0.66 1.57,0.83 2.3,0.37c0.72,-0.45 1.07,-1.51 0.77,-2.36z" fill="#FAFAFA" id="svg_852"/>
     </g>
    </g>
    <g id="svg_853">
     <g id="svg_854">
      <path d="m488.91,225.79l-12.78,-12.26l-10.79,1c0,0 0.38,1.91 1.87,2.21c1.48,0.31 6.88,0.41 6.88,0.41l2.53,2.71l-6.44,-0.69l-8.18,5.24c0,0 -0.19,1.6 1.96,1.21c2.14,-0.41 6.23,-2.22 6.23,-2.22l4.76,0.31l-5.19,0.8l-6.73,5.13c0,0 1.39,1.72 3.53,1.02c2.14,-0.71 4.74,-1.82 4.74,-1.82l5.87,-0.6l-5.87,1.6l-4.36,5.85c0,0 1.36,1.1 2.82,0c1.46,-1.11 2.49,-2.12 2.49,-2.12l6.51,-0.3c0,0 7.19,5.63 9.69,6.24c2.5,0.6 7.72,-1.04 7.72,-1.04l-7.23,-12.69z" fill="#FFBE9D" id="svg_855"/>
     </g>
    </g>
   </g>
  </g>
  <g id="svg_857">
   <g id="svg_858">
    <g id="svg_859">
     <rect fill="#FAFAFA" height="119.89" id="svg_860" width="199.04" x="829.17" y="205.47"/>
    </g>
   </g>
   <g id="svg_861">
    <g id="svg_862">
     <g id="svg_863">
      <path d="m1028.21,325.36c0,0 -0.01,-0.74 -0.02,-2.15c0,-1.42 -0.01,-3.52 -0.02,-6.27c-0.01,-5.49 -0.03,-13.57 -0.06,-23.97c-0.03,-20.75 -0.07,-50.69 -0.12,-87.5l0.22,0.24c-53.1,0.01 -122.86,0.04 -199.03,0.07l-0.01,0l0.29,-0.31c-0.01,42.4 -0.02,82.95 -0.02,119.89l-0.27,-0.29c58.25,0.06 107.97,0.11 143.15,0.14c17.6,0.02 31.55,0.06 41.12,0.07c4.78,0.01 8.47,0.04 10.97,0.04c1.23,0.01 2.18,0.01 2.83,0.02c0.63,0 0.97,0.01 0.97,0.01s-0.31,0.01 -0.93,0.02c-0.64,0 -1.58,0 -2.81,0.01c-2.49,0.01 -6.15,0.02 -10.9,0.04c-9.56,0.02 -23.49,0.05 -41.06,0.08c-35.22,0.04 -85,0.08 -143.33,0.14l-0.28,0l0,-0.3c0,-36.94 -0.01,-77.5 -0.01,-119.89l0,-0.31l0.29,0l0.01,0c76.17,0.02 145.93,0.05 199.03,0.07l0.22,0l0,0.24c-0.04,36.87 -0.09,66.86 -0.12,87.66c-0.02,10.36 -0.04,18.43 -0.06,23.91c-0.01,2.73 -0.01,4.81 -0.02,6.22c0,1.4 -0.02,2.1 -0.02,2.1z" fill="#263238" id="svg_864"/>
     </g>
    </g>
   </g>
  </g>
  <g id="svg_865">
   <g id="svg_866">
    <rect fill="#455A64" height="30.31" id="svg_867" width="28.14" x="569.5" y="338.04"/>
   </g>
  </g>
  <g id="svg_868">
   <g id="svg_869">
    <g id="svg_870">
     <path d="m636.28,342.31c0,0.17 -6.57,0.31 -14.66,0.31c-8.1,0 -14.68,-0.14 -14.68,-0.31c0,-0.18 6.57,-0.31 14.68,-0.31c8.09,-0.01 14.66,0.13 14.66,0.31z" fill="#FF725E" id="svg_871"/>
    </g>
   </g>
  </g>
  <g id="svg_872">
   <g id="svg_873">
    <g id="svg_874">
     <path d="m729.99,353.2c0,0.17 -27.55,0.31 -61.52,0.31c-33.98,0 -61.52,-0.14 -61.52,-0.31c0,-0.18 27.54,-0.31 61.52,-0.31c33.97,0 61.52,0.13 61.52,0.31z" fill="#263238" id="svg_875"/>
    </g>
   </g>
  </g>
  <g id="svg_876">
   <g id="svg_877">
    <g id="svg_878">
     <path d="m688.59,365.43c0,0.17 -18.11,0.31 -40.43,0.31c-22.32,0 -40.42,-0.14 -40.42,-0.31c0,-0.17 18.1,-0.31 40.42,-0.31c22.32,0 40.43,0.14 40.43,0.31z" fill="#263238" id="svg_879"/>
    </g>
   </g>
  </g>
  <g id="svg_946">
   <g id="svg_947">
    <rect fill="#FAFAFA" height="111.28" id="svg_948" width="208.67" x="815.45" y="30.18"/>
   </g>
  </g>
  <g id="svg_949" transform="matrix(1 0 0 1 0 0)">
   <g id="svg_950">
    <g id="svg_951">
     <path d="m1047.12,53.45c0,0 -0.03,-0.68 -0.03,-2.01c-0.01,-1.33 -0.03,-3.27 -0.04,-5.81c-0.01,-5.11 -0.03,-12.62 -0.07,-22.25c-0.03,-19.26 -0.09,-47.05 -0.14,-81.2l0.29,0.27c-55.67,0.01 -128.8,0.05 -208.66,0.08l-0.01,0l0.37,-0.36c0,39.35 -0.01,76.98 -0.03,111.27l-0.34,-0.33c61.07,0.07 113.18,0.12 150.06,0.16c18.45,0.03 33.08,0.07 43.13,0.08c5,0.01 8.87,0.03 11.49,0.04c1.3,0.01 2.29,0.01 2.97,0.03c0.67,0 1.03,0.01 1.03,0.01s-0.33,0.01 -0.99,0.01c-0.67,0.01 -1.65,0.01 -2.92,0.03c-2.61,0.01 -6.45,0.03 -11.44,0.04c-10.02,0.01 -24.62,0.05 -43.04,0.1c-36.93,0.03 -89.13,0.1 -150.29,0.15l-0.34,0l0,-0.33c-0.01,-34.29 -0.01,-71.92 -0.03,-111.27l0,-0.36l0.37,0l0.01,0c79.86,0.03 152.99,0.05 208.66,0.08l0.29,0l0,0.27c-0.07,34.23 -0.13,62.07 -0.16,81.37c-0.03,9.61 -0.06,17.1 -0.07,22.2c-0.01,2.51 -0.03,4.44 -0.03,5.75c-0.01,1.3 -0.03,1.95 -0.03,1.95z" fill="#263238" id="svg_952"/>
    </g>
   </g>
  </g>
  <g id="svg_953">
   <g id="svg_954">
    <rect fill="#455A64" height="28.13" id="svg_955" width="29.5" x="563.95" y="71.7"/>
   </g>
  </g>
  <g id="svg_956">
   <g id="svg_957">
    <g id="svg_958">
     <path d="m633.97,75.65c0,0.21 -6.89,0.37 -15.38,0.37c-8.5,0 -15.38,-0.16 -15.38,-0.37c0,-0.19 6.88,-0.36 15.38,-0.36c8.48,0 15.38,0.16 15.38,0.36z" fill="#FF725E" id="svg_959"/>
    </g>
   </g>
  </g>
  <g id="svg_960">
   <g id="svg_961">
    <g id="svg_962">
     <path d="m732.2,85.77c0,0.19 -28.88,0.36 -64.49,0.36c-35.62,0 -64.49,-0.16 -64.49,-0.36c0,-0.21 28.86,-0.37 64.49,-0.37c35.62,0 64.49,0.16 64.49,0.37z" fill="#263238" id="svg_963"/>
    </g>
   </g>
  </g>
  <g id="svg_964">
   <g id="svg_965">
    <g id="svg_966">
     <path d="m688.8,97.12c0,0.19 -18.98,0.36 -42.38,0.36c-23.4,0 -42.38,-0.16 -42.38,-0.36c0,-0.21 18.98,-0.36 42.38,-0.36c23.4,0 42.38,0.15 42.38,0.36z" fill="#263238" id="svg_967"/>
    </g>
   </g>
  </g>
  <g id="svg_283">
   <g id="svg_284">
    <g id="svg_285">
     <path d="m321.32,119.13l8.28,0l-8.2,7.66l-5.92,0l5.84,-7.66z" fill="#263238" id="svg_286"/>
    </g>
   </g>
   <g id="svg_287">
    <g id="svg_288">
     <path d="m228.4,192.03l0,19.87l-10.55,0l0,-17.88c0,-5.01 -1.88,-7.13 -4.93,-7.13c-3.39,0 -6,2.45 -6,8.21l0,16.79l-10.55,0l0,-47.56l10.55,0l0,16.02c2.33,-2.49 5.49,-3.77 9.05,-3.77c7.05,0 12.43,4.68 12.43,15.45z" fill="#263238" id="svg_289"/>
    </g>
    <g id="svg_290">
     <path d="m233.86,166.83c0,-3.65 2.55,-6.48 6.43,-6.48c3.9,0 6.45,2.63 6.45,6.3c0,3.84 -2.55,6.66 -6.45,6.66c-3.88,0 -6.43,-2.82 -6.43,-6.48zm1.16,10.33l10.55,0l0,34.74l-10.55,0l0,-34.74z" fill="#263238" id="svg_291"/>
    </g>
    <g id="svg_292">
     <path d="m272.56,176.58l0,10.96c-0.94,-0.14 -1.61,-0.2 -2.39,-0.2c-4.28,0 -7.22,2.51 -7.22,8.59l0,15.97l-10.55,0l0,-34.76l10.05,0l0,4.17c2.17,-3.14 5.66,-4.74 10.11,-4.74z" fill="#263238" id="svg_293"/>
    </g>
    <g id="svg_294">
     <path d="m275.72,166.83c0,-3.65 2.55,-6.48 6.45,-6.48c3.88,0 6.43,2.63 6.43,6.3c0,3.84 -2.55,6.66 -6.43,6.66c-3.9,0 -6.45,-2.82 -6.45,-6.48zm1.16,10.33l10.55,0l0,34.74l-10.55,0l0,-34.74z" fill="#263238" id="svg_295"/>
    </g>
    <g id="svg_296">
     <path d="m326.3,192.03l0,19.87l-10.55,0l0,-17.88c0,-5.01 -1.88,-7.13 -4.94,-7.13c-3.39,0 -5.99,2.45 -5.99,8.21l0,16.79l-10.55,0l0,-34.74l10.04,0l0,3.77c2.39,-2.88 5.78,-4.35 9.56,-4.35c7.05,0 12.43,4.68 12.43,15.45z" fill="#263238" id="svg_297"/>
    </g>
    <g id="svg_298">
     <path d="m365.72,177.16l0,28.4c0,13.15 -6.43,19.37 -17.65,19.37c-5.78,0 -11.27,-1.54 -14.94,-4.56l3.83,-8.53c2.51,2.31 6.62,3.73 10.17,3.73c5.66,0 8.04,-2.96 8.04,-8.41l0,-1.15c-2.05,2.76 -5.1,4.11 -8.93,4.11c-8,0 -14.77,-6.54 -14.77,-16.81c0,-10.19 6.77,-16.73 14.77,-16.73c4.16,0 7.37,1.54 9.44,4.8l0,-4.23l10.04,0zm-10.43,16.16c0,-4.23 -2.78,-7.05 -6.55,-7.05c-3.78,0 -6.62,2.82 -6.62,7.05c0,4.23 2.84,7.11 6.62,7.11c3.77,0 6.55,-2.88 6.55,-7.11z" fill="#263238" id="svg_299"/>
    </g>
    <g id="svg_300">
     <path d="m370.61,205.24c0,-4.36 2.78,-7.19 6.33,-7.19c3.61,0 6.33,2.82 6.33,7.19c0,4.23 -2.72,7.25 -6.33,7.25c-3.54,0 -6.33,-3.02 -6.33,-7.25z" fill="#FF725E" id="svg_301"/>
    </g>
   </g>
   <g id="svg_302">
    <g id="svg_303">
     <path d="m340.15,129.59l0,8.61c-0.73,-0.09 -1.26,-0.15 -1.87,-0.15c-3.36,0 -5.66,1.98 -5.66,6.75l0,12.53l-8.29,0l0,-27.28l7.9,0l0,3.28c1.7,-2.46 4.45,-3.73 7.92,-3.73z" fill="#263238" id="svg_304"/>
    </g>
    <g id="svg_305">
     <path d="m367.36,146.11l-17.18,0c0.71,2.76 2.75,4.38 5.81,4.38c2.3,0 3.83,-0.75 5.44,-2.37l4.37,5.24c-2.27,2.93 -5.58,4.44 -10.07,4.44c-8.42,0 -13.87,-5.99 -13.87,-14.15c0,-8.21 5.54,-14.06 13,-14.06c6.97,0 12.64,5.15 12.64,14.15c0,0.71 -0.09,1.62 -0.13,2.37zm-17.31,-5.03l9.68,0c-0.43,-2.87 -2.26,-4.68 -4.84,-4.68c-2.56,-0.02 -4.35,1.8 -4.84,4.68z" fill="#263238" id="svg_306"/>
    </g>
   </g>
   <g id="svg_307">
    <g id="svg_308">
     <path d="m288.64,130.06l-8.42,27.28l-8.01,0l-4.45,-14.86l-4.63,14.86l-8.01,0l-8.42,-27.28l7.84,0l4.84,16.5l5.02,-16.5l7.06,0l4.88,16.65l5.02,-16.65l7.28,0z" fill="#263238" id="svg_309"/>
    </g>
    <g id="svg_310">
     <path d="m314.52,146.11l-17.18,0c0.71,2.76 2.75,4.38 5.81,4.38c2.31,0 3.83,-0.75 5.45,-2.37l4.35,5.24c-2.26,2.93 -5.58,4.44 -10.07,4.44c-8.42,0 -13.86,-5.99 -13.86,-14.15c0,-8.21 5.53,-14.06 12.98,-14.06c6.98,0 12.64,5.15 12.64,14.15c0,0.71 -0.09,1.62 -0.13,2.37zm-17.31,-5.03l9.69,0c-0.44,-2.87 -2.27,-4.68 -4.85,-4.68c-2.56,-0.02 -4.35,1.8 -4.84,4.68z" fill="#263238" id="svg_311"/>
    </g>
   </g>
  </g>
  <g id="svg_989">
   <g id="svg_969">
    <path d="m718.98,147.71l-145.05,0c-7.69,0 -13.91,-7.18 -13.91,-16.04l0,0c0,-8.86 6.23,-16.04 13.91,-16.04l145.05,0c7.69,0 13.91,7.18 13.91,16.04l0,0c0,8.86 -6.23,16.04 -13.91,16.04z" fill="#FF725E" id="svg_970"/>
   </g>
   <g id="svg_971">
    <g id="svg_972">
     <path d="m619.79,133.92l-3.56,0l-0.67,1.88l-1.82,0l3.41,-8.83l1.75,0l3.43,8.83l-1.85,0l-0.69,-1.88zm-0.55,-1.56l-1.21,-3.38l-1.23,3.38l2.44,0z" fill="#FFFFFF" id="svg_973"/>
    </g>
    <g id="svg_974">
     <path d="m629.78,130.19c0,1.97 -1.28,3.18 -3.33,3.18l-1.55,0l0,2.44l-1.78,0l0,-8.83l3.33,0c2.04,0 3.33,1.23 3.33,3.21zm-1.79,0c0,-0.98 -0.55,-1.55 -1.63,-1.55l-1.44,0l0,3.06l1.44,0c1.08,0 1.63,-0.55 1.63,-1.51z" fill="#FFFFFF" id="svg_975"/>
    </g>
    <g id="svg_976">
     <path d="m637.68,130.19c0,1.97 -1.27,3.18 -3.33,3.18l-1.55,0l0,2.44l-1.76,0l0,-8.83l3.31,0c2.06,0 3.33,1.23 3.33,3.21zm-1.79,0c0,-0.98 -0.54,-1.55 -1.63,-1.55l-1.44,0l0,3.06l1.44,0c1.09,0 1.63,-0.55 1.63,-1.51z" fill="#FFFFFF" id="svg_977"/>
    </g>
    <g id="svg_978">
     <path d="m638.95,126.98l1.78,0l0,7.16l3.84,0l0,1.66l-5.62,0l0,-8.83z" fill="#FFFFFF" id="svg_979"/>
    </g>
    <g id="svg_980">
     <path d="m648.46,132.67l0,3.13l-1.78,0l0,-3.14l-2.96,-5.68l1.88,0l2.04,3.92l2.06,-3.92l1.74,0l-2.98,5.7z" fill="#FFFFFF" id="svg_981"/>
    </g>
    <g id="svg_982">
     <path d="m662.32,126.98l0,8.83l-1.46,0l-3.82,-5.36l0,5.36l-1.75,0l0,-8.83l1.47,0l3.81,5.36l0,-5.36l1.75,0z" fill="#FFFFFF" id="svg_983"/>
    </g>
    <g id="svg_984">
     <path d="m663.66,131.4c0,-2.62 1.78,-4.57 4.19,-4.57c2.41,0 4.2,1.93 4.2,4.57c0,2.62 -1.79,4.56 -4.2,4.56c-2.42,0 -4.19,-1.93 -4.19,-4.56zm6.59,0c0,-1.68 -1.04,-2.84 -2.41,-2.84c-1.36,0 -2.39,1.16 -2.39,2.84c0,1.68 1.04,2.82 2.39,2.82c1.37,0 2.41,-1.14 2.41,-2.82z" fill="#FFFFFF" id="svg_985"/>
    </g>
    <g id="svg_986">
     <path d="m684.72,126.98l-2.51,8.83l-1.91,0l-1.69,-5.99l-1.74,5.99l-1.9,0l-2.51,-8.83l1.84,0l1.72,6.2l1.81,-6.2l1.65,0l1.75,6.25l1.78,-6.25l1.71,0z" fill="#FFFFFF" id="svg_987"/>
    </g>
   </g>
  </g>
  <g id="svg_990" transform="matrix(1 0 0 1 0 0)">
   <g id="svg_880">
    <g id="svg_881">
     <path d="m725.78,417.48l-146.04,0c-7.73,0 -14,-7.19 -14,-16.05l0,0c0,-8.87 6.27,-16.05 14,-16.05l146.04,0c7.74,0 14.01,7.19 14.01,16.05l0,0c0,8.87 -6.27,16.05 -14.01,16.05z" fill="#FF725E" id="svg_882"/>
    </g>
   </g>
   <g id="svg_883">
    <g id="svg_884">
     <path d="m625.92,403.67l-3.59,0l-0.68,1.9l-1.84,0l3.45,-8.84l1.76,0l3.45,8.84l-1.87,0l-0.68,-1.9zm-0.56,-1.54l-1.23,-3.39l-1.23,3.39l2.46,0z" fill="#FFFFFF" id="svg_885"/>
    </g>
    <g id="svg_886">
     <path d="m635.98,399.94c0,1.97 -1.29,3.2 -3.35,3.2l-1.55,0l0,2.43l-1.79,0l0,-8.84l3.34,0c2.06,0 3.35,1.22 3.35,3.21zm-1.8,0c0,-0.98 -0.56,-1.54 -1.65,-1.54l-1.45,0l0,3.07l1.45,0c1.09,0 1.65,-0.57 1.65,-1.53z" fill="#FFFFFF" id="svg_887"/>
    </g>
    <g id="svg_888">
     <path d="m643.94,399.94c0,1.97 -1.29,3.2 -3.35,3.2l-1.56,0l0,2.43l-1.78,0l0,-8.84l3.34,0c2.06,0 3.35,1.22 3.35,3.21zm-1.81,0c0,-0.98 -0.55,-1.54 -1.63,-1.54l-1.47,0l0,3.07l1.47,0c1.09,0 1.63,-0.57 1.63,-1.53z" fill="#FFFFFF" id="svg_889"/>
    </g>
    <g id="svg_890">
     <path d="m645.22,396.73l1.78,0l0,7.17l3.88,0l0,1.67l-5.65,0l0,-8.84z" fill="#FFFFFF" id="svg_891"/>
    </g>
    <g id="svg_892">
     <path d="m654.78,402.44l0,3.13l-1.78,0l0,-3.16l-2.99,-5.68l1.9,0l2.06,3.93l2.06,-3.93l1.75,0l-3,5.71z" fill="#FFFFFF" id="svg_893"/>
    </g>
    <g id="svg_894">
     <path d="m668.73,396.73l0,8.84l-1.47,0l-3.84,-5.37l0,5.37l-1.76,0l0,-8.84l1.48,0l3.84,5.37l0,-5.37l1.75,0z" fill="#FFFFFF" id="svg_895"/>
    </g>
    <g id="svg_896">
     <path d="m670.08,401.15c0,-2.64 1.79,-4.58 4.23,-4.58c2.42,0 4.22,1.93 4.22,4.58c0,2.64 -1.8,4.56 -4.22,4.56c-2.44,0 -4.23,-1.94 -4.23,-4.56zm6.64,0c0,-1.68 -1.04,-2.84 -2.41,-2.84c-1.38,0 -2.42,1.16 -2.42,2.84s1.04,2.83 2.42,2.83c1.37,0 2.41,-1.16 2.41,-2.83z" fill="#FFFFFF" id="svg_897"/>
    </g>
    <g id="svg_898">
     <path d="m691.29,396.73l-2.53,8.84l-1.92,0l-1.69,-5.98l-1.75,5.98l-1.91,0l-2.54,-8.84l1.85,0l1.74,6.22l1.82,-6.22l1.66,0l1.76,6.26l1.79,-6.26l1.72,0z" fill="#FFFFFF" id="svg_899"/>
    </g>
   </g>
  </g>
  <g id="svg_991">
   <g id="svg_157">
    <g id="svg_158">
     <path d="m726.49,276.82l-122.89,0c-6.52,0 -11.79,-6.37 -11.79,-14.25l0,0c0,-7.86 5.28,-14.23 11.79,-14.23l122.89,0c6.51,0 11.78,6.37 11.78,14.23l0,0c0,7.87 -5.28,14.25 -11.78,14.25z" fill="#E0E0E0" id="svg_159"/>
    </g>
   </g>
   <g id="svg_160">
    <g id="svg_161">
     <path d="m642.45,264.58l-3.02,0l-0.58,1.68l-1.53,0l2.89,-7.85l1.49,0l2.9,7.85l-1.58,0l-0.58,-1.68zm-0.47,-1.38l-1.03,-3.01l-1.04,3.01l2.06,0z" fill="#FFFFFF" id="svg_162"/>
    </g>
    <g id="svg_163">
     <path d="m650.91,261.25c0,1.75 -1.08,2.84 -2.82,2.84l-1.3,0l0,2.17l-1.51,0l0,-7.85l2.81,0c1.74,0 2.82,1.09 2.82,2.84zm-1.52,0c0,-0.86 -0.46,-1.36 -1.38,-1.36l-1.22,0l0,2.73l1.22,0c0.92,0 1.38,-0.5 1.38,-1.36z" fill="#FFFFFF" id="svg_164"/>
    </g>
    <g id="svg_165">
     <path d="m657.61,261.25c0,1.75 -1.08,2.84 -2.82,2.84l-1.31,0l0,2.17l-1.5,0l0,-7.85l2.81,0c1.74,0 2.82,1.09 2.82,2.84zm-1.52,0c0,-0.86 -0.47,-1.36 -1.38,-1.36l-1.23,0l0,2.73l1.23,0c0.91,0 1.38,-0.5 1.38,-1.36z" fill="#FFFFFF" id="svg_166"/>
    </g>
    <g id="svg_167">
     <path d="m658.68,258.41l1.5,0l0,6.36l3.26,0l0,1.49l-4.76,0l0,-7.85z" fill="#FFFFFF" id="svg_168"/>
    </g>
    <g id="svg_169">
     <path d="m666.74,263.48l0,2.78l-1.51,0l0,-2.81l-2.51,-5.04l1.6,0l1.73,3.48l1.74,-3.48l1.47,0l-2.52,5.06z" fill="#FFFFFF" id="svg_170"/>
    </g>
    <g id="svg_171">
     <path d="m678.47,258.41l0,7.85l-1.23,0l-3.24,-4.77l0,4.77l-1.49,0l0,-7.85l1.24,0l3.24,4.76l0,-4.76l1.47,0z" fill="#FFFFFF" id="svg_172"/>
    </g>
    <g id="svg_173">
     <path d="m679.61,262.34c0,-2.34 1.5,-4.06 3.55,-4.06c2.05,0 3.56,1.71 3.56,4.06c0,2.34 -1.51,4.06 -3.56,4.06c-2.05,-0.01 -3.55,-1.73 -3.55,-4.06zm5.59,0c0,-1.49 -0.88,-2.52 -2.04,-2.52c-1.15,0 -2.03,1.03 -2.03,2.52s0.88,2.5 2.03,2.5c1.16,0 2.04,-1.02 2.04,-2.5z" fill="#FFFFFF" id="svg_174"/>
    </g>
    <g id="svg_175">
     <path d="m697.45,258.41l-2.12,7.85l-1.61,0l-1.43,-5.31l-1.47,5.31l-1.61,0l-2.13,-7.85l1.55,0l1.46,5.51l1.53,-5.51l1.39,0l1.49,5.57l1.51,-5.57l1.44,0z" fill="#FFFFFF" id="svg_176"/>
    </g>
   </g>
  </g>
  <g id="svg_992" transform="matrix(1 0 0 1 0 0)">
   <g id="svg_25">
    <g id="svg_26">
     <path d="m161.09,204.1l-127.93,0c-6.77,0 -12.27,-6.39 -12.27,-14.25l0,0c0,-7.86 5.49,-14.23 12.27,-14.23l127.93,0c6.77,0 12.28,6.37 12.28,14.23l0,0c0,7.86 -5.5,14.25 -12.28,14.25z" fill="#E0E0E0" id="svg_27"/>
    </g>
   </g>
   <g id="svg_28">
    <g id="svg_29">
     <path d="m73.61,191.86l-3.14,0l-0.6,1.67l-1.61,0l3.02,-7.83l1.55,0l3.02,7.83l-1.64,0l-0.6,-1.67zm-0.49,-1.38l-1.08,-3.01l-1.07,3.01l2.15,0z" fill="#FFFFFF" id="svg_30"/>
    </g>
    <g id="svg_31">
     <path d="m82.42,188.53c0,1.75 -1.14,2.84 -2.94,2.84l-1.37,0l0,2.17l-1.56,0l0,-7.85l2.93,0c1.8,0 2.94,1.09 2.94,2.84zm-1.58,0c0,-0.86 -0.49,-1.36 -1.44,-1.36l-1.28,0l0,2.73l1.28,0c0.95,0 1.44,-0.5 1.44,-1.36z" fill="#FFFFFF" id="svg_32"/>
    </g>
    <g id="svg_33">
     <path d="m89.39,188.53c0,1.75 -1.13,2.84 -2.93,2.84l-1.37,0l0,2.17l-1.57,0l0,-7.85l2.94,0c1.8,0 2.93,1.09 2.93,2.84zm-1.58,0c0,-0.86 -0.48,-1.36 -1.44,-1.36l-1.27,0l0,2.73l1.27,0c0.96,0 1.44,-0.5 1.44,-1.36z" fill="#FFFFFF" id="svg_34"/>
    </g>
    <g id="svg_35">
     <path d="m90.51,185.69l1.57,0l0,6.36l3.39,0l0,1.47l-4.96,0l0,-7.83z" fill="#FFFFFF" id="svg_36"/>
    </g>
    <g id="svg_37">
     <path d="m98.9,190.76l0,2.78l-1.57,0l0,-2.81l-2.61,-5.04l1.65,0l1.81,3.48l1.81,-3.48l1.53,0l-2.63,5.06z" fill="#FFFFFF" id="svg_38"/>
    </g>
    <g id="svg_39">
     <path d="m111.11,185.69l0,7.85l-1.28,0l-3.37,-4.77l0,4.77l-1.55,0l0,-7.85l1.29,0l3.36,4.76l0,-4.76l1.55,0z" fill="#FFFFFF" id="svg_40"/>
    </g>
    <g id="svg_41">
     <path d="m112.29,189.62c0,-2.34 1.57,-4.06 3.7,-4.06c2.12,0 3.69,1.71 3.69,4.06c0,2.34 -1.57,4.05 -3.69,4.05c-2.13,0 -3.7,-1.73 -3.7,-4.05zm5.81,0c0,-1.49 -0.9,-2.52 -2.11,-2.52s-2.11,1.02 -2.11,2.52c0,1.49 0.9,2.5 2.11,2.5s2.11,-1.02 2.11,-2.5z" fill="#FFFFFF" id="svg_42"/>
    </g>
    <g id="svg_43">
     <path d="m130.87,185.69l-2.22,7.85l-1.68,0l-1.49,-5.31l-1.53,5.31l-1.68,0l-2.22,-7.85l1.63,0l1.52,5.51l1.59,-5.51l1.45,0l1.55,5.55l1.57,-5.55l1.5,0z" fill="#FFFFFF" id="svg_44"/>
    </g>
   </g>
  </g>
  <g id="svg_993">
   <g id="svg_69">
    <g id="svg_70">
     <path d="m166.64,417.24l-117.8,0c-6.25,0 -11.31,-6.08 -11.31,-13.59l0,0c0,-7.49 5.06,-13.57 11.31,-13.57l117.8,0c6.25,0 11.31,6.08 11.31,13.57l0,0c0,7.51 -5.06,13.59 -11.31,13.59z" fill="#E0E0E0" id="svg_71"/>
    </g>
   </g>
   <g id="svg_72">
    <g id="svg_73">
     <path d="m86.07,405.57l-2.89,0l-0.55,1.6l-1.47,0l2.77,-7.48l1.42,0l2.78,7.48l-1.52,0l-0.55,-1.6zm-0.45,-1.32l-0.98,-2.87l-1,2.87l1.98,0z" fill="#FFFFFF" id="svg_74"/>
    </g>
    <g id="svg_75">
     <path d="m94.18,402.41c0,1.66 -1.03,2.7 -2.7,2.7l-1.25,0l0,2.06l-1.44,0l0,-7.48l2.7,0c1.66,0 2.7,1.03 2.7,2.72zm-1.46,0c0,-0.83 -0.45,-1.3 -1.32,-1.3l-1.18,0l0,2.59l1.18,0c0.87,0 1.32,-0.49 1.32,-1.29z" fill="#FFFFFF" id="svg_76"/>
    </g>
    <g id="svg_77">
     <path d="m100.61,402.41c0,1.66 -1.03,2.7 -2.7,2.7l-1.25,0l0,2.06l-1.44,0l0,-7.48l2.7,0c1.66,0 2.7,1.03 2.7,2.72zm-1.46,0c0,-0.83 -0.45,-1.3 -1.33,-1.3l-1.16,0l0,2.59l1.16,0c0.88,0 1.33,-0.49 1.33,-1.29z" fill="#FFFFFF" id="svg_78"/>
    </g>
    <g id="svg_79">
     <path d="m101.64,399.69l1.44,0l0,6.06l3.12,0l0,1.41l-4.56,0l0,-7.48z" fill="#FFFFFF" id="svg_80"/>
    </g>
    <g id="svg_81">
     <path d="m109.36,404.51l0,2.66l-1.44,0l0,-2.67l-2.4,-4.8l1.52,0l1.67,3.32l1.66,-3.32l1.41,0l-2.41,4.82z" fill="#FFFFFF" id="svg_82"/>
    </g>
    <g id="svg_83">
     <path d="m120.61,399.69l0,7.48l-1.19,0l-3.09,-4.54l0,4.54l-1.43,0l0,-7.48l1.19,0l3.1,4.54l0,-4.54l1.42,0z" fill="#FFFFFF" id="svg_84"/>
    </g>
    <g id="svg_85">
     <path d="m121.7,403.42c0,-2.21 1.44,-3.87 3.41,-3.87c1.95,0 3.4,1.64 3.4,3.87c0,2.24 -1.44,3.87 -3.4,3.87c-1.97,0 -3.41,-1.64 -3.41,-3.87zm5.35,0c0,-1.41 -0.83,-2.39 -1.94,-2.39c-1.11,0 -1.94,0.98 -1.94,2.39c0,1.43 0.83,2.39 1.94,2.39c1.11,0 1.94,-0.97 1.94,-2.39z" fill="#FFFFFF" id="svg_86"/>
    </g>
    <g id="svg_87">
     <path d="m138.8,399.69l-2.03,7.48l-1.55,0l-1.38,-5.07l-1.41,5.07l-1.55,0l-2.04,-7.48l1.49,0l1.41,5.25l1.47,-5.25l1.33,0l1.43,5.3l1.44,-5.3l1.38,0z" fill="#FFFFFF" id="svg_88"/>
    </g>
   </g>
  </g>
 </g>
</svg>